<?xml version="1.0" encoding="utf-8" standalone="no"?>
<!DOCTYPE svg PUBLIC "-//W3C//DTD SVG 1.1//EN"
  "http://www.w3.org/Graphics/SVG/1.1/DTD/svg11.dtd">
<!-- Created with matplotlib (https://matplotlib.org/) -->
<svg height="334.416233pt" version="1.1" viewBox="0 0 426.274536 334.416233" width="426.274536pt" xmlns="http://www.w3.org/2000/svg" xmlns:xlink="http://www.w3.org/1999/xlink">
 <defs>
  <style type="text/css">
*{stroke-linecap:butt;stroke-linejoin:round;white-space:pre;}
  </style>
 </defs>
 <g id="figure_1">
  <g id="patch_1">
   <path d="M 0 334.416233 
L 426.274536 334.416233 
L 426.274536 0 
L 0 0 
z
" style="fill:none;"/>
  </g>
  <g id="axes_1">
   <g id="patch_2">
    <path d="M 53.151002 289.274625 
L 410.271002 289.274625 
L 410.271002 23.162625 
L 53.151002 23.162625 
z
" style="fill:none;"/>
   </g>
   <g id="matplotlib.axis_1">
    <g id="xtick_1">
     <g id="line2d_1">
      <defs>
       <path d="M 0 0 
L 0 6 
" id="mbc5538be82" style="stroke:#262626;stroke-width:1.25;"/>
      </defs>
      <g>
       <use style="fill:#262626;stroke:#262626;stroke-width:1.25;" x="53.151002" xlink:href="#mbc5538be82" y="289.274625"/>
      </g>
     </g>
     <g id="text_1">
      <!-- $10^{-5}$ -->
      <defs>
       <path d="M 26.59375 63.796875 
C 26.59375 65.890625 26.5 66 25.09375 66 
C 21.203125 61.359375 15.296875 59.890625 9.703125 59.6875 
C 9.40625 59.6875 8.90625 59.6875 8.796875 59.5 
C 8.703125 59.296875 8.703125 59.09375 8.703125 57 
C 11.796875 57 17 57.59375 21 59.984375 
L 21 7.296875 
C 21 3.796875 20.796875 2.59375 12.203125 2.59375 
L 9.203125 2.59375 
L 9.203125 0 
C 14 0.09375 19 0.1875 23.796875 0.1875 
C 28.59375 0.1875 33.59375 0.09375 38.40625 0 
L 38.40625 2.59375 
L 35.40625 2.59375 
C 26.796875 2.59375 26.59375 3.6875 26.59375 7.296875 
z
" id="CMR17-49"/>
       <path d="M 42 31.84375 
C 42 37.96875 41.90625 48.421875 37.703125 56.453125 
C 34 63.484375 28.09375 66 22.90625 66 
C 18.09375 66 12 63.78125 8.203125 56.5625 
C 4.203125 49.015625 3.796875 39.671875 3.796875 31.84375 
C 3.796875 26.109375 3.90625 17.375 7 9.734375 
C 11.296875 -0.609375 19 -2 22.90625 -2 
C 27.5 -2 34.5 -0.109375 38.59375 9.4375 
C 41.59375 16.375 42 24.5 42 31.84375 
z
M 22.90625 -0.40625 
C 16.5 -0.40625 12.703125 5.125 11.296875 12.75 
C 10.203125 18.6875 10.203125 27.328125 10.203125 32.953125 
C 10.203125 40.6875 10.203125 47.109375 11.5 53.234375 
C 13.40625 61.78125 19 64.390625 22.90625 64.390625 
C 27 64.390625 32.296875 61.671875 34.203125 53.4375 
C 35.5 47.71875 35.59375 40.984375 35.59375 32.953125 
C 35.59375 26.421875 35.59375 18.375 34.40625 12.453125 
C 32.296875 1.5 26.40625 -0.40625 22.90625 -0.40625 
z
" id="CMR17-48"/>
       <path d="M 65.90625 23 
C 67.59375 23 69.40625 23 69.40625 25 
C 69.40625 27 67.59375 27 65.90625 27 
L 11.796875 27 
C 10.09375 27 8.296875 27 8.296875 25 
C 8.296875 23 10.09375 23 11.796875 23 
z
" id="CMSY10-0"/>
       <path d="M 11.40625 58.59375 
C 12.40625 58.1875 16.5 56.890625 20.703125 56.890625 
C 30 56.890625 35.09375 61.890625 38 64.6875 
C 38 65.484375 38 66 37.40625 66 
C 37.296875 66 37.09375 66 36.296875 65.59375 
C 32.796875 64.09375 28.703125 63 23.703125 63 
C 20.703125 63 16.203125 63.359375 11.296875 65.484375 
C 10.203125 66 10 66 9.90625 66 
C 9.40625 66 9.296875 65.890625 9.296875 63.90625 
L 9.296875 34.859375 
C 9.296875 33.015625 9.296875 32.5 10.296875 32.5 
C 10.796875 32.5 11 32.703125 11.5 33.421875 
C 14.703125 38.046875 19.09375 40 24.09375 40 
C 27.59375 40 35.09375 37.734375 35.09375 20.203125 
C 35.09375 16.984375 35.09375 11.1875 32.09375 6.59375 
C 29.59375 2.484375 25.703125 0.390625 21.40625 0.390625 
C 14.796875 0.390625 8.09375 4.984375 6.296875 12.6875 
C 6.703125 12.59375 7.5 12.390625 7.90625 12.390625 
C 9.203125 12.390625 11.703125 13.09375 11.703125 16.1875 
C 11.703125 18.890625 9.796875 20 7.90625 20 
C 5.59375 20 4.09375 18.59375 4.09375 15.796875 
C 4.09375 7.09375 11 -2 21.59375 -2 
C 31.90625 -2 41.703125 6.890625 41.703125 19.796875 
C 41.703125 32.09375 33.90625 41.59375 24.203125 41.59375 
C 19.09375 41.59375 14.796875 39.6875 11.40625 36 
z
" id="CMR17-53"/>
      </defs>
      <g style="fill:#262626;" transform="translate(40.668164 307.90702)scale(0.132 -0.132)">
       <use transform="scale(0.996264)" xlink:href="#CMR17-49"/>
       <use transform="translate(45.690477 0)scale(0.996264)" xlink:href="#CMR17-48"/>
       <use transform="translate(91.380954 36.153639)scale(0.697382)" xlink:href="#CMSY10-0"/>
       <use transform="translate(145.621947 36.153639)scale(0.697382)" xlink:href="#CMR17-53"/>
      </g>
     </g>
    </g>
    <g id="xtick_2">
     <g id="line2d_2">
      <g>
       <use style="fill:#262626;stroke:#262626;stroke-width:1.25;" x="124.575002" xlink:href="#mbc5538be82" y="289.274625"/>
      </g>
     </g>
     <g id="text_2">
      <!-- $10^{-4}$ -->
      <defs>
       <path d="M 33.59375 64.796875 
C 33.59375 66.890625 33.5 67 31.703125 67 
L 2 19.59375 
L 2 17 
L 27.796875 17 
L 27.796875 7.1875 
C 27.796875 3.59375 27.59375 2.59375 20.59375 2.59375 
L 18.703125 2.59375 
L 18.703125 0 
C 21.90625 0.1875 27.296875 0.1875 30.703125 0.1875 
C 34.09375 0.1875 39.5 0.1875 42.703125 0 
L 42.703125 2.59375 
L 40.796875 2.59375 
C 33.796875 2.59375 33.59375 3.59375 33.59375 7.1875 
L 33.59375 17 
L 43.796875 17 
L 43.796875 19.59375 
L 33.59375 19.59375 
z
M 28.09375 58.171875 
L 28.09375 19.59375 
L 4 19.59375 
z
" id="CMR17-52"/>
      </defs>
      <g style="fill:#262626;" transform="translate(112.092164 307.90702)scale(0.132 -0.132)">
       <use transform="scale(0.996264)" xlink:href="#CMR17-49"/>
       <use transform="translate(45.690477 0)scale(0.996264)" xlink:href="#CMR17-48"/>
       <use transform="translate(91.380954 36.153639)scale(0.697382)" xlink:href="#CMSY10-0"/>
       <use transform="translate(145.621947 36.153639)scale(0.697382)" xlink:href="#CMR17-52"/>
      </g>
     </g>
    </g>
    <g id="xtick_3">
     <g id="line2d_3">
      <g>
       <use style="fill:#262626;stroke:#262626;stroke-width:1.25;" x="195.999002" xlink:href="#mbc5538be82" y="289.274625"/>
      </g>
     </g>
     <g id="text_3">
      <!-- $10^{-3}$ -->
      <defs>
       <path d="M 22.09375 34 
C 31 34 34.90625 26.140625 34.90625 17.09375 
C 34.90625 5.03125 28.5 0.390625 22.703125 0.390625 
C 17.40625 0.390625 8.796875 3.015625 6.09375 10.796875 
C 6.59375 10.59375 7.09375 10.59375 7.59375 10.59375 
C 10 10.59375 11.796875 12.1875 11.796875 14.796875 
C 11.796875 17.6875 9.59375 19 7.59375 19 
C 5.90625 19 3.296875 18.1875 3.296875 14.484375 
C 3.296875 5.234375 12.296875 -2 22.90625 -2 
C 34 -2 42.5 6.75 42.5 16.984375 
C 42.5 26.84375 34.5 34 25 35.09375 
C 32.59375 36.671875 39.90625 43.375 39.90625 52.390625 
C 39.90625 60.25 32 66 23 66 
C 13.90625 66 5.90625 60.34375 5.90625 52.296875 
C 5.90625 48.796875 8.5 48.1875 9.796875 48.1875 
C 11.90625 48.1875 13.703125 49.484375 13.703125 52.09375 
C 13.703125 54.6875 11.90625 56 9.796875 56 
C 9.40625 56 8.90625 56 8.5 55.796875 
C 11.40625 62.484375 19.296875 63.6875 22.796875 63.6875 
C 26.296875 63.6875 32.90625 61.96875 32.90625 52.296875 
C 32.90625 49.484375 32.5 44.546875 29.09375 40.21875 
C 26.09375 36.390625 22.703125 36.1875 19.40625 35.890625 
C 18.90625 35.890625 16.59375 35.6875 16.203125 35.6875 
C 15.5 35.59375 15.09375 35.5 15.09375 34.796875 
C 15.09375 34.09375 15.203125 34 17.203125 34 
z
" id="CMR17-51"/>
      </defs>
      <g style="fill:#262626;" transform="translate(183.516164 307.90702)scale(0.132 -0.132)">
       <use transform="scale(0.996264)" xlink:href="#CMR17-49"/>
       <use transform="translate(45.690477 0)scale(0.996264)" xlink:href="#CMR17-48"/>
       <use transform="translate(91.380954 36.153639)scale(0.697382)" xlink:href="#CMSY10-0"/>
       <use transform="translate(145.621947 36.153639)scale(0.697382)" xlink:href="#CMR17-51"/>
      </g>
     </g>
    </g>
    <g id="xtick_4">
     <g id="line2d_4">
      <g>
       <use style="fill:#262626;stroke:#262626;stroke-width:1.25;" x="267.423002" xlink:href="#mbc5538be82" y="289.274625"/>
      </g>
     </g>
     <g id="text_4">
      <!-- $10^{-2}$ -->
      <defs>
       <path d="M 41.703125 15.46875 
L 39.90625 15.46875 
C 38.90625 8.390625 38.09375 7.1875 37.703125 6.59375 
C 37.203125 5.796875 30 5.796875 28.59375 5.796875 
L 9.40625 5.796875 
C 13 9.6875 20 16.765625 28.5 24.9375 
C 34.59375 30.71875 41.703125 37.5 41.703125 47.390625 
C 41.703125 59.1875 32.296875 66 21.796875 66 
C 10.796875 66 4.09375 56.296875 4.09375 47.296875 
C 4.09375 43.390625 7 42.890625 8.203125 42.890625 
C 9.203125 42.890625 12.203125 43.484375 12.203125 46.984375 
C 12.203125 50.09375 9.59375 51 8.203125 51 
C 7.59375 51 7 50.890625 6.59375 50.6875 
C 8.5 59.1875 14.296875 63.390625 20.40625 63.390625 
C 29.09375 63.390625 34.796875 56.5 34.796875 47.390625 
C 34.796875 38.703125 29.703125 31.21875 24 24.734375 
L 4.09375 2.296875 
L 4.09375 0 
L 39.296875 0 
z
" id="CMR17-50"/>
      </defs>
      <g style="fill:#262626;" transform="translate(254.940164 307.90702)scale(0.132 -0.132)">
       <use transform="scale(0.996264)" xlink:href="#CMR17-49"/>
       <use transform="translate(45.690477 0)scale(0.996264)" xlink:href="#CMR17-48"/>
       <use transform="translate(91.380954 36.153639)scale(0.697382)" xlink:href="#CMSY10-0"/>
       <use transform="translate(145.621947 36.153639)scale(0.697382)" xlink:href="#CMR17-50"/>
      </g>
     </g>
    </g>
    <g id="xtick_5">
     <g id="line2d_5">
      <g>
       <use style="fill:#262626;stroke:#262626;stroke-width:1.25;" x="338.847002" xlink:href="#mbc5538be82" y="289.274625"/>
      </g>
     </g>
     <g id="text_5">
      <!-- $10^{-1}$ -->
      <g style="fill:#262626;" transform="translate(326.364164 307.90702)scale(0.132 -0.132)">
       <use transform="scale(0.996264)" xlink:href="#CMR17-49"/>
       <use transform="translate(45.690477 0)scale(0.996264)" xlink:href="#CMR17-48"/>
       <use transform="translate(91.380954 36.153639)scale(0.697382)" xlink:href="#CMSY10-0"/>
       <use transform="translate(145.621947 36.153639)scale(0.697382)" xlink:href="#CMR17-49"/>
      </g>
     </g>
    </g>
    <g id="xtick_6">
     <g id="line2d_6">
      <g>
       <use style="fill:#262626;stroke:#262626;stroke-width:1.25;" x="410.271002" xlink:href="#mbc5538be82" y="289.274625"/>
      </g>
     </g>
     <g id="text_6">
      <!-- $10^{0}$ -->
      <g style="fill:#262626;" transform="translate(401.467467 307.90702)scale(0.132 -0.132)">
       <use transform="scale(0.996264)" xlink:href="#CMR17-49"/>
       <use transform="translate(45.690477 0)scale(0.996264)" xlink:href="#CMR17-48"/>
       <use transform="translate(91.380954 36.153639)scale(0.697382)" xlink:href="#CMR17-48"/>
      </g>
     </g>
    </g>
    <g id="xtick_7">
     <g id="line2d_7">
      <defs>
       <path d="M 0 0 
L 0 4 
" id="m34d2635cc4" style="stroke:#262626;"/>
      </defs>
      <g>
       <use style="fill:#262626;stroke:#262626;" x="74.651768" xlink:href="#m34d2635cc4" y="289.274625"/>
      </g>
     </g>
    </g>
    <g id="xtick_8">
     <g id="line2d_8">
      <g>
       <use style="fill:#262626;stroke:#262626;" x="87.22891" xlink:href="#m34d2635cc4" y="289.274625"/>
      </g>
     </g>
    </g>
    <g id="xtick_9">
     <g id="line2d_9">
      <g>
       <use style="fill:#262626;stroke:#262626;" x="96.152534" xlink:href="#m34d2635cc4" y="289.274625"/>
      </g>
     </g>
    </g>
    <g id="xtick_10">
     <g id="line2d_10">
      <g>
       <use style="fill:#262626;stroke:#262626;" x="103.074235" xlink:href="#m34d2635cc4" y="289.274625"/>
      </g>
     </g>
    </g>
    <g id="xtick_11">
     <g id="line2d_11">
      <g>
       <use style="fill:#262626;stroke:#262626;" x="108.729677" xlink:href="#m34d2635cc4" y="289.274625"/>
      </g>
     </g>
    </g>
    <g id="xtick_12">
     <g id="line2d_12">
      <g>
       <use style="fill:#262626;stroke:#262626;" x="113.511284" xlink:href="#m34d2635cc4" y="289.274625"/>
      </g>
     </g>
    </g>
    <g id="xtick_13">
     <g id="line2d_13">
      <g>
       <use style="fill:#262626;stroke:#262626;" x="117.653301" xlink:href="#m34d2635cc4" y="289.274625"/>
      </g>
     </g>
    </g>
    <g id="xtick_14">
     <g id="line2d_14">
      <g>
       <use style="fill:#262626;stroke:#262626;" x="121.306819" xlink:href="#m34d2635cc4" y="289.274625"/>
      </g>
     </g>
    </g>
    <g id="xtick_15">
     <g id="line2d_15">
      <g>
       <use style="fill:#262626;stroke:#262626;" x="146.075768" xlink:href="#m34d2635cc4" y="289.274625"/>
      </g>
     </g>
    </g>
    <g id="xtick_16">
     <g id="line2d_16">
      <g>
       <use style="fill:#262626;stroke:#262626;" x="158.65291" xlink:href="#m34d2635cc4" y="289.274625"/>
      </g>
     </g>
    </g>
    <g id="xtick_17">
     <g id="line2d_17">
      <g>
       <use style="fill:#262626;stroke:#262626;" x="167.576534" xlink:href="#m34d2635cc4" y="289.274625"/>
      </g>
     </g>
    </g>
    <g id="xtick_18">
     <g id="line2d_18">
      <g>
       <use style="fill:#262626;stroke:#262626;" x="174.498235" xlink:href="#m34d2635cc4" y="289.274625"/>
      </g>
     </g>
    </g>
    <g id="xtick_19">
     <g id="line2d_19">
      <g>
       <use style="fill:#262626;stroke:#262626;" x="180.153677" xlink:href="#m34d2635cc4" y="289.274625"/>
      </g>
     </g>
    </g>
    <g id="xtick_20">
     <g id="line2d_20">
      <g>
       <use style="fill:#262626;stroke:#262626;" x="184.935284" xlink:href="#m34d2635cc4" y="289.274625"/>
      </g>
     </g>
    </g>
    <g id="xtick_21">
     <g id="line2d_21">
      <g>
       <use style="fill:#262626;stroke:#262626;" x="189.077301" xlink:href="#m34d2635cc4" y="289.274625"/>
      </g>
     </g>
    </g>
    <g id="xtick_22">
     <g id="line2d_22">
      <g>
       <use style="fill:#262626;stroke:#262626;" x="192.730819" xlink:href="#m34d2635cc4" y="289.274625"/>
      </g>
     </g>
    </g>
    <g id="xtick_23">
     <g id="line2d_23">
      <g>
       <use style="fill:#262626;stroke:#262626;" x="217.499768" xlink:href="#m34d2635cc4" y="289.274625"/>
      </g>
     </g>
    </g>
    <g id="xtick_24">
     <g id="line2d_24">
      <g>
       <use style="fill:#262626;stroke:#262626;" x="230.07691" xlink:href="#m34d2635cc4" y="289.274625"/>
      </g>
     </g>
    </g>
    <g id="xtick_25">
     <g id="line2d_25">
      <g>
       <use style="fill:#262626;stroke:#262626;" x="239.000534" xlink:href="#m34d2635cc4" y="289.274625"/>
      </g>
     </g>
    </g>
    <g id="xtick_26">
     <g id="line2d_26">
      <g>
       <use style="fill:#262626;stroke:#262626;" x="245.922235" xlink:href="#m34d2635cc4" y="289.274625"/>
      </g>
     </g>
    </g>
    <g id="xtick_27">
     <g id="line2d_27">
      <g>
       <use style="fill:#262626;stroke:#262626;" x="251.577677" xlink:href="#m34d2635cc4" y="289.274625"/>
      </g>
     </g>
    </g>
    <g id="xtick_28">
     <g id="line2d_28">
      <g>
       <use style="fill:#262626;stroke:#262626;" x="256.359284" xlink:href="#m34d2635cc4" y="289.274625"/>
      </g>
     </g>
    </g>
    <g id="xtick_29">
     <g id="line2d_29">
      <g>
       <use style="fill:#262626;stroke:#262626;" x="260.501301" xlink:href="#m34d2635cc4" y="289.274625"/>
      </g>
     </g>
    </g>
    <g id="xtick_30">
     <g id="line2d_30">
      <g>
       <use style="fill:#262626;stroke:#262626;" x="264.154819" xlink:href="#m34d2635cc4" y="289.274625"/>
      </g>
     </g>
    </g>
    <g id="xtick_31">
     <g id="line2d_31">
      <g>
       <use style="fill:#262626;stroke:#262626;" x="288.923768" xlink:href="#m34d2635cc4" y="289.274625"/>
      </g>
     </g>
    </g>
    <g id="xtick_32">
     <g id="line2d_32">
      <g>
       <use style="fill:#262626;stroke:#262626;" x="301.50091" xlink:href="#m34d2635cc4" y="289.274625"/>
      </g>
     </g>
    </g>
    <g id="xtick_33">
     <g id="line2d_33">
      <g>
       <use style="fill:#262626;stroke:#262626;" x="310.424534" xlink:href="#m34d2635cc4" y="289.274625"/>
      </g>
     </g>
    </g>
    <g id="xtick_34">
     <g id="line2d_34">
      <g>
       <use style="fill:#262626;stroke:#262626;" x="317.346235" xlink:href="#m34d2635cc4" y="289.274625"/>
      </g>
     </g>
    </g>
    <g id="xtick_35">
     <g id="line2d_35">
      <g>
       <use style="fill:#262626;stroke:#262626;" x="323.001677" xlink:href="#m34d2635cc4" y="289.274625"/>
      </g>
     </g>
    </g>
    <g id="xtick_36">
     <g id="line2d_36">
      <g>
       <use style="fill:#262626;stroke:#262626;" x="327.783284" xlink:href="#m34d2635cc4" y="289.274625"/>
      </g>
     </g>
    </g>
    <g id="xtick_37">
     <g id="line2d_37">
      <g>
       <use style="fill:#262626;stroke:#262626;" x="331.925301" xlink:href="#m34d2635cc4" y="289.274625"/>
      </g>
     </g>
    </g>
    <g id="xtick_38">
     <g id="line2d_38">
      <g>
       <use style="fill:#262626;stroke:#262626;" x="335.578819" xlink:href="#m34d2635cc4" y="289.274625"/>
      </g>
     </g>
    </g>
    <g id="xtick_39">
     <g id="line2d_39">
      <g>
       <use style="fill:#262626;stroke:#262626;" x="360.347768" xlink:href="#m34d2635cc4" y="289.274625"/>
      </g>
     </g>
    </g>
    <g id="xtick_40">
     <g id="line2d_40">
      <g>
       <use style="fill:#262626;stroke:#262626;" x="372.92491" xlink:href="#m34d2635cc4" y="289.274625"/>
      </g>
     </g>
    </g>
    <g id="xtick_41">
     <g id="line2d_41">
      <g>
       <use style="fill:#262626;stroke:#262626;" x="381.848534" xlink:href="#m34d2635cc4" y="289.274625"/>
      </g>
     </g>
    </g>
    <g id="xtick_42">
     <g id="line2d_42">
      <g>
       <use style="fill:#262626;stroke:#262626;" x="388.770235" xlink:href="#m34d2635cc4" y="289.274625"/>
      </g>
     </g>
    </g>
    <g id="xtick_43">
     <g id="line2d_43">
      <g>
       <use style="fill:#262626;stroke:#262626;" x="394.425677" xlink:href="#m34d2635cc4" y="289.274625"/>
      </g>
     </g>
    </g>
    <g id="xtick_44">
     <g id="line2d_44">
      <g>
       <use style="fill:#262626;stroke:#262626;" x="399.207284" xlink:href="#m34d2635cc4" y="289.274625"/>
      </g>
     </g>
    </g>
    <g id="xtick_45">
     <g id="line2d_45">
      <g>
       <use style="fill:#262626;stroke:#262626;" x="403.349301" xlink:href="#m34d2635cc4" y="289.274625"/>
      </g>
     </g>
    </g>
    <g id="xtick_46">
     <g id="line2d_46">
      <g>
       <use style="fill:#262626;stroke:#262626;" x="407.002819" xlink:href="#m34d2635cc4" y="289.274625"/>
      </g>
     </g>
    </g>
    <g id="text_7">
     <!-- $\eta$ -->
     <defs>
      <path d="M 47.5 27.625 
C 48 29.625 48.296875 30.828125 48.296875 33.515625 
C 48.296875 39.5 44.796875 44 37.203125 44 
C 28.296875 44 23.59375 37.703125 21.796875 35.203125 
C 21.5 40.890625 17.40625 44 13 44 
C 10.09375 44 7.796875 42.59375 5.90625 38.796875 
C 4.09375 35.203125 2.703125 29.125 2.703125 28.71875 
C 2.703125 28.328125 3.09375 27.828125 3.796875 27.828125 
C 4.59375 27.828125 4.703125 27.921875 5.296875 30.21875 
C 6.796875 36.109375 8.703125 41.984375 12.703125 41.984375 
C 15 41.984375 15.796875 40.40625 15.796875 37.40625 
C 15.796875 35.203125 14.796875 31.3125 14.09375 28.234375 
L 11.296875 17.453125 
C 10.90625 15.5625 9.796875 11.0625 9.296875 9.265625 
C 8.59375 6.671875 7.5 1.984375 7.5 1.484375 
C 7.5 0.09375 8.59375 -1 10.09375 -1 
C 11.296875 -1 12.703125 -0.40625 13.5 1.09375 
C 13.703125 1.59375 14.59375 5.078125 15.09375 7.078125 
L 17.296875 16.0625 
L 20.59375 29.21875 
C 20.796875 29.828125 23.296875 34.8125 27 38 
C 29.59375 40.40625 33 41.984375 36.90625 41.984375 
C 40.90625 41.984375 42.296875 39 42.296875 35.015625 
C 42.296875 32.125 41.90625 30.515625 41.40625 28.625 
L 29.796875 -16.953125 
C 29.703125 -17.4375 29.5 -18.03125 29.5 -18.609375 
C 29.5 -20.109375 30.703125 -21.109375 32.203125 -21.109375 
C 33.09375 -21.109375 35.203125 -20.703125 36 -17.734375 
z
" id="CMMI12-17"/>
     </defs>
     <g style="fill:#262626;" transform="translate(228.245702 324.426706)scale(0.144 -0.144)">
      <use transform="scale(0.996264)" xlink:href="#CMMI12-17"/>
     </g>
    </g>
   </g>
   <g id="matplotlib.axis_2">
    <g id="ytick_1">
     <g id="line2d_47">
      <path clip-path="url(#p537ac8a9d8)" d="M 53.151002 289.274625 
L 410.271002 289.274625 
" style="fill:none;stroke:#cccccc;stroke-linecap:round;"/>
     </g>
     <g id="line2d_48">
      <defs>
       <path d="M 0 0 
L -6 0 
" id="m58e7ee0e66" style="stroke:#262626;stroke-width:1.25;"/>
      </defs>
      <g>
       <use style="fill:#262626;stroke:#262626;stroke-width:1.25;" x="53.151002" xlink:href="#m58e7ee0e66" y="289.274625"/>
      </g>
     </g>
     <g id="text_8">
      <!-- $-1$ -->
      <g style="fill:#262626;" transform="translate(26.984391 293.840822)scale(0.132 -0.132)">
       <use transform="scale(0.996264)" xlink:href="#CMSY10-0"/>
       <use transform="translate(77.487468 0)scale(0.996264)" xlink:href="#CMR17-49"/>
      </g>
     </g>
    </g>
    <g id="ytick_2">
     <g id="line2d_49">
      <path clip-path="url(#p537ac8a9d8)" d="M 53.151002 156.218625 
L 410.271002 156.218625 
" style="fill:none;stroke:#cccccc;stroke-linecap:round;"/>
     </g>
     <g id="line2d_50">
      <g>
       <use style="fill:#262626;stroke:#262626;stroke-width:1.25;" x="53.151002" xlink:href="#m58e7ee0e66" y="156.218625"/>
      </g>
     </g>
     <g id="text_9">
      <!-- $0$ -->
      <g style="fill:#262626;" transform="translate(37.212728 160.784822)scale(0.132 -0.132)">
       <use transform="scale(0.996264)" xlink:href="#CMR17-48"/>
      </g>
     </g>
    </g>
    <g id="ytick_3">
     <g id="line2d_51">
      <path clip-path="url(#p537ac8a9d8)" d="M 53.151002 23.162625 
L 410.271002 23.162625 
" style="fill:none;stroke:#cccccc;stroke-linecap:round;"/>
     </g>
     <g id="line2d_52">
      <g>
       <use style="fill:#262626;stroke:#262626;stroke-width:1.25;" x="53.151002" xlink:href="#m58e7ee0e66" y="23.162625"/>
      </g>
     </g>
     <g id="text_10">
      <!-- $1$ -->
      <g style="fill:#262626;" transform="translate(37.212728 27.728822)scale(0.132 -0.132)">
       <use transform="scale(0.996264)" xlink:href="#CMR17-49"/>
      </g>
     </g>
    </g>
    <g id="text_11">
     <!-- $\phi_i^{\perp}(\eta)$ -->
     <defs>
      <path d="M 43 68.09375 
C 43 69 42.296875 69 42 69 
C 41.09375 69 41 68.796875 40.59375 67.09375 
L 35.203125 45.6875 
C 34.90625 44.390625 34.796875 44.296875 34.703125 44.1875 
C 34.59375 44 33.90625 43.890625 33.703125 43.890625 
C 17.296875 42.5 4.703125 29.109375 4.703125 16.734375 
C 4.703125 6.046875 13 -0.5 23.40625 -1.109375 
C 22.59375 -4.15625 21.90625 -7.296875 21.09375 -10.34375 
C 19.703125 -15.546875 18.90625 -18.8125 18.90625 -19.203125 
C 18.90625 -19.40625 18.90625 -20 19.90625 -20 
C 20.203125 -20 20.59375 -20 20.796875 -19.609375 
C 21 -19.40625 21.59375 -17.015625 22 -15.75 
L 25.703125 -1.109375 
C 42.796875 -0.203125 55.796875 13.671875 55.796875 26.140625 
C 55.796875 36.140625 48.203125 43.296875 37.09375 44 
z
M 36.5 42 
C 43.09375 41.59375 49.703125 37.9375 49.703125 28.21875 
C 49.703125 17.03125 41.796875 2.1875 26.203125 1 
z
M 23.90625 0.890625 
C 19 1.1875 10.796875 3.765625 10.796875 14.65625 
C 10.796875 27.140625 19.90625 41 34.296875 41.890625 
z
" id="CMMI12-30"/>
      <path d="M 40.90625 63.578125 
C 40.90625 65.390625 40.90625 67.1875 38.90625 67.1875 
C 36.90625 67.1875 36.90625 65.09375 36.90625 63.578125 
L 36.90625 4 
L 9.09375 4 
C 7.59375 4 5.5 4 5.5 2 
C 5.5 0 7.59375 0 9.09375 0 
L 68.796875 0 
C 70.5 0 72.296875 0 72.296875 2 
C 72.296875 4 70.5 4 68.796875 4 
L 40.90625 4 
z
" id="CMSY10-63"/>
      <path d="M 28.296875 14.265625 
C 28.296875 14.765625 27.90625 15.15625 27.296875 15.15625 
C 26.40625 15.15625 26.296875 14.859375 25.796875 13.15625 
C 23.203125 4.078125 19.09375 1 15.796875 1 
C 14.59375 1 13.203125 1.296875 13.203125 4.28125 
C 13.203125 6.984375 14.40625 9.96875 15.5 12.96875 
L 22.5 31.515625 
C 22.796875 32.3125 23.5 34.109375 23.5 36.015625 
C 23.5 40.203125 20.5 44 15.59375 44 
C 6.40625 44 2.703125 29.53125 2.703125 28.71875 
C 2.703125 28.328125 3.09375 27.828125 3.796875 27.828125 
C 4.703125 27.828125 4.796875 28.234375 5.203125 29.625 
C 7.59375 38 11.40625 41.984375 15.296875 41.984375 
C 16.203125 41.984375 17.90625 41.890625 17.90625 38.703125 
C 17.90625 36.109375 16.59375 32.8125 15.796875 30.625 
L 8.796875 12.0625 
C 8.203125 10.46875 7.59375 8.875 7.59375 7.078125 
C 7.59375 2.59375 10.703125 -1 15.5 -1 
C 24.703125 -1 28.296875 13.5625 28.296875 14.265625 
z
M 27.5 62.6875 
C 27.5 64.1875 26.296875 66 24.09375 66 
C 21.796875 66 19.203125 63.796875 19.203125 61.1875 
C 19.203125 58.6875 21.296875 57.890625 22.5 57.890625 
C 25.203125 57.890625 27.5 60.484375 27.5 62.6875 
z
" id="CMMI12-105"/>
      <path d="M 30.59375 -24.40625 
C 30.59375 -24.3125 30.59375 -24.109375 30.296875 -23.8125 
C 25.703125 -19.109375 13.40625 -6.296875 13.40625 24.9375 
C 13.40625 56.171875 25.5 68.875 30.40625 73.890625 
C 30.40625 73.984375 30.59375 74.1875 30.59375 74.484375 
C 30.59375 74.796875 30.296875 75 29.90625 75 
C 28.796875 75 20.296875 67.578125 15.40625 56.5625 
C 10.40625 45.453125 9 34.65625 9 25.046875 
C 9 17.828125 9.703125 5.625 15.703125 -7.296875 
C 20.5 -17.703125 28.703125 -25 29.90625 -25 
C 30.40625 -25 30.59375 -24.8125 30.59375 -24.40625 
z
" id="CMR17-40"/>
      <path d="M 26.296875 24.9375 
C 26.296875 32.140625 25.59375 44.359375 19.59375 57.265625 
C 14.796875 67.6875 6.59375 75 5.40625 75 
C 5.09375 75 4.703125 74.890625 4.703125 74.390625 
C 4.703125 74.1875 4.796875 74.09375 4.90625 73.890625 
C 9.703125 68.875 21.90625 56.171875 21.90625 25.046875 
C 21.90625 -6.1875 9.796875 -18.90625 4.90625 -23.90625 
C 4.796875 -24.109375 4.703125 -24.203125 4.703125 -24.40625 
C 4.703125 -24.90625 5.09375 -25 5.40625 -25 
C 6.5 -25 15 -17.609375 19.90625 -6.59375 
C 24.90625 4.515625 26.296875 15.328125 26.296875 24.9375 
z
" id="CMR17-41"/>
     </defs>
     <g style="fill:#262626;" transform="translate(20.194864 173.684363)rotate(-90)scale(0.144 -0.144)">
      <use transform="translate(0 25.505809)scale(0.996264)" xlink:href="#CMMI12-30"/>
      <use transform="translate(57.73418 61.659448)scale(0.697382)" xlink:href="#CMSY10-63"/>
      <use transform="translate(57.73418 0)scale(0.697382)" xlink:href="#CMMI12-105"/>
      <use transform="translate(112.473306 25.505809)scale(0.996264)" xlink:href="#CMR17-40"/>
      <use transform="translate(147.754073 25.505809)scale(0.996264)" xlink:href="#CMMI12-17"/>
      <use transform="translate(199.457889 25.505809)scale(0.996264)" xlink:href="#CMR17-41"/>
     </g>
    </g>
   </g>
   <g id="line2d_53">
    <path clip-path="url(#p537ac8a9d8)" d="M 53.151002 155.797865 
L 93.188479 155.416366 
L 123.216587 154.916883 
L 147.167578 154.30352 
L 167.186317 153.574191 
L 184.345236 152.731617 
L 199.35929 151.776835 
L 212.585957 150.72131 
L 224.740191 149.531558 
L 235.821993 148.223721 
L 245.831362 146.823916 
L 255.125776 145.305519 
L 263.705236 143.68697 
L 271.927218 141.911051 
L 279.434245 140.070632 
L 286.583794 138.098191 
L 293.375866 136.001651 
L 299.810461 133.792141 
L 305.887578 131.484091 
L 311.964695 128.938505 
L 317.684335 126.30381 
L 323.403975 123.414659 
L 328.766137 120.453159 
L 333.770821 117.448346 
L 338.775506 114.191086 
L 343.780191 110.660169 
L 348.427398 107.116359 
L 353.074605 103.296891 
L 357.721812 99.180322 
L 362.011542 95.096756 
L 366.301272 90.720834 
L 370.591002 86.031624 
L 374.880731 81.006698 
L 379.170461 75.62202 
L 383.460191 69.851835 
L 387.392443 64.200304 
L 391.324695 58.178957 
L 395.256948 51.763595 
L 399.1892 44.928434 
L 403.121452 37.646006 
L 407.053704 29.887041 
L 410.271002 23.162625 
L 410.271002 23.162625 
" style="fill:none;stroke:#4c72b0;stroke-linecap:round;stroke-width:1.5;"/>
   </g>
   <g id="line2d_54">
    <path clip-path="url(#p537ac8a9d8)" d="M 53.151002 146.577055 
L 69.237488 144.978825 
L 84.60902 143.231368 
L 99.265596 141.344247 
L 113.564695 139.277368 
L 127.148839 137.092984 
L 140.732984 134.682353 
L 153.95965 132.111157 
L 167.186317 129.317899 
L 180.770461 126.225041 
L 195.427038 122.655365 
L 212.228479 118.325358 
L 255.125776 107.139787 
L 264.777668 104.932729 
L 272.99965 103.277098 
L 280.1492 102.065161 
L 286.583794 101.204814 
L 292.303434 100.663479 
L 297.665596 100.38243 
L 302.670281 100.349814 
L 307.317488 100.546808 
L 311.607218 100.948028 
L 315.53947 101.522224 
L 319.471722 102.314879 
L 323.403975 103.348098 
L 326.978749 104.516204 
L 330.553524 105.922155 
L 334.128299 107.586658 
L 337.345596 109.324087 
L 340.562894 111.306177 
L 343.780191 113.551305 
L 346.997488 116.079012 
L 350.214785 118.910078 
L 353.432083 122.066587 
L 356.64938 125.572011 
L 359.5092 129.000983 
L 362.36902 132.743859 
L 365.228839 136.820198 
L 368.088659 141.250626 
L 370.948479 146.056898 
L 373.808299 151.261952 
L 376.668119 156.889969 
L 379.527939 162.96644 
L 382.387758 169.518232 
L 385.247578 176.573657 
L 388.107398 184.162544 
L 391.324695 193.376895 
L 394.541993 203.353528 
L 397.75929 214.14258 
L 400.976587 225.797194 
L 404.193884 238.373687 
L 407.411182 251.931739 
L 410.271002 264.858394 
L 410.271002 264.858394 
" style="fill:none;stroke:#dd8452;stroke-linecap:round;stroke-width:1.5;"/>
   </g>
   <g id="line2d_55">
    <path clip-path="url(#p537ac8a9d8)" d="M 53.151002 120.241683 
L 71.024875 118.208549 
L 85.681452 116.763126 
L 98.193164 115.745855 
L 109.632443 115.036872 
L 119.99929 114.614814 
L 129.651182 114.442825 
L 138.588119 114.501195 
L 147.167578 114.77891 
L 155.38956 115.271393 
L 163.254065 115.970169 
L 170.761092 116.863015 
L 177.910641 117.934206 
L 185.060191 119.235629 
L 191.852263 120.698092 
L 198.644335 122.392599 
L 205.07893 124.221661 
L 211.513524 126.276703 
L 217.948119 128.56462 
L 224.382713 131.09074 
L 230.817308 133.858428 
L 237.251903 136.868633 
L 243.686497 140.119363 
L 250.478569 143.805447 
L 257.270641 147.741641 
L 264.420191 152.135333 
L 272.284695 157.229238 
L 281.57911 163.526202 
L 311.24974 183.873865 
L 316.96938 187.393251 
L 321.974065 190.214628 
L 326.263794 192.385685 
L 330.196047 194.130539 
L 333.770821 195.476362 
L 336.988119 196.461956 
L 340.205416 197.20502 
L 343.065236 197.637706 
L 345.925056 197.832429 
L 348.427398 197.788608 
L 350.92974 197.526809 
L 353.432083 197.028741 
L 355.934425 196.275033 
L 358.07929 195.410021 
L 360.224155 194.328549 
L 362.36902 193.016343 
L 364.513884 191.458435 
L 366.658749 189.639128 
L 368.803614 187.541967 
L 370.948479 185.149706 
L 373.093344 182.444274 
L 375.238209 179.406743 
L 377.383074 176.017287 
L 379.527939 172.255149 
L 381.672803 168.098601 
L 384.175146 162.720404 
L 386.677488 156.736438 
L 389.17983 150.10672 
L 391.682173 142.789115 
L 394.184515 134.739238 
L 396.686857 125.91034 
L 399.1892 116.253198 
L 401.691542 105.715993 
L 404.193884 94.244186 
L 406.696227 81.780391 
L 409.198569 68.264236 
L 410.271002 62.133825 
L 410.271002 62.133825 
" style="fill:none;stroke:#55a868;stroke-linecap:round;stroke-width:1.5;"/>
   </g>
   <g id="line2d_56">
    <path clip-path="url(#p537ac8a9d8)" d="M 53.151002 139.137536 
L 63.875326 142.002106 
L 74.957128 145.189223 
L 86.753884 148.814418 
L 99.623074 153.005503 
L 114.994605 158.257398 
L 160.394245 173.9484 
L 170.403614 177.073632 
L 178.983074 179.532824 
L 186.847578 181.559429 
L 193.997128 183.173566 
L 200.431722 184.409897 
L 206.508839 185.364075 
L 212.228479 186.051451 
L 217.948119 186.514517 
L 223.310281 186.727476 
L 228.672443 186.710074 
L 233.677128 186.472251 
L 238.681812 186.008031 
L 243.32902 185.364221 
L 247.976227 184.506842 
L 252.623434 183.428295 
L 257.270641 182.122061 
L 261.917848 180.582926 
L 266.565056 178.807249 
L 271.212263 176.793245 
L 275.85947 174.541318 
L 280.506677 172.054423 
L 285.511362 169.120304 
L 290.516047 165.932408 
L 295.878209 162.254787 
L 301.597848 158.06544 
L 308.389921 152.797856 
L 317.684335 145.263753 
L 329.481092 135.724441 
L 334.843254 131.664019 
L 339.132984 128.664916 
L 343.065236 126.185608 
L 346.282533 124.400196 
L 349.142353 123.034351 
L 352.002173 121.911226 
L 354.504515 121.155847 
L 357.006857 120.639828 
L 359.151722 120.409076 
L 361.296587 120.393242 
L 363.441452 120.612076 
L 365.586317 121.086476 
L 367.373704 121.692942 
L 369.161092 122.50567 
L 370.948479 123.538749 
L 372.735866 124.806925 
L 374.523254 126.325629 
L 376.310641 128.110997 
L 378.098029 130.179903 
L 379.885416 132.549985 
L 381.672803 135.239674 
L 383.817668 138.916355 
L 385.962533 143.115948 
L 388.107398 147.875214 
L 390.252263 153.23285 
L 392.397128 159.229582 
L 394.541993 165.908255 
L 396.686857 173.313924 
L 398.831722 181.49396 
L 400.976587 190.498148 
L 403.121452 200.378799 
L 405.266317 211.190857 
L 407.768659 225.059252 
L 410.271002 240.370628 
L 410.271002 240.370628 
" style="fill:none;stroke:#c44e52;stroke-linecap:round;stroke-width:1.5;"/>
   </g>
   <g id="line2d_57">
    <path clip-path="url(#p537ac8a9d8)" d="M 53.151002 181.255235 
L 61.372984 181.147538 
L 69.237488 180.823609 
L 77.101993 180.274185 
L 84.60902 179.532173 
L 92.116047 178.572283 
L 99.623074 177.391015 
L 107.130101 175.986919 
L 114.637128 174.360898 
L 122.501632 172.423342 
L 130.366137 170.253796 
L 138.588119 167.750306 
L 147.167578 164.901415 
L 156.461993 161.5747 
L 166.828839 157.624298 
L 180.770461 152.052825 
L 202.934065 143.185056 
L 212.228479 139.730015 
L 219.735506 137.17048 
L 226.170101 135.196727 
L 232.247218 133.562275 
L 237.60938 132.337514 
L 242.971542 131.345478 
L 247.976227 130.654144 
L 252.623434 130.235159 
L 257.270641 130.049035 
L 261.560371 130.098702 
L 265.850101 130.374129 
L 270.13983 130.887216 
L 274.072083 131.575545 
L 278.004335 132.479897 
L 281.936587 133.606316 
L 285.868839 134.959403 
L 289.801092 136.542052 
L 293.733344 138.355167 
L 297.665596 140.397344 
L 301.955326 142.881562 
L 306.245056 145.624052 
L 310.892263 148.869683 
L 315.896948 152.654995 
L 321.25911 156.994823 
L 328.051182 162.800059 
L 343.780191 176.384099 
L 348.069921 179.738679 
L 351.644695 182.273124 
L 354.861993 184.284126 
L 357.721812 185.804773 
L 360.224155 186.889768 
L 362.36902 187.609394 
L 364.513884 188.109674 
L 366.658749 188.365086 
L 368.446137 188.371285 
L 370.233524 188.171853 
L 372.020912 187.749177 
L 373.808299 187.084702 
L 375.595686 186.158892 
L 377.383074 184.951183 
L 379.170461 183.439946 
L 380.957848 181.602436 
L 382.745236 179.414751 
L 384.532623 176.851778 
L 386.320011 173.887149 
L 388.107398 170.493184 
L 389.894785 166.640841 
L 391.682173 162.299656 
L 393.46956 157.437691 
L 395.256948 152.021467 
L 397.401812 144.740872 
L 399.546677 136.547759 
L 401.691542 127.374723 
L 403.836407 117.150568 
L 405.981272 105.800126 
L 408.126137 93.244069 
L 410.271002 79.398707 
L 410.271002 79.398707 
" style="fill:none;stroke:#8172b3;stroke-linecap:round;stroke-width:1.5;"/>
   </g>
   <g id="line2d_58">
    <path clip-path="url(#p537ac8a9d8)" d="M 53.151002 140.899413 
L 63.160371 139.055777 
L 72.097308 137.632277 
L 80.31929 136.538879 
L 88.183794 135.711938 
L 95.690821 135.143092 
L 102.840371 134.818716 
L 109.989921 134.721445 
L 116.781993 134.851542 
L 123.574065 135.208538 
L 130.008659 135.763434 
L 136.443254 136.534457 
L 142.877848 137.524821 
L 149.312443 138.735507 
L 155.747038 140.164973 
L 162.53911 141.906345 
L 169.331182 143.877696 
L 176.480731 146.186724 
L 183.987758 148.846736 
L 192.20974 151.999788 
L 201.861632 155.950826 
L 216.875686 162.381632 
L 230.102353 167.964928 
L 238.324335 171.194401 
L 244.75893 173.497665 
L 250.478569 175.324118 
L 255.840731 176.804799 
L 260.845416 177.949334 
L 265.492623 178.77817 
L 269.782353 179.320647 
L 274.072083 179.629205 
L 278.004335 179.690338 
L 281.936587 179.5251 
L 285.868839 179.120625 
L 289.443614 178.53554 
L 293.018389 177.735583 
L 296.593164 176.714518 
L 300.167939 175.467691 
L 303.742713 173.992303 
L 307.317488 172.287722 
L 311.24974 170.150284 
L 315.181993 167.744399 
L 319.114245 165.081497 
L 323.403975 161.903595 
L 328.051182 158.174864 
L 333.413344 153.572031 
L 340.920371 146.796901 
L 349.857308 138.783409 
L 354.147038 135.230152 
L 357.721812 132.554597 
L 360.581632 130.671584 
L 363.083975 129.260054 
L 365.586317 128.112902 
L 367.731182 127.374795 
L 369.876047 126.895979 
L 371.663434 126.719259 
L 373.450821 126.766738 
L 375.238209 127.060458 
L 377.025596 127.623763 
L 378.455506 128.285064 
L 379.885416 129.14799 
L 381.315326 130.226452 
L 382.745236 131.534987 
L 384.532623 133.517398 
L 386.320011 135.914226 
L 388.107398 138.758337 
L 389.894785 142.084388 
L 391.682173 145.928908 
L 393.46956 150.330379 
L 395.256948 155.329325 
L 397.044335 160.968394 
L 398.831722 167.292457 
L 400.61911 174.348698 
L 402.406497 182.186717 
L 404.551362 192.69785 
L 406.696227 204.504995 
L 408.841092 217.708939 
L 410.271002 227.340049 
L 410.271002 227.340049 
" style="fill:none;stroke:#937860;stroke-linecap:round;stroke-width:1.5;"/>
   </g>
   <g id="line2d_59">
    <path clip-path="url(#p537ac8a9d8)" d="M 53.151002 159.847111 
L 73.884695 165.2064 
L 85.681452 168.031085 
L 95.690821 170.20011 
L 104.270281 171.838151 
L 112.134785 173.121295 
L 119.641812 174.120025 
L 126.791362 174.840067 
L 133.583434 175.294164 
L 140.018029 175.501025 
L 146.095146 175.484169 
L 152.172263 175.250849 
L 158.24938 174.792781 
L 164.326497 174.103785 
L 170.403614 173.180127 
L 176.480731 172.020855 
L 182.557848 170.628159 
L 188.634966 169.00773 
L 195.06956 167.054447 
L 201.861632 164.745667 
L 209.011182 162.070054 
L 216.875686 158.883667 
L 226.527578 154.722747 
L 250.836047 144.117365 
L 257.628119 141.465268 
L 263.347758 139.461103 
L 268.352443 137.928267 
L 272.99965 136.726461 
L 277.28938 135.835513 
L 281.57911 135.180625 
L 285.511362 134.809205 
L 289.443614 134.676035 
L 293.018389 134.776652 
L 296.593164 135.101158 
L 300.167939 135.660659 
L 303.742713 136.464729 
L 307.317488 137.521068 
L 310.892263 138.83512 
L 314.467038 140.409639 
L 318.041812 142.244226 
L 321.616587 144.334791 
L 325.191362 146.672982 
L 329.123614 149.515009 
L 333.413344 152.908418 
L 338.060551 156.876898 
L 344.137668 162.392204 
L 355.934425 173.200033 
L 359.866677 176.457176 
L 363.083975 178.833975 
L 365.586317 180.440447 
L 368.088659 181.782252 
L 370.233524 182.681386 
L 372.020912 183.225871 
L 373.808299 183.559948 
L 375.595686 183.659315 
L 377.383074 183.49808 
L 378.812984 183.162998 
L 380.242894 182.628615 
L 381.672803 181.879276 
L 383.102713 180.898551 
L 384.532623 179.669208 
L 385.962533 178.173182 
L 387.392443 176.391544 
L 388.822353 174.304465 
L 390.252263 171.891186 
L 392.03965 168.382675 
L 393.827038 164.285809 
L 395.614425 159.55338 
L 397.401812 154.135499 
L 399.1892 147.979472 
L 400.976587 141.029677 
L 402.763975 133.227422 
L 404.551362 124.510814 
L 406.338749 114.814611 
L 408.483614 101.789059 
L 410.271002 89.690625 
L 410.271002 89.690625 
" style="fill:none;stroke:#da8bc3;stroke-linecap:round;stroke-width:1.5;"/>
   </g>
   <g id="line2d_60">
    <path clip-path="url(#p537ac8a9d8)" d="M 53.151002 161.406804 
L 65.305236 158.326329 
L 82.106677 153.813615 
L 104.270281 147.884188 
L 114.994605 145.245731 
L 123.931542 143.264376 
L 131.796047 141.737236 
L 138.945596 140.562322 
L 145.737668 139.663952 
L 152.172263 139.032428 
L 158.24938 138.651054 
L 164.326497 138.494752 
L 170.046137 138.565778 
L 175.765776 138.858352 
L 181.485416 139.380133 
L 187.205056 140.136287 
L 192.924695 141.129124 
L 198.644335 142.357714 
L 204.363975 143.817506 
L 210.083614 145.499941 
L 216.160731 147.516926 
L 222.595326 149.886644 
L 229.744875 152.761804 
L 238.324335 156.467508 
L 266.207578 168.742174 
L 271.927218 170.906885 
L 276.931903 172.582176 
L 281.57911 173.910745 
L 285.868839 174.908156 
L 289.801092 175.602166 
L 293.733344 176.061286 
L 297.308119 176.255719 
L 300.882894 176.221074 
L 304.100191 175.981591 
L 307.317488 175.534477 
L 310.534785 174.871099 
L 313.752083 173.98435 
L 316.96938 172.868965 
L 320.186677 171.52185 
L 323.403975 169.942464 
L 326.621272 168.133222 
L 330.196047 165.860589 
L 333.770821 163.325181 
L 337.703074 160.257546 
L 341.992803 156.622704 
L 347.354966 151.760323 
L 361.296587 138.925198 
L 364.513884 136.333569 
L 367.373704 134.300659 
L 369.876047 132.795681 
L 372.020912 131.756146 
L 373.808299 131.097676 
L 375.595686 130.65547 
L 377.383074 130.45709 
L 378.812984 130.493697 
L 380.242894 130.721231 
L 381.672803 131.156598 
L 383.102713 131.817609 
L 384.532623 132.723018 
L 385.962533 133.892558 
L 387.392443 135.346981 
L 388.822353 137.108102 
L 390.252263 139.198837 
L 391.682173 141.643249 
L 393.112083 144.466594 
L 394.89947 148.569136 
L 396.686857 153.359844 
L 398.474245 158.896606 
L 400.261632 165.240767 
L 402.04902 172.457292 
L 403.836407 180.614948 
L 405.623794 189.786474 
L 407.411182 200.048777 
L 409.198569 211.483125 
L 410.271002 218.941825 
L 410.271002 218.941825 
" style="fill:none;stroke:#8c8c8c;stroke-linecap:round;stroke-width:1.5;"/>
   </g>
   <g id="line2d_61">
    <path clip-path="url(#p537ac8a9d8)" d="M 53.151002 145.710222 
L 61.730461 147.363897 
L 71.024875 149.387396 
L 81.034245 151.798595 
L 92.831002 154.878138 
L 112.134785 160.194395 
L 127.506317 164.333621 
L 137.515686 166.804713 
L 145.737668 168.615785 
L 153.244695 170.043494 
L 160.036767 171.11118 
L 166.471362 171.896425 
L 172.548479 172.412391 
L 178.268119 172.679584 
L 183.987758 172.719869 
L 189.349921 172.540307 
L 194.712083 172.141887 
L 200.074245 171.518652 
L 205.436407 170.667365 
L 210.798569 169.587878 
L 216.160731 168.283505 
L 221.880371 166.65243 
L 227.600011 164.787629 
L 233.677128 162.572519 
L 240.4692 159.850503 
L 248.333704 156.447531 
L 261.917848 150.266624 
L 271.56974 145.996794 
L 278.004335 143.393332 
L 283.366497 141.465701 
L 288.013704 140.028977 
L 292.303434 138.936799 
L 296.235686 138.164515 
L 299.810461 137.676115 
L 303.385236 137.411797 
L 306.602533 137.381193 
L 309.81983 137.560351 
L 313.037128 137.960983 
L 316.254425 138.593311 
L 319.471722 139.465714 
L 322.68902 140.58434 
L 325.906317 141.952663 
L 329.123614 143.571003 
L 332.340912 145.435989 
L 335.915686 147.787991 
L 339.490461 150.417197 
L 343.422713 153.59759 
L 347.712443 157.354224 
L 353.432083 162.676083 
L 362.36902 171.018519 
L 365.943794 174.055041 
L 368.803614 176.221104 
L 371.305957 177.851917 
L 373.450821 179.002063 
L 375.238209 179.751664 
L 377.025596 180.281276 
L 378.812984 180.560401 
L 380.242894 180.581404 
L 381.672803 180.40328 
L 383.102713 180.007119 
L 384.532623 179.372937 
L 385.962533 178.479633 
L 387.392443 177.30494 
L 388.822353 175.825378 
L 390.252263 174.016197 
L 391.682173 171.851329 
L 393.112083 169.303335 
L 394.541993 166.34334 
L 395.971903 162.940983 
L 397.75929 158.017195 
L 399.546677 152.286341 
L 401.334065 145.678387 
L 403.121452 138.118953 
L 404.908839 129.529092 
L 406.696227 119.825066 
L 408.483614 108.918107 
L 410.271002 96.714173 
L 410.271002 96.714173 
" style="fill:none;stroke:#ccb974;stroke-linecap:round;stroke-width:1.5;"/>
   </g>
   <g id="patch_3">
    <path d="M 53.151002 289.274625 
L 53.151002 23.162625 
" style="fill:none;stroke:#262626;stroke-linecap:square;stroke-linejoin:miter;stroke-width:1.25;"/>
   </g>
   <g id="patch_4">
    <path d="M 410.271002 289.274625 
L 410.271002 23.162625 
" style="fill:none;stroke:#262626;stroke-linecap:square;stroke-linejoin:miter;stroke-width:1.25;"/>
   </g>
   <g id="patch_5">
    <path d="M 53.151002 289.274625 
L 410.271002 289.274625 
" style="fill:none;stroke:#262626;stroke-linecap:square;stroke-linejoin:miter;stroke-width:1.25;"/>
   </g>
   <g id="patch_6">
    <path d="M 53.151002 23.162625 
L 410.271002 23.162625 
" style="fill:none;stroke:#262626;stroke-linecap:square;stroke-linejoin:miter;stroke-width:1.25;"/>
   </g>
   <g id="text_12">
    <!-- Orthogonal functions -->
    <defs>
     <path d="M 67.296875 33.84375 
C 67.296875 54.5 52.59375 70 36 70 
C 19 70 4.59375 54.296875 4.59375 33.84375 
C 4.59375 13.390625 19.203125 -2 35.90625 -2 
C 53 -2 67.296875 13.6875 67.296875 33.84375 
z
M 36 -0.203125 
C 24.59375 -0.203125 12.203125 11.28125 12.203125 35.15625 
C 12.203125 58.921875 25.796875 68.1875 35.90625 68.1875 
C 46.5 68.1875 59.703125 58.625 59.703125 35.15625 
C 59.703125 10.875 47 -0.203125 36 -0.203125 
z
" id="CMR17-79"/>
     <path d="M 15 23.703125 
C 15 33.34375 19.09375 42.390625 26.59375 42.390625 
C 27.296875 42.390625 28 42.296875 28.703125 41.984375 
C 28.703125 41.984375 26.5 41.28125 26.5 38.671875 
C 26.5 36.265625 28.40625 35.265625 29.90625 35.265625 
C 31.09375 35.265625 33.296875 35.96875 33.296875 38.78125 
C 33.296875 41.984375 30.09375 44 26.703125 44 
C 19.09375 44 15.796875 36.5625 14.796875 33.046875 
L 14.703125 33.046875 
L 14.703125 44 
L 3.09375 42.890625 
L 3.09375 40.28125 
C 9 40.28125 9.90625 39.6875 9.90625 34.859375 
L 9.90625 6.921875 
C 9.90625 3.09375 9.5 2.59375 3.09375 2.59375 
L 3.09375 0 
C 5.5 0.1875 10.09375 0.1875 12.703125 0.1875 
C 15.59375 0.1875 20.703125 0.1875 23.40625 0 
L 23.40625 2.59375 
C 16.203125 2.59375 15 2.59375 15 7.109375 
z
" id="CMR17-114"/>
     <path d="M 15.09375 40.390625 
L 29.09375 40.390625 
L 29.09375 43 
L 15.09375 43 
L 15.09375 62 
L 13.296875 62 
C 13.09375 51.4375 9.59375 42.1875 1.09375 41.984375 
L 1.09375 40.390625 
L 9.796875 40.390625 
L 9.796875 12.15625 
C 9.796875 10.234375 9.796875 -1 21.40625 -1 
C 27.296875 -1 30.703125 4.8125 30.703125 12.25 
L 30.703125 17.984375 
L 28.90625 17.984375 
L 28.90625 12.34375 
C 28.90625 5.421875 26.203125 0.796875 22 0.796875 
C 19.09375 0.796875 15.09375 2.796875 15.09375 11.953125 
z
" id="CMR17-116"/>
     <path d="M 41.5 30.53125 
C 41.5 35.65625 40.5 44 28.703125 44 
C 20.5 44 16.5 37.375 15.296875 34.046875 
L 15.203125 34.046875 
L 15.203125 69 
L 3.296875 67.890625 
L 3.296875 65.296875 
C 9.203125 65.296875 10.09375 64.703125 10.09375 60.046875 
L 10.09375 6.921875 
C 10.09375 3.09375 9.703125 2.59375 3.296875 2.59375 
L 3.296875 0 
C 5.703125 0.1875 10.09375 0.1875 12.703125 0.1875 
C 15.296875 0.1875 19.796875 0.1875 22.203125 0 
L 22.203125 2.59375 
C 15.796875 2.59375 15.40625 3 15.40625 6.921875 
L 15.40625 26.21875 
C 15.40625 35.453125 21 42.390625 28 42.390625 
C 35.40625 42.390625 36.203125 35.765625 36.203125 30.9375 
L 36.203125 6.921875 
C 36.203125 3.09375 35.796875 2.59375 29.40625 2.59375 
L 29.40625 0 
C 31.796875 0.1875 36.203125 0.1875 38.796875 0.1875 
C 41.40625 0.1875 45.90625 0.1875 48.296875 0 
L 48.296875 2.59375 
C 41.90625 2.59375 41.5 3 41.5 6.921875 
z
" id="CMR17-104"/>
     <path d="M 43.09375 21.1875 
C 43.09375 34 33.796875 44 22.90625 44 
C 12 44 2.703125 34 2.703125 21.1875 
C 2.703125 8.59375 12 -1 22.90625 -1 
C 33.796875 -1 43.09375 8.59375 43.09375 21.1875 
z
M 22.90625 0.796875 
C 18.203125 0.796875 14.203125 3.59375 11.90625 7.5 
C 9.40625 12 9.09375 17.59375 9.09375 22 
C 9.09375 26.1875 9.296875 31.390625 11.90625 35.890625 
C 13.90625 39.1875 17.796875 42.390625 22.90625 42.390625 
C 27.40625 42.390625 31.203125 39.890625 33.59375 36.390625 
C 36.703125 31.6875 36.703125 25.09375 36.703125 22 
C 36.703125 18.09375 36.5 12.09375 33.796875 7.296875 
C 31 2.6875 26.703125 0.796875 22.90625 0.796875 
z
" id="CMR17-111"/>
     <path d="M 11.09375 18.203125 
C 13 16.6875 16.296875 15 20.296875 15 
C 28.203125 15 35 21.234375 35 29.609375 
C 35 32.234375 34.203125 36.265625 31.203125 39.390625 
C 34 42.390625 38.09375 43.390625 40.40625 43.390625 
C 40.796875 43.390625 41.40625 43.390625 41.90625 43.09375 
C 41.5 42.984375 40.59375 42.59375 40.59375 40.984375 
C 40.59375 39.6875 41.5 38.796875 42.796875 38.796875 
C 44.296875 38.796875 45.09375 39.796875 45.09375 41.09375 
C 45.09375 42.984375 43.59375 45 40.40625 45 
C 36.40625 45 32.90625 43.09375 30.09375 40.484375 
C 27.09375 43.1875 23.5 44.1875 20.296875 44.1875 
C 12.40625 44.1875 5.59375 37.984375 5.59375 29.609375 
C 5.59375 23.859375 8.90625 20.21875 9.90625 19.21875 
C 6.90625 15.6875 6.90625 11.59375 6.90625 11.09375 
C 6.90625 8.5 7.90625 4.6875 11.296875 2.59375 
C 6.09375 1.28125 2 -2.875 2 -8.078125 
C 2 -15.5625 11.5 -21 22.90625 -21 
C 33.90625 -21 43.796875 -15.765625 43.796875 -7.96875 
C 43.796875 6 29 6 21.296875 6 
C 19 6 14.90625 6 14.40625 6.09375 
C 11.296875 6.59375 9.203125 9.390625 9.203125 12.890625 
C 9.203125 13.796875 9.203125 16 11.09375 18.203125 
z
M 20.296875 16.6875 
C 11.5 16.6875 11.5 27.59375 11.5 29.609375 
C 11.5 31.625 11.5 42.484375 20.296875 42.484375 
C 29.09375 42.484375 29.09375 31.625 29.09375 29.609375 
C 29.09375 27.59375 29.09375 16.6875 20.296875 16.6875 
z
M 22.90625 -19.3125 
C 12.90625 -19.3125 6 -13.796875 6 -8.078125 
C 6 -4.859375 7.703125 -1.84375 9.90625 -0.171875 
C 12.40625 1.59375 13.40625 1.59375 20.203125 1.59375 
C 28.40625 1.59375 39.796875 1.59375 39.796875 -8.078125 
C 39.796875 -13.796875 32.90625 -19.3125 22.90625 -19.3125 
z
" id="CMR17-103"/>
     <path d="M 41.5 30.53125 
C 41.5 35.65625 40.5 44 28.703125 44 
C 20.796875 44 16.703125 37.875 15.203125 33.84375 
L 15.09375 33.84375 
L 15.09375 44 
L 3.296875 42.890625 
L 3.296875 40.28125 
C 9.203125 40.28125 10.09375 39.6875 10.09375 34.859375 
L 10.09375 6.921875 
C 10.09375 3.09375 9.703125 2.59375 3.296875 2.59375 
L 3.296875 0 
C 5.703125 0.1875 10.09375 0.1875 12.703125 0.1875 
C 15.296875 0.1875 19.796875 0.1875 22.203125 0 
L 22.203125 2.59375 
C 15.796875 2.59375 15.40625 3 15.40625 6.921875 
L 15.40625 26.21875 
C 15.40625 35.453125 21 42.390625 28 42.390625 
C 35.40625 42.390625 36.203125 35.765625 36.203125 30.9375 
L 36.203125 6.921875 
C 36.203125 3.09375 35.796875 2.59375 29.40625 2.59375 
L 29.40625 0 
C 31.796875 0.1875 36.203125 0.1875 38.796875 0.1875 
C 41.40625 0.1875 45.90625 0.1875 48.296875 0 
L 48.296875 2.59375 
C 41.90625 2.59375 41.5 3 41.5 6.921875 
z
" id="CMR17-110"/>
     <path d="M 36 25.875 
C 36 32 36 35.546875 31.796875 39.59375 
C 28.09375 42.984375 23.796875 44 20.40625 44 
C 12.5 44 6.796875 37.625 6.796875 30.890625 
C 6.796875 27.1875 9.796875 27 10.40625 27 
C 11.703125 27 14 27.796875 14 30.59375 
C 14 33.09375 12.09375 34.1875 10.40625 34.1875 
C 10 34.1875 9.5 34.09375 9.203125 34 
C 11.296875 40.53125 16.703125 42.390625 20.203125 42.390625 
C 25.203125 42.390625 30.703125 37.828125 30.703125 29.296875 
L 30.703125 25.5 
C 24.796875 25.296875 17.703125 24.5 12.09375 21.453125 
C 5.796875 17.921875 4 12.84375 4 9 
C 4 1.203125 13 -1 18.296875 -1 
C 23.796875 -1 28.90625 2.109375 31.09375 7.890625 
C 31.296875 3.421875 34.09375 -0.609375 38.5 -0.609375 
C 40.59375 -0.609375 45.90625 0.796875 45.90625 8.796875 
L 45.90625 14.46875 
L 44.09375 14.46875 
L 44.09375 8.703125 
C 44.09375 2.515625 41.40625 1.703125 40.09375 1.703125 
C 36 1.703125 36 6.96875 36 11.4375 
z
M 30.703125 13.859375 
C 30.703125 5.046875 24.5 0.59375 19 0.59375 
C 14 0.59375 10.09375 4.34375 10.09375 9 
C 10.09375 12.046875 11.40625 17.40625 17.203125 20.65625 
C 22 23.390625 27.5 23.796875 30.703125 24 
z
" id="CMR17-97"/>
     <path d="M 15.296875 69 
L 3.40625 67.890625 
L 3.40625 65.296875 
C 9.296875 65.296875 10.203125 64.703125 10.203125 59.921875 
L 10.203125 6.859375 
C 10.203125 3.09375 9.796875 2.59375 3.40625 2.59375 
L 3.40625 0 
C 5.796875 0.1875 10.203125 0.1875 12.703125 0.1875 
C 15.296875 0.1875 19.703125 0.1875 22.09375 0 
L 22.09375 2.59375 
C 15.703125 2.59375 15.296875 2.984375 15.296875 6.859375 
z
" id="CMR17-108"/>
     <path d="M 15.296875 40.390625 
L 26.703125 40.390625 
L 26.703125 43 
L 15.09375 43 
L 15.09375 55.296875 
C 15.09375 63.6875 19.296875 68.390625 23.59375 68.390625 
C 24.90625 68.390625 26.40625 68.171875 27.40625 67.796875 
C 26.59375 67.59375 24.5 66.890625 24.5 64.390625 
C 24.5 61.796875 26.5 61 27.90625 61 
C 29.296875 61 31.296875 61.796875 31.296875 64.390625 
C 31.296875 68.015625 27.703125 70 23.703125 70 
C 18 70 10.203125 65.796875 10.203125 55.09375 
L 10.203125 43 
L 2.203125 43 
L 2.203125 40.390625 
L 10.203125 40.390625 
L 10.203125 6.890625 
C 10.203125 3.09375 9.796875 2.59375 3.40625 2.59375 
L 3.40625 0 
C 5.796875 0.1875 10.40625 0.1875 13 0.1875 
C 15.90625 0.1875 21 0.1875 23.703125 0 
L 23.703125 2.59375 
C 16.5 2.59375 15.296875 2.59375 15.296875 7.09375 
z
" id="CMR17-102"/>
     <path d="M 29.40625 42.890625 
L 29.40625 40.296875 
C 35.296875 40.296875 36.203125 39.6875 36.203125 34.828125 
L 36.203125 16.453125 
C 36.203125 7.96875 31.703125 0.59375 24.296875 0.59375 
C 16.09375 0.59375 15.40625 5.546875 15.40625 10.796875 
L 15.40625 44 
L 3.296875 42.890625 
L 3.296875 40.296875 
C 7.296875 40.296875 10 40.296875 10.09375 36.25 
L 10.09375 16.859375 
C 10.09375 10.09375 10.09375 5.75 12.703125 2.921875 
C 14 1.609375 16.5 -1 23.703125 -1 
C 32.203125 -1 35.5 6.25 36.296875 8.375 
L 36.40625 8.375 
L 36.40625 -1 
L 48.296875 -0.203125 
L 48.296875 2.40625 
C 42.40625 2.40625 41.5 3.015625 41.5 7.859375 
L 41.5 44 
z
" id="CMR17-117"/>
     <path d="M 34.90625 35 
C 33 35 30.203125 35 30.203125 31.484375 
C 30.203125 28.6875 32.5 27.890625 33.796875 27.890625 
C 34.5 27.890625 37.40625 28.1875 37.40625 31.6875 
C 37.40625 38.6875 30.59375 44 22.90625 44 
C 12.296875 44 3.296875 34.390625 3.296875 21.546875 
C 3.296875 8.140625 12.703125 -1 22.90625 -1 
C 35.296875 -1 38.40625 10.5625 38.40625 11.671875 
C 38.40625 12.078125 38.296875 12.375 37.59375 12.375 
C 36.90625 12.375 36.796875 12.28125 36.40625 10.96875 
C 33.796875 2.8125 28.09375 0.796875 23.796875 0.796875 
C 17.40625 0.796875 9.703125 6.734375 9.703125 21.640625 
C 9.703125 36.84375 17.09375 42.1875 23 42.1875 
C 26.90625 42.1875 32.703125 40.34375 34.90625 35 
z
" id="CMR17-99"/>
     <path d="M 15.5 61.890625 
C 15.5 64.09375 13.703125 66 11.40625 66 
C 9.203125 66 7.296875 64.1875 7.296875 61.890625 
C 7.296875 59.6875 9.09375 57.796875 11.40625 57.796875 
C 13.59375 57.796875 15.5 59.59375 15.5 61.890625 
z
M 3.796875 42.890625 
L 3.796875 40.296875 
C 9.40625 40.296875 10.203125 39.6875 10.203125 34.859375 
L 10.203125 6.921875 
C 10.203125 3.09375 9.796875 2.59375 3.40625 2.59375 
L 3.40625 0 
C 5.796875 0.1875 10.09375 0.1875 12.59375 0.1875 
C 15 0.1875 19.09375 0.1875 21.40625 0 
L 21.40625 2.59375 
C 15.5 2.59375 15.296875 3.203125 15.296875 6.8125 
L 15.296875 44 
z
" id="CMR17-105"/>
     <path d="M 30.90625 42 
C 30.90625 43.796875 30.796875 43.890625 30.203125 43.890625 
C 29.796875 43.890625 29.703125 43.796875 28.5 42.296875 
C 28.203125 41.890625 27.296875 40.890625 27 40.5 
C 23.796875 43.890625 19.296875 44 17.59375 44 
C 6.5 44 2.5 38.1875 2.5 32.390625 
C 2.5 23.390625 12.703125 21.296875 15.59375 20.6875 
C 21.90625 19.390625 24.09375 19 26.203125 17.1875 
C 27.5 16 29.703125 13.796875 29.703125 10.1875 
C 29.703125 6 27.296875 0.59375 18.09375 0.59375 
C 9.40625 0.59375 6.296875 7.1875 4.5 16 
C 4.203125 17.390625 4.203125 17.5 3.40625 17.5 
C 2.59375 17.5 2.5 17.390625 2.5 15.390625 
L 2.5 1 
C 2.5 -0.8125 2.59375 -0.90625 3.203125 -0.90625 
C 3.703125 -0.90625 3.796875 -0.8125 4.296875 0 
C 4.90625 0.890625 6.40625 3.296875 7 4.296875 
C 9 1.59375 12.5 -1 18.09375 -1 
C 28 -1 33.296875 4.390625 33.296875 12.1875 
C 33.296875 17.296875 30.59375 20 29.296875 21.1875 
C 26.296875 24.296875 22.796875 25 18.59375 25.796875 
C 13.09375 27 6.09375 28.390625 6.09375 34.5 
C 6.09375 37.09375 7.5 42.59375 17.59375 42.59375 
C 28.296875 42.59375 28.90625 32.59375 29.09375 29.390625 
C 29.203125 28.890625 29.703125 28.796875 30 28.796875 
C 30.90625 28.796875 30.90625 29.09375 30.90625 30.796875 
z
" id="CMR17-115"/>
    </defs>
    <g style="fill:#262626;" transform="translate(166.703939 17.162625)scale(0.144 -0.144)">
     <use transform="scale(0.996264)" xlink:href="#CMR17-79"/>
     <use transform="translate(71.714788 0)scale(0.996264)" xlink:href="#CMR17-114"/>
     <use transform="translate(106.995556 0)scale(0.996264)" xlink:href="#CMR17-116"/>
     <use transform="translate(142.276324 0)scale(0.996264)" xlink:href="#CMR17-104"/>
     <use transform="translate(193.171694 0)scale(0.996264)" xlink:href="#CMR17-111"/>
     <use transform="translate(238.862171 0)scale(0.996264)" xlink:href="#CMR17-103"/>
     <use transform="translate(284.552648 0)scale(0.996264)" xlink:href="#CMR17-111"/>
     <use transform="translate(330.243125 0)scale(0.996264)" xlink:href="#CMR17-110"/>
     <use transform="translate(381.138495 0)scale(0.996264)" xlink:href="#CMR17-97"/>
     <use transform="translate(426.828972 0)scale(0.996264)" xlink:href="#CMR17-108"/>
     <use transform="translate(481.775997 0)scale(0.996264)" xlink:href="#CMR17-102"/>
     <use transform="translate(509.249509 0)scale(0.996264)" xlink:href="#CMR17-117"/>
     <use transform="translate(560.144879 0)scale(0.996264)" xlink:href="#CMR17-110"/>
     <use transform="translate(611.040249 0)scale(0.996264)" xlink:href="#CMR17-99"/>
     <use transform="translate(651.525909 0)scale(0.996264)" xlink:href="#CMR17-116"/>
     <use transform="translate(686.806677 0)scale(0.996264)" xlink:href="#CMR17-105"/>
     <use transform="translate(711.677736 0)scale(0.996264)" xlink:href="#CMR17-111"/>
     <use transform="translate(757.368213 0)scale(0.996264)" xlink:href="#CMR17-110"/>
     <use transform="translate(808.263582 0)scale(0.996264)" xlink:href="#CMR17-115"/>
    </g>
   </g>
   <g id="legend_1">
    <g id="line2d_62">
     <path d="M 66.351002 232.103441 
L 92.751002 232.103441 
" style="fill:none;stroke:#4c72b0;stroke-linecap:round;stroke-width:1.5;"/>
    </g>
    <g id="line2d_63"/>
    <g id="text_13">
     <!-- $i = 1$ -->
     <defs>
      <path d="M 64.296875 32 
C 65.796875 32 67.296875 32 67.296875 33.6875 
C 67.296875 35.5 65.59375 35.5 63.90625 35.5 
L 8 35.5 
C 6.296875 35.5 4.59375 35.5 4.59375 33.6875 
C 4.59375 32 6.09375 32 7.59375 32 
z
M 63.90625 14.484375 
C 65.59375 14.484375 67.296875 14.484375 67.296875 16.296875 
C 67.296875 18 65.796875 18 64.296875 18 
L 7.59375 18 
C 6.09375 18 4.59375 18 4.59375 16.296875 
C 4.59375 14.484375 6.296875 14.484375 8 14.484375 
z
" id="CMR17-61"/>
     </defs>
     <g style="fill:#262626;" transform="translate(103.311002 236.723441)scale(0.132 -0.132)">
      <use transform="scale(0.996264)" xlink:href="#CMMI12-105"/>
      <use transform="translate(60.952611 0)scale(0.996264)" xlink:href="#CMR17-61"/>
      <use transform="translate(160.341408 0)scale(0.996264)" xlink:href="#CMR17-49"/>
     </g>
    </g>
    <g id="line2d_64">
     <path d="M 66.351002 250.500502 
L 92.751002 250.500502 
" style="fill:none;stroke:#dd8452;stroke-linecap:round;stroke-width:1.5;"/>
    </g>
    <g id="line2d_65"/>
    <g id="text_14">
     <!-- $i = 2$ -->
     <g style="fill:#262626;" transform="translate(103.311002 255.120502)scale(0.132 -0.132)">
      <use transform="scale(0.996264)" xlink:href="#CMMI12-105"/>
      <use transform="translate(60.952611 0)scale(0.996264)" xlink:href="#CMR17-61"/>
      <use transform="translate(160.341408 0)scale(0.996264)" xlink:href="#CMR17-50"/>
     </g>
    </g>
    <g id="line2d_66">
     <path d="M 66.351002 268.897563 
L 92.751002 268.897563 
" style="fill:none;stroke:#55a868;stroke-linecap:round;stroke-width:1.5;"/>
    </g>
    <g id="line2d_67"/>
    <g id="text_15">
     <!-- $i = 3$ -->
     <g style="fill:#262626;" transform="translate(103.311002 273.517563)scale(0.132 -0.132)">
      <use transform="scale(0.996264)" xlink:href="#CMMI12-105"/>
      <use transform="translate(60.952611 0)scale(0.996264)" xlink:href="#CMR17-61"/>
      <use transform="translate(160.341408 0)scale(0.996264)" xlink:href="#CMR17-51"/>
     </g>
    </g>
    <g id="line2d_68">
     <path d="M 157.86297 232.103441 
L 184.26297 232.103441 
" style="fill:none;stroke:#c44e52;stroke-linecap:round;stroke-width:1.5;"/>
    </g>
    <g id="line2d_69"/>
    <g id="text_16">
     <!-- $i = 4$ -->
     <g style="fill:#262626;" transform="translate(194.82297 236.723441)scale(0.132 -0.132)">
      <use transform="scale(0.996264)" xlink:href="#CMMI12-105"/>
      <use transform="translate(60.952611 0)scale(0.996264)" xlink:href="#CMR17-61"/>
      <use transform="translate(160.341408 0)scale(0.996264)" xlink:href="#CMR17-52"/>
     </g>
    </g>
    <g id="line2d_70">
     <path d="M 157.86297 250.500502 
L 184.26297 250.500502 
" style="fill:none;stroke:#8172b3;stroke-linecap:round;stroke-width:1.5;"/>
    </g>
    <g id="line2d_71"/>
    <g id="text_17">
     <!-- $i = 5$ -->
     <g style="fill:#262626;" transform="translate(194.82297 255.120502)scale(0.132 -0.132)">
      <use transform="scale(0.996264)" xlink:href="#CMMI12-105"/>
      <use transform="translate(60.952611 0)scale(0.996264)" xlink:href="#CMR17-61"/>
      <use transform="translate(160.341408 0)scale(0.996264)" xlink:href="#CMR17-53"/>
     </g>
    </g>
    <g id="line2d_72">
     <path d="M 157.86297 268.897563 
L 184.26297 268.897563 
" style="fill:none;stroke:#937860;stroke-linecap:round;stroke-width:1.5;"/>
    </g>
    <g id="line2d_73"/>
    <g id="text_18">
     <!-- $i = 6$ -->
     <defs>
      <path d="M 10.59375 34.34375 
C 10.59375 58 21.796875 63.6875 28.296875 63.6875 
C 30.40625 63.6875 35.5 63.265625 37.5 59.09375 
C 35.90625 59.09375 32.90625 59.09375 32.90625 55.59375 
C 32.90625 52.890625 35.09375 52 36.5 52 
C 37.40625 52 40.09375 52.390625 40.09375 55.796875 
C 40.09375 62.296875 35.09375 66 28.203125 66 
C 16.296875 66 3.796875 53.296875 3.796875 31.421875 
C 3.796875 4.015625 15.09375 -2 23.09375 -2 
C 32.796875 -2 42 6.734375 42 20.234375 
C 42 32.828125 33.90625 42 23.703125 42 
C 17.59375 42 13.09375 37.96875 10.59375 30.921875 
z
M 23.09375 0.390625 
C 10.796875 0.390625 10.796875 18.9375 10.796875 22.65625 
C 10.796875 29.90625 14.203125 40.390625 23.5 40.390625 
C 25.203125 40.390625 30.09375 40.390625 33.40625 33.4375 
C 35.203125 29.515625 35.203125 25.375 35.203125 20.34375 
C 35.203125 14.90625 35.203125 10.875 33.09375 6.84375 
C 30.90625 2.703125 27.703125 0.390625 23.09375 0.390625 
z
" id="CMR17-54"/>
     </defs>
     <g style="fill:#262626;" transform="translate(194.82297 273.517563)scale(0.132 -0.132)">
      <use transform="scale(0.996264)" xlink:href="#CMMI12-105"/>
      <use transform="translate(60.952611 0)scale(0.996264)" xlink:href="#CMR17-61"/>
      <use transform="translate(160.341408 0)scale(0.996264)" xlink:href="#CMR17-54"/>
     </g>
    </g>
    <g id="line2d_74">
     <path d="M 249.374938 232.103441 
L 275.774938 232.103441 
" style="fill:none;stroke:#da8bc3;stroke-linecap:round;stroke-width:1.5;"/>
    </g>
    <g id="line2d_75"/>
    <g id="text_19">
     <!-- $i = 7$ -->
     <defs>
      <path d="M 45.09375 61.796875 
L 45.09375 64 
L 21.59375 64 
C 9.90625 64 9.703125 65.09375 9.296875 67 
L 7.5 67 
L 4.59375 48.5 
L 6.40625 48.5 
C 6.703125 50.40625 7.40625 55.5 8.59375 57.390625 
C 9.203125 58.1875 16.59375 58.1875 18.296875 58.1875 
L 40.296875 58.1875 
L 29.203125 41.71875 
C 21.796875 30.640625 16.703125 15.671875 16.703125 2.59375 
C 16.703125 1.390625 16.703125 -2 20.296875 -2 
C 23.90625 -2 23.90625 1.390625 23.90625 2.6875 
L 23.90625 7.28125 
C 23.90625 23.65625 26.703125 34.4375 31.296875 41.3125 
z
" id="CMR17-55"/>
     </defs>
     <g style="fill:#262626;" transform="translate(286.334938 236.723441)scale(0.132 -0.132)">
      <use transform="scale(0.996264)" xlink:href="#CMMI12-105"/>
      <use transform="translate(60.952611 0)scale(0.996264)" xlink:href="#CMR17-61"/>
      <use transform="translate(160.341408 0)scale(0.996264)" xlink:href="#CMR17-55"/>
     </g>
    </g>
    <g id="line2d_76">
     <path d="M 249.374938 250.500502 
L 275.774938 250.500502 
" style="fill:none;stroke:#8c8c8c;stroke-linecap:round;stroke-width:1.5;"/>
    </g>
    <g id="line2d_77"/>
    <g id="text_20">
     <!-- $i = 8$ -->
     <defs>
      <path d="M 27.203125 35.765625 
C 33.5 38.96875 39.90625 43.796875 39.90625 51.53125 
C 39.90625 60.6875 31.09375 66 23 66 
C 13.90625 66 5.90625 59.375 5.90625 50.234375 
C 5.90625 47.71875 6.5 43.390625 10.40625 39.578125 
C 11.40625 38.578125 15.59375 35.5625 18.296875 33.65625 
C 13.796875 31.34375 3.296875 25.8125 3.296875 14.765625 
C 3.296875 4.40625 13.09375 -2 22.796875 -2 
C 33.5 -2 42.5 5.71875 42.5 15.96875 
C 42.5 25.109375 36.40625 29.328125 32.40625 32.046875 
z
M 14.09375 44.609375 
C 13.296875 45.109375 9.296875 48.21875 9.296875 52.9375 
C 9.296875 59.078125 15.59375 63.6875 22.796875 63.6875 
C 30.703125 63.6875 36.5 58.0625 36.5 51.53125 
C 36.5 42.1875 26.09375 36.859375 25.59375 36.859375 
C 25.5 36.859375 25.40625 36.859375 24.59375 37.46875 
z
M 32.5 24 
C 34 22.90625 38.796875 19.578125 38.796875 13.453125 
C 38.796875 6.015625 31.40625 0.390625 23 0.390625 
C 13.90625 0.390625 7 6.921875 7 14.859375 
C 7 22.796875 13.09375 29.4375 20 32.546875 
z
" id="CMR17-56"/>
     </defs>
     <g style="fill:#262626;" transform="translate(286.334938 255.120502)scale(0.132 -0.132)">
      <use transform="scale(0.996264)" xlink:href="#CMMI12-105"/>
      <use transform="translate(60.952611 0)scale(0.996264)" xlink:href="#CMR17-61"/>
      <use transform="translate(160.341408 0)scale(0.996264)" xlink:href="#CMR17-56"/>
     </g>
    </g>
    <g id="line2d_78">
     <path d="M 249.374938 268.897563 
L 275.774938 268.897563 
" style="fill:none;stroke:#ccb974;stroke-linecap:round;stroke-width:1.5;"/>
    </g>
    <g id="line2d_79"/>
    <g id="text_21">
     <!-- $i = 9$ -->
     <defs>
      <path d="M 35.203125 29.234375 
C 35.203125 7 26.09375 0.390625 18.59375 0.390625 
C 16.296875 0.390625 10.703125 0.671875 8.40625 4.390625 
C 11 4 12.90625 5.390625 12.90625 7.890625 
C 12.90625 10.59375 10.703125 11.5 9.296875 11.5 
C 8.40625 11.5 5.703125 11.09375 5.703125 7.6875 
C 5.703125 1.0625 11.59375 -2 18.796875 -2 
C 30.296875 -2 42 10.390625 42 32.65625 
C 42 60.265625 30.796875 66 23.203125 66 
C 13.296875 66 3.796875 57.25 3.796875 43.75 
C 3.796875 31.25 11.90625 22 22.09375 22 
C 30.5 22 34.203125 29.84375 35.203125 33.15625 
z
M 22.296875 23.59375 
C 19.59375 23.59375 15.796875 24.09375 12.703125 30.140625 
C 10.59375 34.078125 10.59375 38.703125 10.59375 43.640625 
C 10.59375 49.59375 10.59375 53.71875 13.40625 58.15625 
C 14.796875 60.265625 17.40625 63.6875 23.203125 63.6875 
C 35 63.6875 35 45.453125 35 41.421875 
C 35 34.265625 31.796875 23.59375 22.296875 23.59375 
z
" id="CMR17-57"/>
     </defs>
     <g style="fill:#262626;" transform="translate(286.334938 273.517563)scale(0.132 -0.132)">
      <use transform="scale(0.996264)" xlink:href="#CMMI12-105"/>
      <use transform="translate(60.952611 0)scale(0.996264)" xlink:href="#CMR17-61"/>
      <use transform="translate(160.341408 0)scale(0.996264)" xlink:href="#CMR17-57"/>
     </g>
    </g>
   </g>
  </g>
 </g>
 <defs>
  <clipPath id="p537ac8a9d8">
   <rect height="266.112" width="357.12" x="53.151002" y="23.162625"/>
  </clipPath>
 </defs>
</svg>
