<?xml version="1.0" encoding="utf-8" standalone="no"?>
<!DOCTYPE svg PUBLIC "-//W3C//DTD SVG 1.1//EN"
  "http://www.w3.org/Graphics/SVG/1.1/DTD/svg11.dtd">
<!-- Created with matplotlib (https://matplotlib.org/) -->
<svg height="334.416233pt" version="1.1" viewBox="0 0 459.754536 334.416233" width="459.754536pt" xmlns="http://www.w3.org/2000/svg" xmlns:xlink="http://www.w3.org/1999/xlink">
 <metadata>
  <rdf:RDF xmlns:cc="http://creativecommons.org/ns#" xmlns:dc="http://purl.org/dc/elements/1.1/" xmlns:rdf="http://www.w3.org/1999/02/22-rdf-syntax-ns#">
   <cc:Work>
    <dc:type rdf:resource="http://purl.org/dc/dcmitype/StillImage"/>
    <dc:date>2020-10-15T23:01:59.528314</dc:date>
    <dc:format>image/svg+xml</dc:format>
    <dc:creator>
     <cc:Agent>
      <dc:title>Matplotlib v3.3.2, https://matplotlib.org/</dc:title>
     </cc:Agent>
    </dc:creator>
   </cc:Work>
  </rdf:RDF>
 </metadata>
 <defs>
  <style type="text/css">*{stroke-linecap:butt;stroke-linejoin:round;}</style>
 </defs>
 <g id="figure_1">
  <g id="patch_1">
   <path d="M 0 334.416233 
L 459.754536 334.416233 
L 459.754536 0 
L 0 0 
z
" style="fill:none;"/>
  </g>
  <g id="axes_1">
   <g id="patch_2">
    <path d="M 53.151002 289.274625 
L 443.751002 289.274625 
L 443.751002 23.162625 
L 53.151002 23.162625 
z
" style="fill:none;"/>
   </g>
   <g id="matplotlib.axis_1">
    <g id="xtick_1">
     <g id="line2d_1">
      <defs>
       <path d="M 0 0 
L 0 6 
" id="m237825f789" style="stroke:#262626;stroke-width:1.25;"/>
      </defs>
      <g>
       <use style="fill:#262626;stroke:#262626;stroke-width:1.25;" x="53.151002" xlink:href="#m237825f789" y="289.274625"/>
      </g>
     </g>
     <g id="text_1">
      <!-- $\mathdefault{10^{-7}}$ -->
      <g style="fill:#262626;" transform="translate(40.668164 307.90702)scale(0.132 -0.132)">
       <defs>
        <path d="M 26.59375 63.796875 
C 26.59375 65.890625 26.5 66 25.09375 66 
C 21.203125 61.359375 15.296875 59.890625 9.703125 59.6875 
C 9.40625 59.6875 8.90625 59.6875 8.796875 59.5 
C 8.703125 59.296875 8.703125 59.09375 8.703125 57 
C 11.796875 57 17 57.59375 21 59.984375 
L 21 7.296875 
C 21 3.796875 20.796875 2.59375 12.203125 2.59375 
L 9.203125 2.59375 
L 9.203125 0 
C 14 0.09375 19 0.1875 23.796875 0.1875 
C 28.59375 0.1875 33.59375 0.09375 38.40625 0 
L 38.40625 2.59375 
L 35.40625 2.59375 
C 26.796875 2.59375 26.59375 3.6875 26.59375 7.296875 
z
" id="CMR17-49"/>
        <path d="M 42 31.84375 
C 42 37.96875 41.90625 48.421875 37.703125 56.453125 
C 34 63.484375 28.09375 66 22.90625 66 
C 18.09375 66 12 63.78125 8.203125 56.5625 
C 4.203125 49.015625 3.796875 39.671875 3.796875 31.84375 
C 3.796875 26.109375 3.90625 17.375 7 9.734375 
C 11.296875 -0.609375 19 -2 22.90625 -2 
C 27.5 -2 34.5 -0.109375 38.59375 9.4375 
C 41.59375 16.375 42 24.5 42 31.84375 
z
M 22.90625 -0.40625 
C 16.5 -0.40625 12.703125 5.125 11.296875 12.75 
C 10.203125 18.6875 10.203125 27.328125 10.203125 32.953125 
C 10.203125 40.6875 10.203125 47.109375 11.5 53.234375 
C 13.40625 61.78125 19 64.390625 22.90625 64.390625 
C 27 64.390625 32.296875 61.671875 34.203125 53.4375 
C 35.5 47.71875 35.59375 40.984375 35.59375 32.953125 
C 35.59375 26.421875 35.59375 18.375 34.40625 12.453125 
C 32.296875 1.5 26.40625 -0.40625 22.90625 -0.40625 
z
" id="CMR17-48"/>
        <path d="M 65.90625 23 
C 67.59375 23 69.40625 23 69.40625 25 
C 69.40625 27 67.59375 27 65.90625 27 
L 11.796875 27 
C 10.09375 27 8.296875 27 8.296875 25 
C 8.296875 23 10.09375 23 11.796875 23 
z
" id="CMSY10-0"/>
        <path d="M 45.09375 61.796875 
L 45.09375 64 
L 21.59375 64 
C 9.90625 64 9.703125 65.09375 9.296875 67 
L 7.5 67 
L 4.59375 48.5 
L 6.40625 48.5 
C 6.703125 50.40625 7.40625 55.5 8.59375 57.390625 
C 9.203125 58.1875 16.59375 58.1875 18.296875 58.1875 
L 40.296875 58.1875 
L 29.203125 41.71875 
C 21.796875 30.640625 16.703125 15.671875 16.703125 2.59375 
C 16.703125 1.390625 16.703125 -2 20.296875 -2 
C 23.90625 -2 23.90625 1.390625 23.90625 2.6875 
L 23.90625 7.28125 
C 23.90625 23.65625 26.703125 34.4375 31.296875 41.3125 
z
" id="CMR17-55"/>
       </defs>
       <use transform="scale(0.996264)" xlink:href="#CMR17-49"/>
       <use transform="translate(45.690477 0)scale(0.996264)" xlink:href="#CMR17-48"/>
       <use transform="translate(91.380954 36.153639)scale(0.697382)" xlink:href="#CMSY10-0"/>
       <use transform="translate(145.621947 36.153639)scale(0.697382)" xlink:href="#CMR17-55"/>
      </g>
     </g>
    </g>
    <g id="xtick_2">
     <g id="line2d_2">
      <g>
       <use style="fill:#262626;stroke:#262626;stroke-width:1.25;" x="108.951002" xlink:href="#m237825f789" y="289.274625"/>
      </g>
     </g>
     <g id="text_2">
      <!-- $\mathdefault{10^{-6}}$ -->
      <g style="fill:#262626;" transform="translate(96.468164 307.90702)scale(0.132 -0.132)">
       <defs>
        <path d="M 10.59375 34.34375 
C 10.59375 58 21.796875 63.6875 28.296875 63.6875 
C 30.40625 63.6875 35.5 63.265625 37.5 59.09375 
C 35.90625 59.09375 32.90625 59.09375 32.90625 55.59375 
C 32.90625 52.890625 35.09375 52 36.5 52 
C 37.40625 52 40.09375 52.390625 40.09375 55.796875 
C 40.09375 62.296875 35.09375 66 28.203125 66 
C 16.296875 66 3.796875 53.296875 3.796875 31.421875 
C 3.796875 4.015625 15.09375 -2 23.09375 -2 
C 32.796875 -2 42 6.734375 42 20.234375 
C 42 32.828125 33.90625 42 23.703125 42 
C 17.59375 42 13.09375 37.96875 10.59375 30.921875 
z
M 23.09375 0.390625 
C 10.796875 0.390625 10.796875 18.9375 10.796875 22.65625 
C 10.796875 29.90625 14.203125 40.390625 23.5 40.390625 
C 25.203125 40.390625 30.09375 40.390625 33.40625 33.4375 
C 35.203125 29.515625 35.203125 25.375 35.203125 20.34375 
C 35.203125 14.90625 35.203125 10.875 33.09375 6.84375 
C 30.90625 2.703125 27.703125 0.390625 23.09375 0.390625 
z
" id="CMR17-54"/>
       </defs>
       <use transform="scale(0.996264)" xlink:href="#CMR17-49"/>
       <use transform="translate(45.690477 0)scale(0.996264)" xlink:href="#CMR17-48"/>
       <use transform="translate(91.380954 36.153639)scale(0.697382)" xlink:href="#CMSY10-0"/>
       <use transform="translate(145.621947 36.153639)scale(0.697382)" xlink:href="#CMR17-54"/>
      </g>
     </g>
    </g>
    <g id="xtick_3">
     <g id="line2d_3">
      <g>
       <use style="fill:#262626;stroke:#262626;stroke-width:1.25;" x="164.751002" xlink:href="#m237825f789" y="289.274625"/>
      </g>
     </g>
     <g id="text_3">
      <!-- $\mathdefault{10^{-5}}$ -->
      <g style="fill:#262626;" transform="translate(152.268164 307.90702)scale(0.132 -0.132)">
       <defs>
        <path d="M 11.40625 58.59375 
C 12.40625 58.1875 16.5 56.890625 20.703125 56.890625 
C 30 56.890625 35.09375 61.890625 38 64.6875 
C 38 65.484375 38 66 37.40625 66 
C 37.296875 66 37.09375 66 36.296875 65.59375 
C 32.796875 64.09375 28.703125 63 23.703125 63 
C 20.703125 63 16.203125 63.359375 11.296875 65.484375 
C 10.203125 66 10 66 9.90625 66 
C 9.40625 66 9.296875 65.890625 9.296875 63.90625 
L 9.296875 34.859375 
C 9.296875 33.015625 9.296875 32.5 10.296875 32.5 
C 10.796875 32.5 11 32.703125 11.5 33.421875 
C 14.703125 38.046875 19.09375 40 24.09375 40 
C 27.59375 40 35.09375 37.734375 35.09375 20.203125 
C 35.09375 16.984375 35.09375 11.1875 32.09375 6.59375 
C 29.59375 2.484375 25.703125 0.390625 21.40625 0.390625 
C 14.796875 0.390625 8.09375 4.984375 6.296875 12.6875 
C 6.703125 12.59375 7.5 12.390625 7.90625 12.390625 
C 9.203125 12.390625 11.703125 13.09375 11.703125 16.1875 
C 11.703125 18.890625 9.796875 20 7.90625 20 
C 5.59375 20 4.09375 18.59375 4.09375 15.796875 
C 4.09375 7.09375 11 -2 21.59375 -2 
C 31.90625 -2 41.703125 6.890625 41.703125 19.796875 
C 41.703125 32.09375 33.90625 41.59375 24.203125 41.59375 
C 19.09375 41.59375 14.796875 39.6875 11.40625 36 
z
" id="CMR17-53"/>
       </defs>
       <use transform="scale(0.996264)" xlink:href="#CMR17-49"/>
       <use transform="translate(45.690477 0)scale(0.996264)" xlink:href="#CMR17-48"/>
       <use transform="translate(91.380954 36.153639)scale(0.697382)" xlink:href="#CMSY10-0"/>
       <use transform="translate(145.621947 36.153639)scale(0.697382)" xlink:href="#CMR17-53"/>
      </g>
     </g>
    </g>
    <g id="xtick_4">
     <g id="line2d_4">
      <g>
       <use style="fill:#262626;stroke:#262626;stroke-width:1.25;" x="220.551002" xlink:href="#m237825f789" y="289.274625"/>
      </g>
     </g>
     <g id="text_4">
      <!-- $\mathdefault{10^{-4}}$ -->
      <g style="fill:#262626;" transform="translate(208.068164 307.90702)scale(0.132 -0.132)">
       <defs>
        <path d="M 33.59375 64.796875 
C 33.59375 66.890625 33.5 67 31.703125 67 
L 2 19.59375 
L 2 17 
L 27.796875 17 
L 27.796875 7.1875 
C 27.796875 3.59375 27.59375 2.59375 20.59375 2.59375 
L 18.703125 2.59375 
L 18.703125 0 
C 21.90625 0.1875 27.296875 0.1875 30.703125 0.1875 
C 34.09375 0.1875 39.5 0.1875 42.703125 0 
L 42.703125 2.59375 
L 40.796875 2.59375 
C 33.796875 2.59375 33.59375 3.59375 33.59375 7.1875 
L 33.59375 17 
L 43.796875 17 
L 43.796875 19.59375 
L 33.59375 19.59375 
z
M 28.09375 58.171875 
L 28.09375 19.59375 
L 4 19.59375 
z
" id="CMR17-52"/>
       </defs>
       <use transform="scale(0.996264)" xlink:href="#CMR17-49"/>
       <use transform="translate(45.690477 0)scale(0.996264)" xlink:href="#CMR17-48"/>
       <use transform="translate(91.380954 36.153639)scale(0.697382)" xlink:href="#CMSY10-0"/>
       <use transform="translate(145.621947 36.153639)scale(0.697382)" xlink:href="#CMR17-52"/>
      </g>
     </g>
    </g>
    <g id="xtick_5">
     <g id="line2d_5">
      <g>
       <use style="fill:#262626;stroke:#262626;stroke-width:1.25;" x="276.351002" xlink:href="#m237825f789" y="289.274625"/>
      </g>
     </g>
     <g id="text_5">
      <!-- $\mathdefault{10^{-3}}$ -->
      <g style="fill:#262626;" transform="translate(263.868164 307.90702)scale(0.132 -0.132)">
       <defs>
        <path d="M 22.09375 34 
C 31 34 34.90625 26.140625 34.90625 17.09375 
C 34.90625 5.03125 28.5 0.390625 22.703125 0.390625 
C 17.40625 0.390625 8.796875 3.015625 6.09375 10.796875 
C 6.59375 10.59375 7.09375 10.59375 7.59375 10.59375 
C 10 10.59375 11.796875 12.1875 11.796875 14.796875 
C 11.796875 17.6875 9.59375 19 7.59375 19 
C 5.90625 19 3.296875 18.1875 3.296875 14.484375 
C 3.296875 5.234375 12.296875 -2 22.90625 -2 
C 34 -2 42.5 6.75 42.5 16.984375 
C 42.5 26.84375 34.5 34 25 35.09375 
C 32.59375 36.671875 39.90625 43.375 39.90625 52.390625 
C 39.90625 60.25 32 66 23 66 
C 13.90625 66 5.90625 60.34375 5.90625 52.296875 
C 5.90625 48.796875 8.5 48.1875 9.796875 48.1875 
C 11.90625 48.1875 13.703125 49.484375 13.703125 52.09375 
C 13.703125 54.6875 11.90625 56 9.796875 56 
C 9.40625 56 8.90625 56 8.5 55.796875 
C 11.40625 62.484375 19.296875 63.6875 22.796875 63.6875 
C 26.296875 63.6875 32.90625 61.96875 32.90625 52.296875 
C 32.90625 49.484375 32.5 44.546875 29.09375 40.21875 
C 26.09375 36.390625 22.703125 36.1875 19.40625 35.890625 
C 18.90625 35.890625 16.59375 35.6875 16.203125 35.6875 
C 15.5 35.59375 15.09375 35.5 15.09375 34.796875 
C 15.09375 34.09375 15.203125 34 17.203125 34 
z
" id="CMR17-51"/>
       </defs>
       <use transform="scale(0.996264)" xlink:href="#CMR17-49"/>
       <use transform="translate(45.690477 0)scale(0.996264)" xlink:href="#CMR17-48"/>
       <use transform="translate(91.380954 36.153639)scale(0.697382)" xlink:href="#CMSY10-0"/>
       <use transform="translate(145.621947 36.153639)scale(0.697382)" xlink:href="#CMR17-51"/>
      </g>
     </g>
    </g>
    <g id="xtick_6">
     <g id="line2d_6">
      <g>
       <use style="fill:#262626;stroke:#262626;stroke-width:1.25;" x="332.151002" xlink:href="#m237825f789" y="289.274625"/>
      </g>
     </g>
     <g id="text_6">
      <!-- $\mathdefault{10^{-2}}$ -->
      <g style="fill:#262626;" transform="translate(319.668164 307.90702)scale(0.132 -0.132)">
       <defs>
        <path d="M 41.703125 15.46875 
L 39.90625 15.46875 
C 38.90625 8.390625 38.09375 7.1875 37.703125 6.59375 
C 37.203125 5.796875 30 5.796875 28.59375 5.796875 
L 9.40625 5.796875 
C 13 9.6875 20 16.765625 28.5 24.9375 
C 34.59375 30.71875 41.703125 37.5 41.703125 47.390625 
C 41.703125 59.1875 32.296875 66 21.796875 66 
C 10.796875 66 4.09375 56.296875 4.09375 47.296875 
C 4.09375 43.390625 7 42.890625 8.203125 42.890625 
C 9.203125 42.890625 12.203125 43.484375 12.203125 46.984375 
C 12.203125 50.09375 9.59375 51 8.203125 51 
C 7.59375 51 7 50.890625 6.59375 50.6875 
C 8.5 59.1875 14.296875 63.390625 20.40625 63.390625 
C 29.09375 63.390625 34.796875 56.5 34.796875 47.390625 
C 34.796875 38.703125 29.703125 31.21875 24 24.734375 
L 4.09375 2.296875 
L 4.09375 0 
L 39.296875 0 
z
" id="CMR17-50"/>
       </defs>
       <use transform="scale(0.996264)" xlink:href="#CMR17-49"/>
       <use transform="translate(45.690477 0)scale(0.996264)" xlink:href="#CMR17-48"/>
       <use transform="translate(91.380954 36.153639)scale(0.697382)" xlink:href="#CMSY10-0"/>
       <use transform="translate(145.621947 36.153639)scale(0.697382)" xlink:href="#CMR17-50"/>
      </g>
     </g>
    </g>
    <g id="xtick_7">
     <g id="line2d_7">
      <g>
       <use style="fill:#262626;stroke:#262626;stroke-width:1.25;" x="387.951002" xlink:href="#m237825f789" y="289.274625"/>
      </g>
     </g>
     <g id="text_7">
      <!-- $\mathdefault{10^{-1}}$ -->
      <g style="fill:#262626;" transform="translate(375.468164 307.90702)scale(0.132 -0.132)">
       <use transform="scale(0.996264)" xlink:href="#CMR17-49"/>
       <use transform="translate(45.690477 0)scale(0.996264)" xlink:href="#CMR17-48"/>
       <use transform="translate(91.380954 36.153639)scale(0.697382)" xlink:href="#CMSY10-0"/>
       <use transform="translate(145.621947 36.153639)scale(0.697382)" xlink:href="#CMR17-49"/>
      </g>
     </g>
    </g>
    <g id="xtick_8">
     <g id="line2d_8">
      <g>
       <use style="fill:#262626;stroke:#262626;stroke-width:1.25;" x="443.751002" xlink:href="#m237825f789" y="289.274625"/>
      </g>
     </g>
     <g id="text_8">
      <!-- $\mathdefault{10^{0}}$ -->
      <g style="fill:#262626;" transform="translate(434.947467 307.90702)scale(0.132 -0.132)">
       <use transform="scale(0.996264)" xlink:href="#CMR17-49"/>
       <use transform="translate(45.690477 0)scale(0.996264)" xlink:href="#CMR17-48"/>
       <use transform="translate(91.380954 36.153639)scale(0.697382)" xlink:href="#CMR17-48"/>
      </g>
     </g>
    </g>
    <g id="xtick_9">
     <g id="line2d_9">
      <defs>
       <path d="M 0 0 
L 0 4 
" id="mcf7ddd4257" style="stroke:#262626;"/>
      </defs>
      <g>
       <use style="fill:#262626;stroke:#262626;" x="69.948475" xlink:href="#mcf7ddd4257" y="289.274625"/>
      </g>
     </g>
    </g>
    <g id="xtick_10">
     <g id="line2d_10">
      <g>
       <use style="fill:#262626;stroke:#262626;" x="79.774368" xlink:href="#mcf7ddd4257" y="289.274625"/>
      </g>
     </g>
    </g>
    <g id="xtick_11">
     <g id="line2d_11">
      <g>
       <use style="fill:#262626;stroke:#262626;" x="86.745949" xlink:href="#mcf7ddd4257" y="289.274625"/>
      </g>
     </g>
    </g>
    <g id="xtick_12">
     <g id="line2d_12">
      <g>
       <use style="fill:#262626;stroke:#262626;" x="92.153528" xlink:href="#mcf7ddd4257" y="289.274625"/>
      </g>
     </g>
    </g>
    <g id="xtick_13">
     <g id="line2d_13">
      <g>
       <use style="fill:#262626;stroke:#262626;" x="96.571841" xlink:href="#mcf7ddd4257" y="289.274625"/>
      </g>
     </g>
    </g>
    <g id="xtick_14">
     <g id="line2d_14">
      <g>
       <use style="fill:#262626;stroke:#262626;" x="100.307472" xlink:href="#mcf7ddd4257" y="289.274625"/>
      </g>
     </g>
    </g>
    <g id="xtick_15">
     <g id="line2d_15">
      <g>
       <use style="fill:#262626;stroke:#262626;" x="103.543423" xlink:href="#mcf7ddd4257" y="289.274625"/>
      </g>
     </g>
    </g>
    <g id="xtick_16">
     <g id="line2d_16">
      <g>
       <use style="fill:#262626;stroke:#262626;" x="106.397734" xlink:href="#mcf7ddd4257" y="289.274625"/>
      </g>
     </g>
    </g>
    <g id="xtick_17">
     <g id="line2d_17">
      <g>
       <use style="fill:#262626;stroke:#262626;" x="125.748475" xlink:href="#mcf7ddd4257" y="289.274625"/>
      </g>
     </g>
    </g>
    <g id="xtick_18">
     <g id="line2d_18">
      <g>
       <use style="fill:#262626;stroke:#262626;" x="135.574368" xlink:href="#mcf7ddd4257" y="289.274625"/>
      </g>
     </g>
    </g>
    <g id="xtick_19">
     <g id="line2d_19">
      <g>
       <use style="fill:#262626;stroke:#262626;" x="142.545949" xlink:href="#mcf7ddd4257" y="289.274625"/>
      </g>
     </g>
    </g>
    <g id="xtick_20">
     <g id="line2d_20">
      <g>
       <use style="fill:#262626;stroke:#262626;" x="147.953528" xlink:href="#mcf7ddd4257" y="289.274625"/>
      </g>
     </g>
    </g>
    <g id="xtick_21">
     <g id="line2d_21">
      <g>
       <use style="fill:#262626;stroke:#262626;" x="152.371841" xlink:href="#mcf7ddd4257" y="289.274625"/>
      </g>
     </g>
    </g>
    <g id="xtick_22">
     <g id="line2d_22">
      <g>
       <use style="fill:#262626;stroke:#262626;" x="156.107472" xlink:href="#mcf7ddd4257" y="289.274625"/>
      </g>
     </g>
    </g>
    <g id="xtick_23">
     <g id="line2d_23">
      <g>
       <use style="fill:#262626;stroke:#262626;" x="159.343423" xlink:href="#mcf7ddd4257" y="289.274625"/>
      </g>
     </g>
    </g>
    <g id="xtick_24">
     <g id="line2d_24">
      <g>
       <use style="fill:#262626;stroke:#262626;" x="162.197734" xlink:href="#mcf7ddd4257" y="289.274625"/>
      </g>
     </g>
    </g>
    <g id="xtick_25">
     <g id="line2d_25">
      <g>
       <use style="fill:#262626;stroke:#262626;" x="181.548475" xlink:href="#mcf7ddd4257" y="289.274625"/>
      </g>
     </g>
    </g>
    <g id="xtick_26">
     <g id="line2d_26">
      <g>
       <use style="fill:#262626;stroke:#262626;" x="191.374368" xlink:href="#mcf7ddd4257" y="289.274625"/>
      </g>
     </g>
    </g>
    <g id="xtick_27">
     <g id="line2d_27">
      <g>
       <use style="fill:#262626;stroke:#262626;" x="198.345949" xlink:href="#mcf7ddd4257" y="289.274625"/>
      </g>
     </g>
    </g>
    <g id="xtick_28">
     <g id="line2d_28">
      <g>
       <use style="fill:#262626;stroke:#262626;" x="203.753528" xlink:href="#mcf7ddd4257" y="289.274625"/>
      </g>
     </g>
    </g>
    <g id="xtick_29">
     <g id="line2d_29">
      <g>
       <use style="fill:#262626;stroke:#262626;" x="208.171841" xlink:href="#mcf7ddd4257" y="289.274625"/>
      </g>
     </g>
    </g>
    <g id="xtick_30">
     <g id="line2d_30">
      <g>
       <use style="fill:#262626;stroke:#262626;" x="211.907472" xlink:href="#mcf7ddd4257" y="289.274625"/>
      </g>
     </g>
    </g>
    <g id="xtick_31">
     <g id="line2d_31">
      <g>
       <use style="fill:#262626;stroke:#262626;" x="215.143423" xlink:href="#mcf7ddd4257" y="289.274625"/>
      </g>
     </g>
    </g>
    <g id="xtick_32">
     <g id="line2d_32">
      <g>
       <use style="fill:#262626;stroke:#262626;" x="217.997734" xlink:href="#mcf7ddd4257" y="289.274625"/>
      </g>
     </g>
    </g>
    <g id="xtick_33">
     <g id="line2d_33">
      <g>
       <use style="fill:#262626;stroke:#262626;" x="237.348475" xlink:href="#mcf7ddd4257" y="289.274625"/>
      </g>
     </g>
    </g>
    <g id="xtick_34">
     <g id="line2d_34">
      <g>
       <use style="fill:#262626;stroke:#262626;" x="247.174368" xlink:href="#mcf7ddd4257" y="289.274625"/>
      </g>
     </g>
    </g>
    <g id="xtick_35">
     <g id="line2d_35">
      <g>
       <use style="fill:#262626;stroke:#262626;" x="254.145949" xlink:href="#mcf7ddd4257" y="289.274625"/>
      </g>
     </g>
    </g>
    <g id="xtick_36">
     <g id="line2d_36">
      <g>
       <use style="fill:#262626;stroke:#262626;" x="259.553528" xlink:href="#mcf7ddd4257" y="289.274625"/>
      </g>
     </g>
    </g>
    <g id="xtick_37">
     <g id="line2d_37">
      <g>
       <use style="fill:#262626;stroke:#262626;" x="263.971841" xlink:href="#mcf7ddd4257" y="289.274625"/>
      </g>
     </g>
    </g>
    <g id="xtick_38">
     <g id="line2d_38">
      <g>
       <use style="fill:#262626;stroke:#262626;" x="267.707472" xlink:href="#mcf7ddd4257" y="289.274625"/>
      </g>
     </g>
    </g>
    <g id="xtick_39">
     <g id="line2d_39">
      <g>
       <use style="fill:#262626;stroke:#262626;" x="270.943423" xlink:href="#mcf7ddd4257" y="289.274625"/>
      </g>
     </g>
    </g>
    <g id="xtick_40">
     <g id="line2d_40">
      <g>
       <use style="fill:#262626;stroke:#262626;" x="273.797734" xlink:href="#mcf7ddd4257" y="289.274625"/>
      </g>
     </g>
    </g>
    <g id="xtick_41">
     <g id="line2d_41">
      <g>
       <use style="fill:#262626;stroke:#262626;" x="293.148475" xlink:href="#mcf7ddd4257" y="289.274625"/>
      </g>
     </g>
    </g>
    <g id="xtick_42">
     <g id="line2d_42">
      <g>
       <use style="fill:#262626;stroke:#262626;" x="302.974368" xlink:href="#mcf7ddd4257" y="289.274625"/>
      </g>
     </g>
    </g>
    <g id="xtick_43">
     <g id="line2d_43">
      <g>
       <use style="fill:#262626;stroke:#262626;" x="309.945949" xlink:href="#mcf7ddd4257" y="289.274625"/>
      </g>
     </g>
    </g>
    <g id="xtick_44">
     <g id="line2d_44">
      <g>
       <use style="fill:#262626;stroke:#262626;" x="315.353528" xlink:href="#mcf7ddd4257" y="289.274625"/>
      </g>
     </g>
    </g>
    <g id="xtick_45">
     <g id="line2d_45">
      <g>
       <use style="fill:#262626;stroke:#262626;" x="319.771841" xlink:href="#mcf7ddd4257" y="289.274625"/>
      </g>
     </g>
    </g>
    <g id="xtick_46">
     <g id="line2d_46">
      <g>
       <use style="fill:#262626;stroke:#262626;" x="323.507472" xlink:href="#mcf7ddd4257" y="289.274625"/>
      </g>
     </g>
    </g>
    <g id="xtick_47">
     <g id="line2d_47">
      <g>
       <use style="fill:#262626;stroke:#262626;" x="326.743423" xlink:href="#mcf7ddd4257" y="289.274625"/>
      </g>
     </g>
    </g>
    <g id="xtick_48">
     <g id="line2d_48">
      <g>
       <use style="fill:#262626;stroke:#262626;" x="329.597734" xlink:href="#mcf7ddd4257" y="289.274625"/>
      </g>
     </g>
    </g>
    <g id="xtick_49">
     <g id="line2d_49">
      <g>
       <use style="fill:#262626;stroke:#262626;" x="348.948475" xlink:href="#mcf7ddd4257" y="289.274625"/>
      </g>
     </g>
    </g>
    <g id="xtick_50">
     <g id="line2d_50">
      <g>
       <use style="fill:#262626;stroke:#262626;" x="358.774368" xlink:href="#mcf7ddd4257" y="289.274625"/>
      </g>
     </g>
    </g>
    <g id="xtick_51">
     <g id="line2d_51">
      <g>
       <use style="fill:#262626;stroke:#262626;" x="365.745949" xlink:href="#mcf7ddd4257" y="289.274625"/>
      </g>
     </g>
    </g>
    <g id="xtick_52">
     <g id="line2d_52">
      <g>
       <use style="fill:#262626;stroke:#262626;" x="371.153528" xlink:href="#mcf7ddd4257" y="289.274625"/>
      </g>
     </g>
    </g>
    <g id="xtick_53">
     <g id="line2d_53">
      <g>
       <use style="fill:#262626;stroke:#262626;" x="375.571841" xlink:href="#mcf7ddd4257" y="289.274625"/>
      </g>
     </g>
    </g>
    <g id="xtick_54">
     <g id="line2d_54">
      <g>
       <use style="fill:#262626;stroke:#262626;" x="379.307472" xlink:href="#mcf7ddd4257" y="289.274625"/>
      </g>
     </g>
    </g>
    <g id="xtick_55">
     <g id="line2d_55">
      <g>
       <use style="fill:#262626;stroke:#262626;" x="382.543423" xlink:href="#mcf7ddd4257" y="289.274625"/>
      </g>
     </g>
    </g>
    <g id="xtick_56">
     <g id="line2d_56">
      <g>
       <use style="fill:#262626;stroke:#262626;" x="385.397734" xlink:href="#mcf7ddd4257" y="289.274625"/>
      </g>
     </g>
    </g>
    <g id="xtick_57">
     <g id="line2d_57">
      <g>
       <use style="fill:#262626;stroke:#262626;" x="404.748475" xlink:href="#mcf7ddd4257" y="289.274625"/>
      </g>
     </g>
    </g>
    <g id="xtick_58">
     <g id="line2d_58">
      <g>
       <use style="fill:#262626;stroke:#262626;" x="414.574368" xlink:href="#mcf7ddd4257" y="289.274625"/>
      </g>
     </g>
    </g>
    <g id="xtick_59">
     <g id="line2d_59">
      <g>
       <use style="fill:#262626;stroke:#262626;" x="421.545949" xlink:href="#mcf7ddd4257" y="289.274625"/>
      </g>
     </g>
    </g>
    <g id="xtick_60">
     <g id="line2d_60">
      <g>
       <use style="fill:#262626;stroke:#262626;" x="426.953528" xlink:href="#mcf7ddd4257" y="289.274625"/>
      </g>
     </g>
    </g>
    <g id="xtick_61">
     <g id="line2d_61">
      <g>
       <use style="fill:#262626;stroke:#262626;" x="431.371841" xlink:href="#mcf7ddd4257" y="289.274625"/>
      </g>
     </g>
    </g>
    <g id="xtick_62">
     <g id="line2d_62">
      <g>
       <use style="fill:#262626;stroke:#262626;" x="435.107472" xlink:href="#mcf7ddd4257" y="289.274625"/>
      </g>
     </g>
    </g>
    <g id="xtick_63">
     <g id="line2d_63">
      <g>
       <use style="fill:#262626;stroke:#262626;" x="438.343423" xlink:href="#mcf7ddd4257" y="289.274625"/>
      </g>
     </g>
    </g>
    <g id="xtick_64">
     <g id="line2d_64">
      <g>
       <use style="fill:#262626;stroke:#262626;" x="441.197734" xlink:href="#mcf7ddd4257" y="289.274625"/>
      </g>
     </g>
    </g>
    <g id="text_9">
     <!-- $t$ -->
     <g style="fill:#262626;" transform="translate(245.914713 324.426706)scale(0.144 -0.144)">
      <defs>
       <path d="M 20.09375 40.09375 
L 29.296875 40.09375 
C 31.203125 40.09375 32.203125 40.09375 32.203125 41.890625 
C 32.203125 43 31.59375 43 29.59375 43 
L 20.796875 43 
L 24.5 57.25 
C 24.90625 58.625 24.90625 58.8125 24.90625 59.5 
C 24.90625 61.09375 23.59375 62 22.296875 62 
C 21.5 62 19.203125 61.6875 18.40625 58.53125 
L 14.5 43 
L 5.09375 43 
C 3.09375 43 2.203125 43 2.203125 41.09375 
C 2.203125 40.09375 2.90625 40.09375 4.796875 40.09375 
L 13.703125 40.09375 
L 7.09375 13.765625 
C 6.296875 10.265625 6 9.265625 6 7.96875 
C 6 3.28125 9.296875 -1 14.90625 -1 
C 25 -1 30.40625 13.5625 30.40625 14.265625 
C 30.40625 14.859375 30 15.15625 29.40625 15.15625 
C 29.203125 15.15625 28.796875 15.15625 28.59375 14.75 
C 28.5 14.65625 28.40625 14.5625 27.703125 12.96875 
C 25.59375 7.96875 21 1 15.203125 1 
C 12.203125 1 12 3.484375 12 5.6875 
C 12 5.78125 12 7.671875 12.296875 8.875 
z
" id="CMMI12-116"/>
      </defs>
      <use transform="scale(0.996264)" xlink:href="#CMMI12-116"/>
     </g>
    </g>
   </g>
   <g id="matplotlib.axis_2">
    <g id="ytick_1">
     <g id="line2d_65">
      <path clip-path="url(#p99ee0f0d41)" d="M 53.151002 289.274625 
L 443.751002 289.274625 
" style="fill:none;stroke:#cccccc;stroke-linecap:round;"/>
     </g>
     <g id="line2d_66">
      <defs>
       <path d="M 0 0 
L -6 0 
" id="mc5fe3bf6a3" style="stroke:#262626;stroke-width:1.25;"/>
      </defs>
      <g>
       <use style="fill:#262626;stroke:#262626;stroke-width:1.25;" x="53.151002" xlink:href="#mc5fe3bf6a3" y="289.274625"/>
      </g>
     </g>
     <g id="text_10">
      <!-- $\mathdefault{−1}$ -->
      <g style="fill:#262626;" transform="translate(26.984391 293.840822)scale(0.132 -0.132)">
       <use transform="scale(0.996264)" xlink:href="#CMSY10-0"/>
       <use transform="translate(77.487468 0)scale(0.996264)" xlink:href="#CMR17-49"/>
      </g>
     </g>
    </g>
    <g id="ytick_2">
     <g id="line2d_67">
      <path clip-path="url(#p99ee0f0d41)" d="M 53.151002 156.218625 
L 443.751002 156.218625 
" style="fill:none;stroke:#cccccc;stroke-linecap:round;"/>
     </g>
     <g id="line2d_68">
      <g>
       <use style="fill:#262626;stroke:#262626;stroke-width:1.25;" x="53.151002" xlink:href="#mc5fe3bf6a3" y="156.218625"/>
      </g>
     </g>
     <g id="text_11">
      <!-- $\mathdefault{0}$ -->
      <g style="fill:#262626;" transform="translate(37.212728 160.784822)scale(0.132 -0.132)">
       <use transform="scale(0.996264)" xlink:href="#CMR17-48"/>
      </g>
     </g>
    </g>
    <g id="ytick_3">
     <g id="line2d_69">
      <path clip-path="url(#p99ee0f0d41)" d="M 53.151002 23.162625 
L 443.751002 23.162625 
" style="fill:none;stroke:#cccccc;stroke-linecap:round;"/>
     </g>
     <g id="line2d_70">
      <g>
       <use style="fill:#262626;stroke:#262626;stroke-width:1.25;" x="53.151002" xlink:href="#mc5fe3bf6a3" y="23.162625"/>
      </g>
     </g>
     <g id="text_12">
      <!-- $\mathdefault{1}$ -->
      <g style="fill:#262626;" transform="translate(37.212728 27.728822)scale(0.132 -0.132)">
       <use transform="scale(0.996264)" xlink:href="#CMR17-49"/>
      </g>
     </g>
    </g>
    <g id="text_13">
     <!-- $\phi_i^{\perp}(t)$ -->
     <g style="fill:#262626;" transform="translate(19.324607 172.497986)rotate(-90)scale(0.144 -0.144)">
      <defs>
       <path d="M 43 68.09375 
C 43 69 42.296875 69 42 69 
C 41.09375 69 41 68.796875 40.59375 67.09375 
L 35.203125 45.6875 
C 34.90625 44.390625 34.796875 44.296875 34.703125 44.1875 
C 34.59375 44 33.90625 43.890625 33.703125 43.890625 
C 17.296875 42.5 4.703125 29.109375 4.703125 16.734375 
C 4.703125 6.046875 13 -0.5 23.40625 -1.109375 
C 22.59375 -4.15625 21.90625 -7.296875 21.09375 -10.34375 
C 19.703125 -15.546875 18.90625 -18.8125 18.90625 -19.203125 
C 18.90625 -19.40625 18.90625 -20 19.90625 -20 
C 20.203125 -20 20.59375 -20 20.796875 -19.609375 
C 21 -19.40625 21.59375 -17.015625 22 -15.75 
L 25.703125 -1.109375 
C 42.796875 -0.203125 55.796875 13.671875 55.796875 26.140625 
C 55.796875 36.140625 48.203125 43.296875 37.09375 44 
z
M 36.5 42 
C 43.09375 41.59375 49.703125 37.9375 49.703125 28.21875 
C 49.703125 17.03125 41.796875 2.1875 26.203125 1 
z
M 23.90625 0.890625 
C 19 1.1875 10.796875 3.765625 10.796875 14.65625 
C 10.796875 27.140625 19.90625 41 34.296875 41.890625 
z
" id="CMMI12-30"/>
       <path d="M 40.90625 63.578125 
C 40.90625 65.390625 40.90625 67.1875 38.90625 67.1875 
C 36.90625 67.1875 36.90625 65.09375 36.90625 63.578125 
L 36.90625 4 
L 9.09375 4 
C 7.59375 4 5.5 4 5.5 2 
C 5.5 0 7.59375 0 9.09375 0 
L 68.796875 0 
C 70.5 0 72.296875 0 72.296875 2 
C 72.296875 4 70.5 4 68.796875 4 
L 40.90625 4 
z
" id="CMSY10-63"/>
       <path d="M 28.296875 14.265625 
C 28.296875 14.765625 27.90625 15.15625 27.296875 15.15625 
C 26.40625 15.15625 26.296875 14.859375 25.796875 13.15625 
C 23.203125 4.078125 19.09375 1 15.796875 1 
C 14.59375 1 13.203125 1.296875 13.203125 4.28125 
C 13.203125 6.984375 14.40625 9.96875 15.5 12.96875 
L 22.5 31.515625 
C 22.796875 32.3125 23.5 34.109375 23.5 36.015625 
C 23.5 40.203125 20.5 44 15.59375 44 
C 6.40625 44 2.703125 29.53125 2.703125 28.71875 
C 2.703125 28.328125 3.09375 27.828125 3.796875 27.828125 
C 4.703125 27.828125 4.796875 28.234375 5.203125 29.625 
C 7.59375 38 11.40625 41.984375 15.296875 41.984375 
C 16.203125 41.984375 17.90625 41.890625 17.90625 38.703125 
C 17.90625 36.109375 16.59375 32.8125 15.796875 30.625 
L 8.796875 12.0625 
C 8.203125 10.46875 7.59375 8.875 7.59375 7.078125 
C 7.59375 2.59375 10.703125 -1 15.5 -1 
C 24.703125 -1 28.296875 13.5625 28.296875 14.265625 
z
M 27.5 62.6875 
C 27.5 64.1875 26.296875 66 24.09375 66 
C 21.796875 66 19.203125 63.796875 19.203125 61.1875 
C 19.203125 58.6875 21.296875 57.890625 22.5 57.890625 
C 25.203125 57.890625 27.5 60.484375 27.5 62.6875 
z
" id="CMMI12-105"/>
       <path d="M 30.59375 -24.40625 
C 30.59375 -24.3125 30.59375 -24.109375 30.296875 -23.8125 
C 25.703125 -19.109375 13.40625 -6.296875 13.40625 24.9375 
C 13.40625 56.171875 25.5 68.875 30.40625 73.890625 
C 30.40625 73.984375 30.59375 74.1875 30.59375 74.484375 
C 30.59375 74.796875 30.296875 75 29.90625 75 
C 28.796875 75 20.296875 67.578125 15.40625 56.5625 
C 10.40625 45.453125 9 34.65625 9 25.046875 
C 9 17.828125 9.703125 5.625 15.703125 -7.296875 
C 20.5 -17.703125 28.703125 -25 29.90625 -25 
C 30.40625 -25 30.59375 -24.8125 30.59375 -24.40625 
z
" id="CMR17-40"/>
       <path d="M 26.296875 24.9375 
C 26.296875 32.140625 25.59375 44.359375 19.59375 57.265625 
C 14.796875 67.6875 6.59375 75 5.40625 75 
C 5.09375 75 4.703125 74.890625 4.703125 74.390625 
C 4.703125 74.1875 4.796875 74.09375 4.90625 73.890625 
C 9.703125 68.875 21.90625 56.171875 21.90625 25.046875 
C 21.90625 -6.1875 9.796875 -18.90625 4.90625 -23.90625 
C 4.796875 -24.109375 4.703125 -24.203125 4.703125 -24.40625 
C 4.703125 -24.90625 5.09375 -25 5.40625 -25 
C 6.5 -25 15 -17.609375 19.90625 -6.59375 
C 24.90625 4.515625 26.296875 15.328125 26.296875 24.9375 
z
" id="CMR17-41"/>
      </defs>
      <use transform="scale(0.996264)" xlink:href="#CMMI12-30"/>
      <use transform="translate(57.73418 36.153639)scale(0.697382)" xlink:href="#CMSY10-63"/>
      <use transform="translate(57.73418 -25.505809)scale(0.697382)" xlink:href="#CMMI12-105"/>
      <use transform="translate(112.473306 0)scale(0.996264)" xlink:href="#CMR17-40"/>
      <use transform="translate(147.754073 0)scale(0.996264)" xlink:href="#CMMI12-116"/>
      <use transform="translate(182.980404 0)scale(0.996264)" xlink:href="#CMR17-41"/>
     </g>
    </g>
   </g>
   <g id="line2d_71">
    <path clip-path="url(#p99ee0f0d41)" d="M 53.151002 156.176549 
L 134.086137 155.995134 
L 175.531182 155.693054 
L 204.073524 155.271545 
L 225.578029 154.742648 
L 243.172623 154.096665 
L 258.030281 153.335455 
L 270.932984 152.456043 
L 282.271722 151.464315 
L 292.437488 150.354832 
L 301.430281 149.159365 
L 309.641092 147.85619 
L 317.460912 146.392035 
L 324.498749 144.856334 
L 331.145596 143.186193 
L 337.401452 141.390661 
L 343.266317 139.483303 
L 348.740191 137.482356 
L 354.214065 135.242167 
L 359.296948 132.922821 
L 364.37983 130.347027 
L 369.071722 127.717284 
L 373.763614 124.820238 
L 378.064515 121.906637 
L 382.365416 118.72267 
L 386.666317 115.243248 
L 390.576227 111.800728 
L 394.486137 108.068987 
L 398.396047 104.023726 
L 402.305957 99.638606 
L 406.215866 94.885071 
L 409.734785 90.266368 
L 413.253704 85.299856 
L 416.772623 79.959341 
L 420.291542 74.216661 
L 423.810461 68.04153 
L 427.32938 61.401383 
L 430.848299 54.261202 
L 434.367218 46.583332 
L 437.886137 38.327283 
L 441.405056 29.449515 
L 443.751002 23.162625 
L 443.751002 23.162625 
" style="fill:none;stroke:#4c72b0;stroke-linecap:round;stroke-width:1.5;"/>
   </g>
   <g id="line2d_72">
    <path clip-path="url(#p99ee0f0d41)" d="M 53.151002 153.903449 
L 75.828479 153.103489 
L 95.76902 152.18404 
L 113.754605 151.135356 
L 130.176227 149.954997 
L 145.033884 148.668035 
L 158.718569 147.267684 
L 171.621272 145.731101 
L 184.132984 144.015117 
L 195.862713 142.181995 
L 207.201452 140.184103 
L 218.1492 138.028156 
L 228.705957 135.725484 
L 239.262713 133.194394 
L 249.81947 130.431176 
L 260.376227 127.439325 
L 271.714966 123.987132 
L 284.226677 119.933656 
L 302.212263 113.838422 
L 317.851903 108.615606 
L 326.453704 105.965682 
L 333.491542 104.023984 
L 339.356407 102.628832 
L 344.43929 101.633523 
L 349.131182 100.932816 
L 353.432083 100.510716 
L 357.341993 100.340957 
L 361.251903 100.406157 
L 364.770821 100.693349 
L 367.898749 101.152835 
L 371.026677 101.82589 
L 374.154605 102.734791 
L 376.891542 103.742462 
L 379.628479 104.966533 
L 382.365416 106.425634 
L 385.102353 108.139705 
L 387.83929 110.13009 
L 390.576227 112.419622 
L 393.313164 115.032718 
L 396.050101 117.995488 
L 398.787038 121.335837 
L 401.523975 125.083581 
L 404.260912 129.270573 
L 406.997848 133.93083 
L 409.734785 139.10067 
L 412.471722 144.818861 
L 415.208659 151.126774 
L 417.945596 158.068547 
L 420.682533 165.691264 
L 423.41947 174.045137 
L 426.156407 183.183701 
L 428.893344 193.16403 
L 431.630281 204.046951 
L 434.367218 215.897284 
L 437.104155 228.784088 
L 439.841092 242.780929 
L 442.578029 257.966158 
L 443.751002 264.858394 
L 443.751002 264.858394 
" style="fill:none;stroke:#dd8452;stroke-linecap:round;stroke-width:1.5;"/>
   </g>
   <g id="line2d_73">
    <path clip-path="url(#p99ee0f0d41)" d="M 53.151002 137.956796 
L 71.527578 135.372043 
L 90.686137 132.451363 
L 112.972623 128.822162 
L 167.711362 119.791083 
L 181.005056 117.900917 
L 191.952803 116.560551 
L 201.727578 115.585706 
L 210.32938 114.944683 
L 218.1492 114.573255 
L 225.578029 114.437538 
L 232.615866 114.531739 
L 239.262713 114.844401 
L 245.518569 115.358719 
L 251.383434 116.053055 
L 257.248299 116.970021 
L 262.722173 118.041693 
L 268.196047 119.335719 
L 273.669921 120.865341 
L 278.752803 122.507663 
L 283.835686 124.373296 
L 288.918569 126.470553 
L 294.001452 128.806441 
L 299.084335 131.386292 
L 304.167218 134.213343 
L 309.250101 137.288249 
L 314.723975 140.873932 
L 320.197848 144.736043 
L 326.062713 149.164399 
L 332.318569 154.188769 
L 339.356407 160.152767 
L 348.3492 168.099084 
L 362.424875 180.55735 
L 367.898749 185.091355 
L 372.19965 188.391419 
L 376.10956 191.11342 
L 379.628479 193.274265 
L 382.756407 194.914721 
L 385.493344 196.095217 
L 387.83929 196.890294 
L 390.185236 197.460427 
L 392.531182 197.780265 
L 394.486137 197.836026 
L 396.441092 197.682322 
L 398.396047 197.301365 
L 400.351002 196.674313 
L 402.305957 195.781225 
L 404.260912 194.600994 
L 406.215866 193.111298 
L 408.170821 191.288533 
L 410.125776 189.107751 
L 412.080731 186.542593 
L 414.035686 183.565219 
L 415.990641 180.146234 
L 417.945596 176.25461 
L 419.900551 171.85761 
L 421.855506 166.920699 
L 423.810461 161.407457 
L 425.765416 155.279492 
L 427.720371 148.496336 
L 429.675326 141.015352 
L 432.021272 131.053627 
L 434.367218 119.940047 
L 436.713164 107.587199 
L 439.05911 93.902124 
L 441.405056 78.786005 
L 443.751002 62.133825 
L 443.751002 62.133825 
" style="fill:none;stroke:#55a868;stroke-linecap:round;stroke-width:1.5;"/>
   </g>
   <g id="line2d_74">
    <path clip-path="url(#p99ee0f0d41)" d="M 53.151002 122.037753 
L 63.707758 122.21879 
L 73.873524 122.617275 
L 83.648299 123.228589 
L 93.032083 124.044075 
L 102.024875 125.051245 
L 110.626677 126.234094 
L 119.228479 127.642589 
L 127.43929 129.206232 
L 135.650101 130.990669 
L 143.860912 133.000523 
L 152.071722 135.237996 
L 160.282533 137.70237 
L 168.884335 140.52285 
L 177.486137 143.578103 
L 186.47893 147.006525 
L 196.253704 150.975331 
L 207.201452 155.665528 
L 222.05911 162.2942 
L 242.390641 171.349072 
L 251.774425 175.271772 
L 259.203254 178.147017 
L 265.850101 180.483833 
L 271.714966 182.314939 
L 277.188839 183.791597 
L 282.271722 184.93123 
L 286.963614 185.76023 
L 291.264515 186.312251 
L 295.565416 186.647371 
L 299.866317 186.748172 
L 303.776227 186.622083 
L 307.686137 186.275777 
L 311.596047 185.697407 
L 315.505957 184.87593 
L 319.024875 183.920461 
L 322.543794 182.753596 
L 326.062713 181.370028 
L 329.581632 179.765726 
L 333.100551 177.938169 
L 337.010461 175.644868 
L 340.920371 173.07707 
L 344.830281 170.240483 
L 349.131182 166.821915 
L 353.432083 163.110822 
L 358.123975 158.76319 
L 363.597848 153.36465 
L 371.026677 145.67409 
L 380.801452 135.556988 
L 385.102353 131.404336 
L 388.621272 128.286519 
L 391.7492 125.809451 
L 394.486137 123.931764 
L 396.832083 122.582863 
L 399.178029 121.516112 
L 401.132984 120.873637 
L 403.087939 120.4838 
L 404.651903 120.373086 
L 406.215866 120.458059 
L 407.77983 120.755206 
L 409.343794 121.281903 
L 410.907758 122.056457 
L 412.471722 123.098146 
L 414.035686 124.427259 
L 415.59965 126.065145 
L 417.163614 128.034253 
L 418.727578 130.358187 
L 420.291542 133.06175 
L 421.855506 136.170998 
L 423.41947 139.713291 
L 424.983434 143.717356 
L 426.938389 149.417862 
L 428.893344 155.949237 
L 430.848299 163.377428 
L 432.803254 171.772391 
L 434.758209 181.208297 
L 436.713164 191.763756 
L 438.668119 203.522048 
L 440.623074 216.571361 
L 442.578029 231.005051 
L 443.751002 240.370628 
L 443.751002 240.370628 
" style="fill:none;stroke:#c44e52;stroke-linecap:round;stroke-width:1.5;"/>
   </g>
   <g id="line2d_75">
    <path clip-path="url(#p99ee0f0d41)" d="M 53.151002 159.826229 
L 82.866317 167.925 
L 96.160011 171.312491 
L 107.107758 173.883851 
L 116.882533 175.953947 
L 125.484335 177.557308 
L 133.695146 178.862576 
L 141.123975 179.82705 
L 148.161812 180.528985 
L 155.19965 181.004847 
L 161.846497 181.229568 
L 168.102353 181.227807 
L 174.358209 181.00729 
L 180.614065 180.557493 
L 186.47893 179.919503 
L 192.343794 179.065993 
L 198.208659 177.992566 
L 204.073524 176.696741 
L 209.938389 175.178239 
L 215.803254 173.439292 
L 222.05911 171.347201 
L 228.314966 169.020228 
L 234.961812 166.306991 
L 241.99965 163.189963 
L 249.81947 159.476703 
L 259.203254 154.763594 
L 285.790641 141.23878 
L 292.437488 138.213 
L 297.911362 135.958693 
L 302.994245 134.111125 
L 307.295146 132.769025 
L 311.596047 131.661289 
L 315.505957 130.882991 
L 319.415866 130.345904 
L 322.934785 130.087186 
L 326.453704 130.057677 
L 329.972623 130.27246 
L 333.100551 130.679901 
L 336.228479 131.300607 
L 339.356407 132.142657 
L 342.484335 133.21291 
L 345.612263 134.516763 
L 348.740191 136.057873 
L 351.868119 137.83786 
L 354.996047 139.855959 
L 358.514966 142.406446 
L 362.033884 145.243928 
L 365.552803 148.352674 
L 369.462713 152.097304 
L 373.763614 156.519855 
L 379.237488 162.488611 
L 392.140191 176.73182 
L 395.65911 180.214838 
L 398.396047 182.651194 
L 400.741993 184.488998 
L 403.087939 186.041324 
L 405.042894 187.076016 
L 406.997848 187.83722 
L 408.561812 188.223327 
L 410.125776 188.388407 
L 411.68974 188.309889 
L 413.253704 187.963824 
L 414.817668 187.324812 
L 416.381632 186.365933 
L 417.945596 185.058676 
L 419.50956 183.372865 
L 421.073524 181.276576 
L 422.637488 178.736058 
L 424.201452 175.715645 
L 425.765416 172.177672 
L 427.32938 168.082377 
L 428.893344 163.387807 
L 430.457308 158.049717 
L 432.021272 152.021467 
L 433.585236 145.25391 
L 435.540191 135.675697 
L 437.495146 124.754089 
L 439.450101 112.374882 
L 441.405056 98.416422 
L 443.360011 82.749185 
L 443.751002 79.398707 
L 443.751002 79.398707 
" style="fill:none;stroke:#8172b3;stroke-linecap:round;stroke-width:1.5;"/>
   </g>
   <g id="line2d_76">
    <path clip-path="url(#p99ee0f0d41)" d="M 53.151002 172.020741 
L 62.143794 170.234415 
L 71.136587 168.220929 
L 80.520371 165.894909 
L 90.686137 163.143487 
L 102.024875 159.83798 
L 116.100551 155.489226 
L 148.943794 145.239978 
L 158.718569 142.472412 
L 167.320371 140.267369 
L 174.7492 138.587342 
L 181.787038 137.227019 
L 188.042894 136.235668 
L 194.298749 135.474467 
L 200.163614 134.990486 
L 205.637488 134.755513 
L 211.111362 134.743569 
L 216.585236 134.966614 
L 221.668119 135.393053 
L 226.751002 136.037372 
L 231.833884 136.904174 
L 236.916767 137.995905 
L 241.99965 139.312558 
L 247.082533 140.851363 
L 252.556407 142.750205 
L 258.030281 144.888148 
L 263.895146 147.425009 
L 270.151002 150.381068 
L 277.188839 153.961822 
L 286.181632 158.807976 
L 304.167218 168.573639 
L 310.423074 171.673218 
L 315.505957 173.952144 
L 320.197848 175.803908 
L 324.107758 177.122356 
L 328.017668 178.202571 
L 331.536587 178.944601 
L 335.055506 179.444584 
L 338.183434 179.667552 
L 341.311362 179.666209 
L 344.43929 179.426194 
L 347.176227 179.009976 
L 349.913164 178.392958 
L 352.650101 177.568266 
L 355.387038 176.530294 
L 358.123975 175.274935 
L 360.860912 173.799842 
L 363.988839 171.844668 
L 367.116767 169.605507 
L 370.244695 167.090381 
L 373.763614 163.947986 
L 377.282533 160.502227 
L 381.192443 156.367387 
L 386.275326 150.633812 
L 398.005056 137.206694 
L 401.132984 134.014632 
L 403.869921 131.533451 
L 406.215866 129.716427 
L 408.170821 128.47365 
L 410.125776 127.525017 
L 411.68974 127.010441 
L 413.253704 126.742029 
L 414.817668 126.748486 
L 415.990641 126.952071 
L 417.163614 127.341145 
L 418.336587 127.930056 
L 419.50956 128.733847 
L 420.682533 129.768287 
L 421.855506 131.049893 
L 423.028479 132.595961 
L 424.592443 135.100185 
L 426.156407 138.152095 
L 427.720371 141.79972 
L 429.284335 146.09401 
L 430.848299 151.088978 
L 432.412263 156.841852 
L 433.976227 163.41323 
L 435.540191 170.867248 
L 437.104155 179.271742 
L 438.668119 188.698435 
L 440.623074 202.035132 
L 442.578029 217.245193 
L 443.751002 227.340049 
L 443.751002 227.340049 
" style="fill:none;stroke:#937860;stroke-linecap:round;stroke-width:1.5;"/>
   </g>
   <g id="line2d_77">
    <path clip-path="url(#p99ee0f0d41)" d="M 53.151002 137.682847 
L 60.970821 137.727167 
L 68.39965 137.990225 
L 75.828479 138.475575 
L 83.257308 139.187689 
L 90.686137 140.128324 
L 98.114966 141.296196 
L 105.543794 142.686639 
L 113.363614 144.381473 
L 121.574425 146.400484 
L 130.176227 148.753797 
L 139.560011 151.558718 
L 150.507758 155.070454 
L 170.057308 161.633215 
L 182.960011 165.842399 
L 191.952803 168.548074 
L 199.381632 170.559838 
L 206.028479 172.137165 
L 212.284335 173.390307 
L 218.1492 174.32991 
L 223.623074 174.976707 
L 228.705957 175.359447 
L 233.788839 175.516474 
L 238.480731 175.449083 
L 243.172623 175.168216 
L 247.864515 174.666314 
L 252.556407 173.9379 
L 257.248299 172.979892 
L 261.940191 171.791932 
L 266.632083 170.376725 
L 271.323975 168.740371 
L 276.406857 166.729614 
L 281.880731 164.307624 
L 287.745596 161.451361 
L 294.392443 157.948225 
L 302.994245 153.139784 
L 317.460912 145.032025 
L 323.325776 142.029 
L 328.017668 139.866272 
L 332.318569 138.132986 
L 336.228479 136.810559 
L 339.747398 135.86155 
L 342.875326 135.234767 
L 346.003254 134.833401 
L 349.131182 134.677296 
L 351.868119 134.75671 
L 354.605056 135.050015 
L 357.341993 135.567806 
L 360.07893 136.3193 
L 362.815866 137.312033 
L 365.552803 138.551518 
L 368.28974 140.040864 
L 371.026677 141.780359 
L 373.763614 143.767004 
L 376.891542 146.331167 
L 380.01947 149.191902 
L 383.538389 152.732115 
L 387.448299 157.00306 
L 392.531182 162.92297 
L 401.132984 173.013925 
L 404.260912 176.344742 
L 406.997848 178.932035 
L 409.343794 180.812811 
L 411.298749 182.078131 
L 412.862713 182.853706 
L 414.426677 183.386077 
L 415.990641 183.64251 
L 417.163614 183.632694 
L 418.336587 183.432166 
L 419.50956 183.024308 
L 420.682533 182.391622 
L 421.855506 181.515699 
L 423.028479 180.377174 
L 424.201452 178.955693 
L 425.374425 177.229872 
L 426.547398 175.177257 
L 428.111362 171.891186 
L 429.675326 167.923023 
L 431.23929 163.209825 
L 432.803254 157.684597 
L 434.367218 151.276081 
L 435.931182 143.908533 
L 437.495146 135.501498 
L 439.05911 125.969564 
L 440.623074 115.222118 
L 442.187038 103.163078 
L 443.751002 89.690625 
L 443.751002 89.690625 
" style="fill:none;stroke:#da8bc3;stroke-linecap:round;stroke-width:1.5;"/>
   </g>
   <g id="line2d_78">
    <path clip-path="url(#p99ee0f0d41)" d="M 53.151002 169.292127 
L 61.752803 170.550149 
L 69.963614 171.530509 
L 77.783434 172.238229 
L 85.212263 172.685887 
L 92.250101 172.892369 
L 99.287939 172.874459 
L 105.934785 172.642425 
L 112.581632 172.195064 
L 119.228479 171.528691 
L 125.875326 170.642455 
L 132.522173 169.538641 
L 139.560011 168.139167 
L 146.597848 166.513576 
L 154.026677 164.570516 
L 162.237488 162.182166 
L 171.230281 159.327749 
L 182.960011 155.349133 
L 206.41947 147.320305 
L 214.630281 144.782175 
L 221.668119 142.840159 
L 227.923975 141.34968 
L 233.397848 140.264315 
L 238.480731 139.466153 
L 243.563614 138.892795 
L 248.255506 138.581055 
L 252.947398 138.493342 
L 257.63929 138.642537 
L 261.940191 138.996491 
L 266.241092 139.564558 
L 270.541993 140.350634 
L 274.842894 141.356073 
L 279.143794 142.579373 
L 283.835686 144.156763 
L 288.527578 145.976963 
L 293.610461 148.203861 
L 299.084335 150.866471 
L 304.9492 153.971087 
L 312.76902 158.388522 
L 328.017668 167.073679 
L 333.100551 169.690606 
L 337.401452 171.677107 
L 341.311362 173.245606 
L 344.830281 174.422295 
L 347.958209 175.251248 
L 351.086137 175.84989 
L 353.823074 176.165535 
L 356.560011 176.270383 
L 359.296948 176.149588 
L 362.033884 175.789511 
L 364.770821 175.178065 
L 367.507758 174.305118 
L 370.244695 173.162935 
L 372.981632 171.746676 
L 375.718569 170.054951 
L 378.455506 168.090443 
L 381.192443 165.860589 
L 384.320371 163.004173 
L 387.448299 159.847932 
L 390.967218 155.992001 
L 395.65911 150.491285 
L 404.651903 139.844055 
L 407.77983 136.552272 
L 410.125776 134.394991 
L 412.080731 132.873715 
L 413.644695 131.879827 
L 415.208659 131.12004 
L 416.772623 130.630249 
L 417.945596 130.463306 
L 419.118569 130.487469 
L 420.291542 130.721231 
L 421.464515 131.184137 
L 422.637488 131.896835 
L 423.810461 132.881116 
L 424.983434 134.15997 
L 426.156407 135.757633 
L 427.32938 137.699641 
L 428.502353 140.012883 
L 429.675326 142.725659 
L 431.23929 147.015864 
L 432.803254 152.144272 
L 434.367218 158.190806 
L 435.931182 165.240767 
L 437.495146 173.385123 
L 439.05911 182.72082 
L 440.623074 193.351097 
L 442.187038 205.385817 
L 443.751002 218.941825 
L 443.751002 218.941825 
" style="fill:none;stroke:#8c8c8c;stroke-linecap:round;stroke-width:1.5;"/>
   </g>
   <g id="patch_3">
    <path d="M 53.151002 289.274625 
L 53.151002 23.162625 
" style="fill:none;stroke:#262626;stroke-linecap:square;stroke-linejoin:miter;stroke-width:1.25;"/>
   </g>
   <g id="patch_4">
    <path d="M 443.751002 289.274625 
L 443.751002 23.162625 
" style="fill:none;stroke:#262626;stroke-linecap:square;stroke-linejoin:miter;stroke-width:1.25;"/>
   </g>
   <g id="patch_5">
    <path d="M 53.151002 289.274625 
L 443.751002 289.274625 
" style="fill:none;stroke:#262626;stroke-linecap:square;stroke-linejoin:miter;stroke-width:1.25;"/>
   </g>
   <g id="patch_6">
    <path d="M 53.151002 23.162625 
L 443.751002 23.162625 
" style="fill:none;stroke:#262626;stroke-linecap:square;stroke-linejoin:miter;stroke-width:1.25;"/>
   </g>
   <g id="text_14">
    <!-- Orthogonal functions -->
    <g style="fill:#262626;" transform="translate(183.443939 17.162625)scale(0.144 -0.144)">
     <defs>
      <path d="M 67.296875 33.84375 
C 67.296875 54.5 52.59375 70 36 70 
C 19 70 4.59375 54.296875 4.59375 33.84375 
C 4.59375 13.390625 19.203125 -2 35.90625 -2 
C 53 -2 67.296875 13.6875 67.296875 33.84375 
z
M 36 -0.203125 
C 24.59375 -0.203125 12.203125 11.28125 12.203125 35.15625 
C 12.203125 58.921875 25.796875 68.1875 35.90625 68.1875 
C 46.5 68.1875 59.703125 58.625 59.703125 35.15625 
C 59.703125 10.875 47 -0.203125 36 -0.203125 
z
" id="CMR17-79"/>
      <path d="M 15 23.703125 
C 15 33.34375 19.09375 42.390625 26.59375 42.390625 
C 27.296875 42.390625 28 42.296875 28.703125 41.984375 
C 28.703125 41.984375 26.5 41.28125 26.5 38.671875 
C 26.5 36.265625 28.40625 35.265625 29.90625 35.265625 
C 31.09375 35.265625 33.296875 35.96875 33.296875 38.78125 
C 33.296875 41.984375 30.09375 44 26.703125 44 
C 19.09375 44 15.796875 36.5625 14.796875 33.046875 
L 14.703125 33.046875 
L 14.703125 44 
L 3.09375 42.890625 
L 3.09375 40.28125 
C 9 40.28125 9.90625 39.6875 9.90625 34.859375 
L 9.90625 6.921875 
C 9.90625 3.09375 9.5 2.59375 3.09375 2.59375 
L 3.09375 0 
C 5.5 0.1875 10.09375 0.1875 12.703125 0.1875 
C 15.59375 0.1875 20.703125 0.1875 23.40625 0 
L 23.40625 2.59375 
C 16.203125 2.59375 15 2.59375 15 7.109375 
z
" id="CMR17-114"/>
      <path d="M 15.09375 40.390625 
L 29.09375 40.390625 
L 29.09375 43 
L 15.09375 43 
L 15.09375 62 
L 13.296875 62 
C 13.09375 51.4375 9.59375 42.1875 1.09375 41.984375 
L 1.09375 40.390625 
L 9.796875 40.390625 
L 9.796875 12.15625 
C 9.796875 10.234375 9.796875 -1 21.40625 -1 
C 27.296875 -1 30.703125 4.8125 30.703125 12.25 
L 30.703125 17.984375 
L 28.90625 17.984375 
L 28.90625 12.34375 
C 28.90625 5.421875 26.203125 0.796875 22 0.796875 
C 19.09375 0.796875 15.09375 2.796875 15.09375 11.953125 
z
" id="CMR17-116"/>
      <path d="M 41.5 30.53125 
C 41.5 35.65625 40.5 44 28.703125 44 
C 20.5 44 16.5 37.375 15.296875 34.046875 
L 15.203125 34.046875 
L 15.203125 69 
L 3.296875 67.890625 
L 3.296875 65.296875 
C 9.203125 65.296875 10.09375 64.703125 10.09375 60.046875 
L 10.09375 6.921875 
C 10.09375 3.09375 9.703125 2.59375 3.296875 2.59375 
L 3.296875 0 
C 5.703125 0.1875 10.09375 0.1875 12.703125 0.1875 
C 15.296875 0.1875 19.796875 0.1875 22.203125 0 
L 22.203125 2.59375 
C 15.796875 2.59375 15.40625 3 15.40625 6.921875 
L 15.40625 26.21875 
C 15.40625 35.453125 21 42.390625 28 42.390625 
C 35.40625 42.390625 36.203125 35.765625 36.203125 30.9375 
L 36.203125 6.921875 
C 36.203125 3.09375 35.796875 2.59375 29.40625 2.59375 
L 29.40625 0 
C 31.796875 0.1875 36.203125 0.1875 38.796875 0.1875 
C 41.40625 0.1875 45.90625 0.1875 48.296875 0 
L 48.296875 2.59375 
C 41.90625 2.59375 41.5 3 41.5 6.921875 
z
" id="CMR17-104"/>
      <path d="M 43.09375 21.1875 
C 43.09375 34 33.796875 44 22.90625 44 
C 12 44 2.703125 34 2.703125 21.1875 
C 2.703125 8.59375 12 -1 22.90625 -1 
C 33.796875 -1 43.09375 8.59375 43.09375 21.1875 
z
M 22.90625 0.796875 
C 18.203125 0.796875 14.203125 3.59375 11.90625 7.5 
C 9.40625 12 9.09375 17.59375 9.09375 22 
C 9.09375 26.1875 9.296875 31.390625 11.90625 35.890625 
C 13.90625 39.1875 17.796875 42.390625 22.90625 42.390625 
C 27.40625 42.390625 31.203125 39.890625 33.59375 36.390625 
C 36.703125 31.6875 36.703125 25.09375 36.703125 22 
C 36.703125 18.09375 36.5 12.09375 33.796875 7.296875 
C 31 2.6875 26.703125 0.796875 22.90625 0.796875 
z
" id="CMR17-111"/>
      <path d="M 11.09375 18.203125 
C 13 16.6875 16.296875 15 20.296875 15 
C 28.203125 15 35 21.234375 35 29.609375 
C 35 32.234375 34.203125 36.265625 31.203125 39.390625 
C 34 42.390625 38.09375 43.390625 40.40625 43.390625 
C 40.796875 43.390625 41.40625 43.390625 41.90625 43.09375 
C 41.5 42.984375 40.59375 42.59375 40.59375 40.984375 
C 40.59375 39.6875 41.5 38.796875 42.796875 38.796875 
C 44.296875 38.796875 45.09375 39.796875 45.09375 41.09375 
C 45.09375 42.984375 43.59375 45 40.40625 45 
C 36.40625 45 32.90625 43.09375 30.09375 40.484375 
C 27.09375 43.1875 23.5 44.1875 20.296875 44.1875 
C 12.40625 44.1875 5.59375 37.984375 5.59375 29.609375 
C 5.59375 23.859375 8.90625 20.21875 9.90625 19.21875 
C 6.90625 15.6875 6.90625 11.59375 6.90625 11.09375 
C 6.90625 8.5 7.90625 4.6875 11.296875 2.59375 
C 6.09375 1.28125 2 -2.875 2 -8.078125 
C 2 -15.5625 11.5 -21 22.90625 -21 
C 33.90625 -21 43.796875 -15.765625 43.796875 -7.96875 
C 43.796875 6 29 6 21.296875 6 
C 19 6 14.90625 6 14.40625 6.09375 
C 11.296875 6.59375 9.203125 9.390625 9.203125 12.890625 
C 9.203125 13.796875 9.203125 16 11.09375 18.203125 
z
M 20.296875 16.6875 
C 11.5 16.6875 11.5 27.59375 11.5 29.609375 
C 11.5 31.625 11.5 42.484375 20.296875 42.484375 
C 29.09375 42.484375 29.09375 31.625 29.09375 29.609375 
C 29.09375 27.59375 29.09375 16.6875 20.296875 16.6875 
z
M 22.90625 -19.3125 
C 12.90625 -19.3125 6 -13.796875 6 -8.078125 
C 6 -4.859375 7.703125 -1.84375 9.90625 -0.171875 
C 12.40625 1.59375 13.40625 1.59375 20.203125 1.59375 
C 28.40625 1.59375 39.796875 1.59375 39.796875 -8.078125 
C 39.796875 -13.796875 32.90625 -19.3125 22.90625 -19.3125 
z
" id="CMR17-103"/>
      <path d="M 41.5 30.53125 
C 41.5 35.65625 40.5 44 28.703125 44 
C 20.796875 44 16.703125 37.875 15.203125 33.84375 
L 15.09375 33.84375 
L 15.09375 44 
L 3.296875 42.890625 
L 3.296875 40.28125 
C 9.203125 40.28125 10.09375 39.6875 10.09375 34.859375 
L 10.09375 6.921875 
C 10.09375 3.09375 9.703125 2.59375 3.296875 2.59375 
L 3.296875 0 
C 5.703125 0.1875 10.09375 0.1875 12.703125 0.1875 
C 15.296875 0.1875 19.796875 0.1875 22.203125 0 
L 22.203125 2.59375 
C 15.796875 2.59375 15.40625 3 15.40625 6.921875 
L 15.40625 26.21875 
C 15.40625 35.453125 21 42.390625 28 42.390625 
C 35.40625 42.390625 36.203125 35.765625 36.203125 30.9375 
L 36.203125 6.921875 
C 36.203125 3.09375 35.796875 2.59375 29.40625 2.59375 
L 29.40625 0 
C 31.796875 0.1875 36.203125 0.1875 38.796875 0.1875 
C 41.40625 0.1875 45.90625 0.1875 48.296875 0 
L 48.296875 2.59375 
C 41.90625 2.59375 41.5 3 41.5 6.921875 
z
" id="CMR17-110"/>
      <path d="M 36 25.875 
C 36 32 36 35.546875 31.796875 39.59375 
C 28.09375 42.984375 23.796875 44 20.40625 44 
C 12.5 44 6.796875 37.625 6.796875 30.890625 
C 6.796875 27.1875 9.796875 27 10.40625 27 
C 11.703125 27 14 27.796875 14 30.59375 
C 14 33.09375 12.09375 34.1875 10.40625 34.1875 
C 10 34.1875 9.5 34.09375 9.203125 34 
C 11.296875 40.53125 16.703125 42.390625 20.203125 42.390625 
C 25.203125 42.390625 30.703125 37.828125 30.703125 29.296875 
L 30.703125 25.5 
C 24.796875 25.296875 17.703125 24.5 12.09375 21.453125 
C 5.796875 17.921875 4 12.84375 4 9 
C 4 1.203125 13 -1 18.296875 -1 
C 23.796875 -1 28.90625 2.109375 31.09375 7.890625 
C 31.296875 3.421875 34.09375 -0.609375 38.5 -0.609375 
C 40.59375 -0.609375 45.90625 0.796875 45.90625 8.796875 
L 45.90625 14.46875 
L 44.09375 14.46875 
L 44.09375 8.703125 
C 44.09375 2.515625 41.40625 1.703125 40.09375 1.703125 
C 36 1.703125 36 6.96875 36 11.4375 
z
M 30.703125 13.859375 
C 30.703125 5.046875 24.5 0.59375 19 0.59375 
C 14 0.59375 10.09375 4.34375 10.09375 9 
C 10.09375 12.046875 11.40625 17.40625 17.203125 20.65625 
C 22 23.390625 27.5 23.796875 30.703125 24 
z
" id="CMR17-97"/>
      <path d="M 15.296875 69 
L 3.40625 67.890625 
L 3.40625 65.296875 
C 9.296875 65.296875 10.203125 64.703125 10.203125 59.921875 
L 10.203125 6.859375 
C 10.203125 3.09375 9.796875 2.59375 3.40625 2.59375 
L 3.40625 0 
C 5.796875 0.1875 10.203125 0.1875 12.703125 0.1875 
C 15.296875 0.1875 19.703125 0.1875 22.09375 0 
L 22.09375 2.59375 
C 15.703125 2.59375 15.296875 2.984375 15.296875 6.859375 
z
" id="CMR17-108"/>
      <path d="M 15.296875 40.390625 
L 26.703125 40.390625 
L 26.703125 43 
L 15.09375 43 
L 15.09375 55.296875 
C 15.09375 63.6875 19.296875 68.390625 23.59375 68.390625 
C 24.90625 68.390625 26.40625 68.171875 27.40625 67.796875 
C 26.59375 67.59375 24.5 66.890625 24.5 64.390625 
C 24.5 61.796875 26.5 61 27.90625 61 
C 29.296875 61 31.296875 61.796875 31.296875 64.390625 
C 31.296875 68.015625 27.703125 70 23.703125 70 
C 18 70 10.203125 65.796875 10.203125 55.09375 
L 10.203125 43 
L 2.203125 43 
L 2.203125 40.390625 
L 10.203125 40.390625 
L 10.203125 6.890625 
C 10.203125 3.09375 9.796875 2.59375 3.40625 2.59375 
L 3.40625 0 
C 5.796875 0.1875 10.40625 0.1875 13 0.1875 
C 15.90625 0.1875 21 0.1875 23.703125 0 
L 23.703125 2.59375 
C 16.5 2.59375 15.296875 2.59375 15.296875 7.09375 
z
" id="CMR17-102"/>
      <path d="M 29.40625 42.890625 
L 29.40625 40.296875 
C 35.296875 40.296875 36.203125 39.6875 36.203125 34.828125 
L 36.203125 16.453125 
C 36.203125 7.96875 31.703125 0.59375 24.296875 0.59375 
C 16.09375 0.59375 15.40625 5.546875 15.40625 10.796875 
L 15.40625 44 
L 3.296875 42.890625 
L 3.296875 40.296875 
C 7.296875 40.296875 10 40.296875 10.09375 36.25 
L 10.09375 16.859375 
C 10.09375 10.09375 10.09375 5.75 12.703125 2.921875 
C 14 1.609375 16.5 -1 23.703125 -1 
C 32.203125 -1 35.5 6.25 36.296875 8.375 
L 36.40625 8.375 
L 36.40625 -1 
L 48.296875 -0.203125 
L 48.296875 2.40625 
C 42.40625 2.40625 41.5 3.015625 41.5 7.859375 
L 41.5 44 
z
" id="CMR17-117"/>
      <path d="M 34.90625 35 
C 33 35 30.203125 35 30.203125 31.484375 
C 30.203125 28.6875 32.5 27.890625 33.796875 27.890625 
C 34.5 27.890625 37.40625 28.1875 37.40625 31.6875 
C 37.40625 38.6875 30.59375 44 22.90625 44 
C 12.296875 44 3.296875 34.390625 3.296875 21.546875 
C 3.296875 8.140625 12.703125 -1 22.90625 -1 
C 35.296875 -1 38.40625 10.5625 38.40625 11.671875 
C 38.40625 12.078125 38.296875 12.375 37.59375 12.375 
C 36.90625 12.375 36.796875 12.28125 36.40625 10.96875 
C 33.796875 2.8125 28.09375 0.796875 23.796875 0.796875 
C 17.40625 0.796875 9.703125 6.734375 9.703125 21.640625 
C 9.703125 36.84375 17.09375 42.1875 23 42.1875 
C 26.90625 42.1875 32.703125 40.34375 34.90625 35 
z
" id="CMR17-99"/>
      <path d="M 15.5 61.890625 
C 15.5 64.09375 13.703125 66 11.40625 66 
C 9.203125 66 7.296875 64.1875 7.296875 61.890625 
C 7.296875 59.6875 9.09375 57.796875 11.40625 57.796875 
C 13.59375 57.796875 15.5 59.59375 15.5 61.890625 
z
M 3.796875 42.890625 
L 3.796875 40.296875 
C 9.40625 40.296875 10.203125 39.6875 10.203125 34.859375 
L 10.203125 6.921875 
C 10.203125 3.09375 9.796875 2.59375 3.40625 2.59375 
L 3.40625 0 
C 5.796875 0.1875 10.09375 0.1875 12.59375 0.1875 
C 15 0.1875 19.09375 0.1875 21.40625 0 
L 21.40625 2.59375 
C 15.5 2.59375 15.296875 3.203125 15.296875 6.8125 
L 15.296875 44 
z
" id="CMR17-105"/>
      <path d="M 30.90625 42 
C 30.90625 43.796875 30.796875 43.890625 30.203125 43.890625 
C 29.796875 43.890625 29.703125 43.796875 28.5 42.296875 
C 28.203125 41.890625 27.296875 40.890625 27 40.5 
C 23.796875 43.890625 19.296875 44 17.59375 44 
C 6.5 44 2.5 38.1875 2.5 32.390625 
C 2.5 23.390625 12.703125 21.296875 15.59375 20.6875 
C 21.90625 19.390625 24.09375 19 26.203125 17.1875 
C 27.5 16 29.703125 13.796875 29.703125 10.1875 
C 29.703125 6 27.296875 0.59375 18.09375 0.59375 
C 9.40625 0.59375 6.296875 7.1875 4.5 16 
C 4.203125 17.390625 4.203125 17.5 3.40625 17.5 
C 2.59375 17.5 2.5 17.390625 2.5 15.390625 
L 2.5 1 
C 2.5 -0.8125 2.59375 -0.90625 3.203125 -0.90625 
C 3.703125 -0.90625 3.796875 -0.8125 4.296875 0 
C 4.90625 0.890625 6.40625 3.296875 7 4.296875 
C 9 1.59375 12.5 -1 18.09375 -1 
C 28 -1 33.296875 4.390625 33.296875 12.1875 
C 33.296875 17.296875 30.59375 20 29.296875 21.1875 
C 26.296875 24.296875 22.796875 25 18.59375 25.796875 
C 13.09375 27 6.09375 28.390625 6.09375 34.5 
C 6.09375 37.09375 7.5 42.59375 17.59375 42.59375 
C 28.296875 42.59375 28.90625 32.59375 29.09375 29.390625 
C 29.203125 28.890625 29.703125 28.796875 30 28.796875 
C 30.90625 28.796875 30.90625 29.09375 30.90625 30.796875 
z
" id="CMR17-115"/>
     </defs>
     <use transform="scale(0.996264)" xlink:href="#CMR17-79"/>
     <use transform="translate(71.714788 0)scale(0.996264)" xlink:href="#CMR17-114"/>
     <use transform="translate(106.995556 0)scale(0.996264)" xlink:href="#CMR17-116"/>
     <use transform="translate(142.276324 0)scale(0.996264)" xlink:href="#CMR17-104"/>
     <use transform="translate(193.171694 0)scale(0.996264)" xlink:href="#CMR17-111"/>
     <use transform="translate(238.862171 0)scale(0.996264)" xlink:href="#CMR17-103"/>
     <use transform="translate(284.552648 0)scale(0.996264)" xlink:href="#CMR17-111"/>
     <use transform="translate(330.243125 0)scale(0.996264)" xlink:href="#CMR17-110"/>
     <use transform="translate(381.138495 0)scale(0.996264)" xlink:href="#CMR17-97"/>
     <use transform="translate(426.828972 0)scale(0.996264)" xlink:href="#CMR17-108"/>
     <use transform="translate(481.775997 0)scale(0.996264)" xlink:href="#CMR17-102"/>
     <use transform="translate(509.249509 0)scale(0.996264)" xlink:href="#CMR17-117"/>
     <use transform="translate(560.144879 0)scale(0.996264)" xlink:href="#CMR17-110"/>
     <use transform="translate(611.040249 0)scale(0.996264)" xlink:href="#CMR17-99"/>
     <use transform="translate(651.525909 0)scale(0.996264)" xlink:href="#CMR17-116"/>
     <use transform="translate(686.806677 0)scale(0.996264)" xlink:href="#CMR17-105"/>
     <use transform="translate(711.677736 0)scale(0.996264)" xlink:href="#CMR17-111"/>
     <use transform="translate(757.368213 0)scale(0.996264)" xlink:href="#CMR17-110"/>
     <use transform="translate(808.263582 0)scale(0.996264)" xlink:href="#CMR17-115"/>
    </g>
   </g>
   <g id="legend_1">
    <g id="line2d_79">
     <path d="M 66.351002 230.147313 
L 92.751002 230.147313 
" style="fill:none;stroke:#4c72b0;stroke-linecap:round;stroke-width:1.5;"/>
    </g>
    <g id="line2d_80"/>
    <g id="text_15">
     <!-- $i = 1$ -->
     <g style="fill:#262626;" transform="translate(103.311002 234.767313)scale(0.132 -0.132)">
      <defs>
       <path d="M 64.296875 32 
C 65.796875 32 67.296875 32 67.296875 33.6875 
C 67.296875 35.5 65.59375 35.5 63.90625 35.5 
L 8 35.5 
C 6.296875 35.5 4.59375 35.5 4.59375 33.6875 
C 4.59375 32 6.09375 32 7.59375 32 
z
M 63.90625 14.484375 
C 65.59375 14.484375 67.296875 14.484375 67.296875 16.296875 
C 67.296875 18 65.796875 18 64.296875 18 
L 7.59375 18 
C 6.09375 18 4.59375 18 4.59375 16.296875 
C 4.59375 14.484375 6.296875 14.484375 8 14.484375 
z
" id="CMR17-61"/>
      </defs>
      <use transform="scale(0.996264)" xlink:href="#CMMI12-105"/>
      <use transform="translate(60.952611 0)scale(0.996264)" xlink:href="#CMR17-61"/>
      <use transform="translate(160.341408 0)scale(0.996264)" xlink:href="#CMR17-49"/>
     </g>
    </g>
    <g id="line2d_81">
     <path d="M 66.351002 249.522438 
L 92.751002 249.522438 
" style="fill:none;stroke:#dd8452;stroke-linecap:round;stroke-width:1.5;"/>
    </g>
    <g id="line2d_82"/>
    <g id="text_16">
     <!-- $i = 2$ -->
     <g style="fill:#262626;" transform="translate(103.311002 254.142438)scale(0.132 -0.132)">
      <use transform="scale(0.996264)" xlink:href="#CMMI12-105"/>
      <use transform="translate(60.952611 0)scale(0.996264)" xlink:href="#CMR17-61"/>
      <use transform="translate(160.341408 0)scale(0.996264)" xlink:href="#CMR17-50"/>
     </g>
    </g>
    <g id="line2d_83">
     <path d="M 66.351002 268.897563 
L 92.751002 268.897563 
" style="fill:none;stroke:#55a868;stroke-linecap:round;stroke-width:1.5;"/>
    </g>
    <g id="line2d_84"/>
    <g id="text_17">
     <!-- $i = 3$ -->
     <g style="fill:#262626;" transform="translate(103.311002 273.517563)scale(0.132 -0.132)">
      <use transform="scale(0.996264)" xlink:href="#CMMI12-105"/>
      <use transform="translate(60.952611 0)scale(0.996264)" xlink:href="#CMR17-61"/>
      <use transform="translate(160.341408 0)scale(0.996264)" xlink:href="#CMR17-51"/>
     </g>
    </g>
    <g id="line2d_85">
     <path d="M 157.86297 230.147313 
L 184.26297 230.147313 
" style="fill:none;stroke:#c44e52;stroke-linecap:round;stroke-width:1.5;"/>
    </g>
    <g id="line2d_86"/>
    <g id="text_18">
     <!-- $i = 4$ -->
     <g style="fill:#262626;" transform="translate(194.82297 234.767313)scale(0.132 -0.132)">
      <use transform="scale(0.996264)" xlink:href="#CMMI12-105"/>
      <use transform="translate(60.952611 0)scale(0.996264)" xlink:href="#CMR17-61"/>
      <use transform="translate(160.341408 0)scale(0.996264)" xlink:href="#CMR17-52"/>
     </g>
    </g>
    <g id="line2d_87">
     <path d="M 157.86297 249.522438 
L 184.26297 249.522438 
" style="fill:none;stroke:#8172b3;stroke-linecap:round;stroke-width:1.5;"/>
    </g>
    <g id="line2d_88"/>
    <g id="text_19">
     <!-- $i = 5$ -->
     <g style="fill:#262626;" transform="translate(194.82297 254.142438)scale(0.132 -0.132)">
      <use transform="scale(0.996264)" xlink:href="#CMMI12-105"/>
      <use transform="translate(60.952611 0)scale(0.996264)" xlink:href="#CMR17-61"/>
      <use transform="translate(160.341408 0)scale(0.996264)" xlink:href="#CMR17-53"/>
     </g>
    </g>
    <g id="line2d_89">
     <path d="M 157.86297 268.897563 
L 184.26297 268.897563 
" style="fill:none;stroke:#937860;stroke-linecap:round;stroke-width:1.5;"/>
    </g>
    <g id="line2d_90"/>
    <g id="text_20">
     <!-- $i = 6$ -->
     <g style="fill:#262626;" transform="translate(194.82297 273.517563)scale(0.132 -0.132)">
      <use transform="scale(0.996264)" xlink:href="#CMMI12-105"/>
      <use transform="translate(60.952611 0)scale(0.996264)" xlink:href="#CMR17-61"/>
      <use transform="translate(160.341408 0)scale(0.996264)" xlink:href="#CMR17-54"/>
     </g>
    </g>
    <g id="line2d_91">
     <path d="M 249.374938 230.147313 
L 275.774938 230.147313 
" style="fill:none;stroke:#da8bc3;stroke-linecap:round;stroke-width:1.5;"/>
    </g>
    <g id="line2d_92"/>
    <g id="text_21">
     <!-- $i = 7$ -->
     <g style="fill:#262626;" transform="translate(286.334938 234.767313)scale(0.132 -0.132)">
      <use transform="scale(0.996264)" xlink:href="#CMMI12-105"/>
      <use transform="translate(60.952611 0)scale(0.996264)" xlink:href="#CMR17-61"/>
      <use transform="translate(160.341408 0)scale(0.996264)" xlink:href="#CMR17-55"/>
     </g>
    </g>
    <g id="line2d_93">
     <path d="M 249.374938 249.522438 
L 275.774938 249.522438 
" style="fill:none;stroke:#8c8c8c;stroke-linecap:round;stroke-width:1.5;"/>
    </g>
    <g id="line2d_94"/>
    <g id="text_22">
     <!-- $i = 8$ -->
     <g style="fill:#262626;" transform="translate(286.334938 254.142438)scale(0.132 -0.132)">
      <defs>
       <path d="M 27.203125 35.765625 
C 33.5 38.96875 39.90625 43.796875 39.90625 51.53125 
C 39.90625 60.6875 31.09375 66 23 66 
C 13.90625 66 5.90625 59.375 5.90625 50.234375 
C 5.90625 47.71875 6.5 43.390625 10.40625 39.578125 
C 11.40625 38.578125 15.59375 35.5625 18.296875 33.65625 
C 13.796875 31.34375 3.296875 25.8125 3.296875 14.765625 
C 3.296875 4.40625 13.09375 -2 22.796875 -2 
C 33.5 -2 42.5 5.71875 42.5 15.96875 
C 42.5 25.109375 36.40625 29.328125 32.40625 32.046875 
z
M 14.09375 44.609375 
C 13.296875 45.109375 9.296875 48.21875 9.296875 52.9375 
C 9.296875 59.078125 15.59375 63.6875 22.796875 63.6875 
C 30.703125 63.6875 36.5 58.0625 36.5 51.53125 
C 36.5 42.1875 26.09375 36.859375 25.59375 36.859375 
C 25.5 36.859375 25.40625 36.859375 24.59375 37.46875 
z
M 32.5 24 
C 34 22.90625 38.796875 19.578125 38.796875 13.453125 
C 38.796875 6.015625 31.40625 0.390625 23 0.390625 
C 13.90625 0.390625 7 6.921875 7 14.859375 
C 7 22.796875 13.09375 29.4375 20 32.546875 
z
" id="CMR17-56"/>
      </defs>
      <use transform="scale(0.996264)" xlink:href="#CMMI12-105"/>
      <use transform="translate(60.952611 0)scale(0.996264)" xlink:href="#CMR17-61"/>
      <use transform="translate(160.341408 0)scale(0.996264)" xlink:href="#CMR17-56"/>
     </g>
    </g>
   </g>
  </g>
 </g>
 <defs>
  <clipPath id="p99ee0f0d41">
   <rect height="266.112" width="390.6" x="53.151002" y="23.162625"/>
  </clipPath>
 </defs>
</svg>
