<?xml version="1.0" encoding="utf-8" standalone="no"?>
<!DOCTYPE svg PUBLIC "-//W3C//DTD SVG 1.1//EN"
  "http://www.w3.org/Graphics/SVG/1.1/DTD/svg11.dtd">
<svg height="334.416233pt" version="1.1" viewBox="0 0 459.754536 334.416233" width="459.754536pt" xmlns="http://www.w3.org/2000/svg" xmlns:xlink="http://www.w3.org/1999/xlink">
 <metadata>
  <rdf:RDF xmlns:cc="http://creativecommons.org/ns#" xmlns:dc="http://purl.org/dc/elements/1.1/" xmlns:rdf="http://www.w3.org/1999/02/22-rdf-syntax-ns#">
   <cc:Work>
    <dc:type rdf:resource="http://purl.org/dc/dcmitype/StillImage"/>
    <dc:date>2022-03-29T15:15:15.401674</dc:date>
    <dc:format>image/svg+xml</dc:format>
    <dc:creator>
     <cc:Agent>
      <dc:title>Matplotlib v3.4.2, https://matplotlib.org/</dc:title>
     </cc:Agent>
    </dc:creator>
   </cc:Work>
  </rdf:RDF>
 </metadata>
 <defs>
  <style type="text/css">*{stroke-linecap:butt;stroke-linejoin:round;}</style>
 </defs>
 <g id="figure_1">
  <g id="patch_1">
   <path d="M 0 334.416233 
L 459.754536 334.416233 
L 459.754536 0 
L 0 0 
z
" style="fill:none;"/>
  </g>
  <g id="axes_1">
   <g id="patch_2">
    <path d="M 53.151002 289.274625 
L 443.751002 289.274625 
L 443.751002 23.162625 
L 53.151002 23.162625 
z
" style="fill:none;"/>
   </g>
   <g id="matplotlib.axis_1">
    <g id="xtick_1">
     <g id="line2d_1">
      <defs>
       <path d="M 0 0 
L 0 6 
" id="mf4120f94cf" style="stroke:#262626;stroke-width:1.25;"/>
      </defs>
      <g>
       <use style="fill:#262626;stroke:#262626;stroke-width:1.25;" x="53.151002" xlink:href="#mf4120f94cf" y="289.274625"/>
      </g>
     </g>
     <g id="text_1">
      <!-- $\mathdefault{10^{-7}}$ -->
      <g style="fill:#262626;" transform="translate(40.668164 307.90702)scale(0.132 -0.132)">
       <defs>
        <path d="M 1702 4058 
C 1702 4192 1696 4192 1606 4192 
C 1357 3916 979 3827 621 3827 
C 602 3827 570 3827 563 3808 
C 557 3795 557 3782 557 3648 
C 755 3648 1088 3686 1344 3839 
L 1344 461 
C 1344 236 1331 160 781 160 
L 589 160 
L 589 0 
C 896 0 1216 0 1523 0 
C 1830 0 2150 0 2458 0 
L 2458 160 
L 2266 160 
C 1715 160 1702 230 1702 458 
L 1702 4058 
z
" id="CMR17-31" transform="scale(0.015625)"/>
        <path d="M 2688 2025 
C 2688 2416 2682 3080 2413 3591 
C 2176 4039 1798 4198 1466 4198 
C 1158 4198 768 4058 525 3597 
C 269 3118 243 2524 243 2025 
C 243 1661 250 1106 448 619 
C 723 -39 1216 -128 1466 -128 
C 1760 -128 2208 -7 2470 600 
C 2662 1042 2688 1559 2688 2025 
z
M 1466 -26 
C 1056 -26 813 325 723 812 
C 653 1188 653 1738 653 2096 
C 653 2588 653 2997 736 3387 
C 858 3929 1216 4096 1466 4096 
C 1728 4096 2067 3923 2189 3400 
C 2272 3036 2278 2607 2278 2096 
C 2278 1680 2278 1169 2202 792 
C 2067 95 1690 -26 1466 -26 
z
" id="CMR17-30" transform="scale(0.015625)"/>
        <path d="M 4218 1472 
C 4326 1472 4442 1472 4442 1600 
C 4442 1728 4326 1728 4218 1728 
L 755 1728 
C 646 1728 531 1728 531 1600 
C 531 1472 646 1472 755 1472 
L 4218 1472 
z
" id="CMSY10-0" transform="scale(0.015625)"/>
        <path d="M 2886 3941 
L 2886 4081 
L 1382 4081 
C 634 4081 621 4165 595 4288 
L 480 4288 
L 294 3094 
L 410 3094 
C 429 3215 474 3540 550 3661 
C 589 3712 1062 3712 1171 3712 
L 2579 3712 
L 1869 2661 
C 1395 1954 1069 999 1069 165 
C 1069 89 1069 -128 1299 -128 
C 1530 -128 1530 89 1530 171 
L 1530 465 
C 1530 1508 1709 2196 2003 2636 
L 2886 3941 
z
" id="CMR17-37" transform="scale(0.015625)"/>
       </defs>
       <use transform="scale(0.996264)" xlink:href="#CMR17-31"/>
       <use transform="translate(45.690477 0)scale(0.996264)" xlink:href="#CMR17-30"/>
       <use transform="translate(91.380954 36.153639)scale(0.697382)" xlink:href="#CMSY10-0"/>
       <use transform="translate(145.621947 36.153639)scale(0.697382)" xlink:href="#CMR17-37"/>
      </g>
     </g>
    </g>
    <g id="xtick_2">
     <g id="line2d_2">
      <g>
       <use style="fill:#262626;stroke:#262626;stroke-width:1.25;" x="108.951002" xlink:href="#mf4120f94cf" y="289.274625"/>
      </g>
     </g>
     <g id="text_2">
      <!-- $\mathdefault{10^{-6}}$ -->
      <g style="fill:#262626;" transform="translate(96.468164 307.90702)scale(0.132 -0.132)">
       <defs>
        <path d="M 678 2176 
C 678 3690 1395 4032 1811 4032 
C 1946 4032 2272 4009 2400 3776 
C 2298 3776 2106 3776 2106 3553 
C 2106 3381 2246 3323 2336 3323 
C 2394 3323 2566 3348 2566 3560 
C 2566 3954 2246 4179 1805 4179 
C 1043 4179 243 3390 243 1984 
C 243 253 966 -128 1478 -128 
C 2099 -128 2688 427 2688 1283 
C 2688 2081 2170 2662 1517 2662 
C 1126 2662 838 2407 678 1960 
L 678 2176 
z
M 1478 25 
C 691 25 691 1200 691 1436 
C 691 1896 909 2560 1504 2560 
C 1613 2560 1926 2560 2138 2120 
C 2253 1870 2253 1609 2253 1289 
C 2253 944 2253 690 2118 434 
C 1978 171 1773 25 1478 25 
z
" id="CMR17-36" transform="scale(0.015625)"/>
       </defs>
       <use transform="scale(0.996264)" xlink:href="#CMR17-31"/>
       <use transform="translate(45.690477 0)scale(0.996264)" xlink:href="#CMR17-30"/>
       <use transform="translate(91.380954 36.153639)scale(0.697382)" xlink:href="#CMSY10-0"/>
       <use transform="translate(145.621947 36.153639)scale(0.697382)" xlink:href="#CMR17-36"/>
      </g>
     </g>
    </g>
    <g id="xtick_3">
     <g id="line2d_3">
      <g>
       <use style="fill:#262626;stroke:#262626;stroke-width:1.25;" x="164.751002" xlink:href="#mf4120f94cf" y="289.274625"/>
      </g>
     </g>
     <g id="text_3">
      <!-- $\mathdefault{10^{-5}}$ -->
      <g style="fill:#262626;" transform="translate(152.268164 307.90702)scale(0.132 -0.132)">
       <defs>
        <path d="M 730 3692 
C 794 3666 1056 3584 1325 3584 
C 1920 3584 2246 3911 2432 4100 
C 2432 4157 2432 4192 2394 4192 
C 2387 4192 2374 4192 2323 4163 
C 2099 4058 1837 3973 1517 3973 
C 1325 3973 1037 3999 723 4139 
C 653 4171 640 4171 634 4171 
C 602 4171 595 4164 595 4037 
L 595 2203 
C 595 2089 595 2057 659 2057 
C 691 2057 704 2070 736 2114 
C 941 2401 1222 2522 1542 2522 
C 1766 2522 2246 2382 2246 1289 
C 2246 1085 2246 715 2054 421 
C 1894 159 1645 25 1370 25 
C 947 25 518 320 403 814 
C 429 807 480 795 506 795 
C 589 795 749 840 749 1038 
C 749 1210 627 1280 506 1280 
C 358 1280 262 1190 262 1011 
C 262 454 704 -128 1382 -128 
C 2042 -128 2669 440 2669 1264 
C 2669 2030 2170 2624 1549 2624 
C 1222 2624 947 2503 730 2274 
L 730 3692 
z
" id="CMR17-35" transform="scale(0.015625)"/>
       </defs>
       <use transform="scale(0.996264)" xlink:href="#CMR17-31"/>
       <use transform="translate(45.690477 0)scale(0.996264)" xlink:href="#CMR17-30"/>
       <use transform="translate(91.380954 36.153639)scale(0.697382)" xlink:href="#CMSY10-0"/>
       <use transform="translate(145.621947 36.153639)scale(0.697382)" xlink:href="#CMR17-35"/>
      </g>
     </g>
    </g>
    <g id="xtick_4">
     <g id="line2d_4">
      <g>
       <use style="fill:#262626;stroke:#262626;stroke-width:1.25;" x="220.551002" xlink:href="#mf4120f94cf" y="289.274625"/>
      </g>
     </g>
     <g id="text_4">
      <!-- $\mathdefault{10^{-4}}$ -->
      <g style="fill:#262626;" transform="translate(208.068164 307.90702)scale(0.132 -0.132)">
       <defs>
        <path d="M 2150 4122 
C 2150 4256 2144 4256 2029 4256 
L 128 1254 
L 128 1088 
L 1779 1088 
L 1779 457 
C 1779 224 1766 160 1318 160 
L 1197 160 
L 1197 0 
C 1402 0 1747 0 1965 0 
C 2182 0 2528 0 2733 0 
L 2733 160 
L 2611 160 
C 2163 160 2150 224 2150 457 
L 2150 1088 
L 2803 1088 
L 2803 1254 
L 2150 1254 
L 2150 4122 
z
M 1798 3703 
L 1798 1254 
L 256 1254 
L 1798 3703 
z
" id="CMR17-34" transform="scale(0.015625)"/>
       </defs>
       <use transform="scale(0.996264)" xlink:href="#CMR17-31"/>
       <use transform="translate(45.690477 0)scale(0.996264)" xlink:href="#CMR17-30"/>
       <use transform="translate(91.380954 36.153639)scale(0.697382)" xlink:href="#CMSY10-0"/>
       <use transform="translate(145.621947 36.153639)scale(0.697382)" xlink:href="#CMR17-34"/>
      </g>
     </g>
    </g>
    <g id="xtick_5">
     <g id="line2d_5">
      <g>
       <use style="fill:#262626;stroke:#262626;stroke-width:1.25;" x="276.351002" xlink:href="#mf4120f94cf" y="289.274625"/>
      </g>
     </g>
     <g id="text_5">
      <!-- $\mathdefault{10^{-3}}$ -->
      <g style="fill:#262626;" transform="translate(263.868164 307.90702)scale(0.132 -0.132)">
       <defs>
        <path d="M 1414 2157 
C 1984 2157 2234 1662 2234 1090 
C 2234 320 1824 25 1453 25 
C 1114 25 563 194 390 693 
C 422 680 454 680 486 680 
C 640 680 755 782 755 948 
C 755 1133 614 1216 486 1216 
C 378 1216 211 1165 211 926 
C 211 335 787 -128 1466 -128 
C 2176 -128 2720 430 2720 1085 
C 2720 1707 2208 2157 1600 2227 
C 2086 2328 2554 2756 2554 3329 
C 2554 3820 2048 4179 1472 4179 
C 890 4179 378 3829 378 3329 
C 378 3110 544 3072 627 3072 
C 762 3072 877 3155 877 3321 
C 877 3486 762 3569 627 3569 
C 602 3569 570 3569 544 3557 
C 730 3959 1235 4032 1459 4032 
C 1683 4032 2106 3925 2106 3320 
C 2106 3143 2080 2828 1862 2550 
C 1670 2304 1453 2304 1242 2284 
C 1210 2284 1062 2269 1037 2269 
C 992 2263 966 2257 966 2208 
C 966 2163 973 2157 1101 2157 
L 1414 2157 
z
" id="CMR17-33" transform="scale(0.015625)"/>
       </defs>
       <use transform="scale(0.996264)" xlink:href="#CMR17-31"/>
       <use transform="translate(45.690477 0)scale(0.996264)" xlink:href="#CMR17-30"/>
       <use transform="translate(91.380954 36.153639)scale(0.697382)" xlink:href="#CMSY10-0"/>
       <use transform="translate(145.621947 36.153639)scale(0.697382)" xlink:href="#CMR17-33"/>
      </g>
     </g>
    </g>
    <g id="xtick_6">
     <g id="line2d_6">
      <g>
       <use style="fill:#262626;stroke:#262626;stroke-width:1.25;" x="332.151002" xlink:href="#mf4120f94cf" y="289.274625"/>
      </g>
     </g>
     <g id="text_6">
      <!-- $\mathdefault{10^{-2}}$ -->
      <g style="fill:#262626;" transform="translate(319.668164 307.90702)scale(0.132 -0.132)">
       <defs>
        <path d="M 2669 989 
L 2554 989 
C 2490 536 2438 459 2413 420 
C 2381 369 1920 369 1830 369 
L 602 369 
C 832 619 1280 1072 1824 1597 
C 2214 1967 2669 2402 2669 3035 
C 2669 3790 2067 4224 1395 4224 
C 691 4224 262 3604 262 3030 
C 262 2780 448 2748 525 2748 
C 589 2748 781 2787 781 3010 
C 781 3207 614 3264 525 3264 
C 486 3264 448 3258 422 3245 
C 544 3790 915 4058 1306 4058 
C 1862 4058 2227 3617 2227 3035 
C 2227 2479 1901 2000 1536 1584 
L 262 146 
L 262 0 
L 2515 0 
L 2669 989 
z
" id="CMR17-32" transform="scale(0.015625)"/>
       </defs>
       <use transform="scale(0.996264)" xlink:href="#CMR17-31"/>
       <use transform="translate(45.690477 0)scale(0.996264)" xlink:href="#CMR17-30"/>
       <use transform="translate(91.380954 36.153639)scale(0.697382)" xlink:href="#CMSY10-0"/>
       <use transform="translate(145.621947 36.153639)scale(0.697382)" xlink:href="#CMR17-32"/>
      </g>
     </g>
    </g>
    <g id="xtick_7">
     <g id="line2d_7">
      <g>
       <use style="fill:#262626;stroke:#262626;stroke-width:1.25;" x="387.951002" xlink:href="#mf4120f94cf" y="289.274625"/>
      </g>
     </g>
     <g id="text_7">
      <!-- $\mathdefault{10^{-1}}$ -->
      <g style="fill:#262626;" transform="translate(375.468164 307.90702)scale(0.132 -0.132)">
       <use transform="scale(0.996264)" xlink:href="#CMR17-31"/>
       <use transform="translate(45.690477 0)scale(0.996264)" xlink:href="#CMR17-30"/>
       <use transform="translate(91.380954 36.153639)scale(0.697382)" xlink:href="#CMSY10-0"/>
       <use transform="translate(145.621947 36.153639)scale(0.697382)" xlink:href="#CMR17-31"/>
      </g>
     </g>
    </g>
    <g id="xtick_8">
     <g id="line2d_8">
      <g>
       <use style="fill:#262626;stroke:#262626;stroke-width:1.25;" x="443.751002" xlink:href="#mf4120f94cf" y="289.274625"/>
      </g>
     </g>
     <g id="text_8">
      <!-- $\mathdefault{10^{0}}$ -->
      <g style="fill:#262626;" transform="translate(434.947467 307.90702)scale(0.132 -0.132)">
       <use transform="scale(0.996264)" xlink:href="#CMR17-31"/>
       <use transform="translate(45.690477 0)scale(0.996264)" xlink:href="#CMR17-30"/>
       <use transform="translate(91.380954 36.153639)scale(0.697382)" xlink:href="#CMR17-30"/>
      </g>
     </g>
    </g>
    <g id="xtick_9">
     <g id="line2d_9">
      <defs>
       <path d="M 0 0 
L 0 4 
" id="m0695a4c213" style="stroke:#262626;"/>
      </defs>
      <g>
       <use style="fill:#262626;stroke:#262626;" x="69.948475" xlink:href="#m0695a4c213" y="289.274625"/>
      </g>
     </g>
    </g>
    <g id="xtick_10">
     <g id="line2d_10">
      <g>
       <use style="fill:#262626;stroke:#262626;" x="79.774368" xlink:href="#m0695a4c213" y="289.274625"/>
      </g>
     </g>
    </g>
    <g id="xtick_11">
     <g id="line2d_11">
      <g>
       <use style="fill:#262626;stroke:#262626;" x="86.745949" xlink:href="#m0695a4c213" y="289.274625"/>
      </g>
     </g>
    </g>
    <g id="xtick_12">
     <g id="line2d_12">
      <g>
       <use style="fill:#262626;stroke:#262626;" x="92.153528" xlink:href="#m0695a4c213" y="289.274625"/>
      </g>
     </g>
    </g>
    <g id="xtick_13">
     <g id="line2d_13">
      <g>
       <use style="fill:#262626;stroke:#262626;" x="96.571841" xlink:href="#m0695a4c213" y="289.274625"/>
      </g>
     </g>
    </g>
    <g id="xtick_14">
     <g id="line2d_14">
      <g>
       <use style="fill:#262626;stroke:#262626;" x="100.307472" xlink:href="#m0695a4c213" y="289.274625"/>
      </g>
     </g>
    </g>
    <g id="xtick_15">
     <g id="line2d_15">
      <g>
       <use style="fill:#262626;stroke:#262626;" x="103.543423" xlink:href="#m0695a4c213" y="289.274625"/>
      </g>
     </g>
    </g>
    <g id="xtick_16">
     <g id="line2d_16">
      <g>
       <use style="fill:#262626;stroke:#262626;" x="106.397734" xlink:href="#m0695a4c213" y="289.274625"/>
      </g>
     </g>
    </g>
    <g id="xtick_17">
     <g id="line2d_17">
      <g>
       <use style="fill:#262626;stroke:#262626;" x="125.748475" xlink:href="#m0695a4c213" y="289.274625"/>
      </g>
     </g>
    </g>
    <g id="xtick_18">
     <g id="line2d_18">
      <g>
       <use style="fill:#262626;stroke:#262626;" x="135.574368" xlink:href="#m0695a4c213" y="289.274625"/>
      </g>
     </g>
    </g>
    <g id="xtick_19">
     <g id="line2d_19">
      <g>
       <use style="fill:#262626;stroke:#262626;" x="142.545949" xlink:href="#m0695a4c213" y="289.274625"/>
      </g>
     </g>
    </g>
    <g id="xtick_20">
     <g id="line2d_20">
      <g>
       <use style="fill:#262626;stroke:#262626;" x="147.953528" xlink:href="#m0695a4c213" y="289.274625"/>
      </g>
     </g>
    </g>
    <g id="xtick_21">
     <g id="line2d_21">
      <g>
       <use style="fill:#262626;stroke:#262626;" x="152.371841" xlink:href="#m0695a4c213" y="289.274625"/>
      </g>
     </g>
    </g>
    <g id="xtick_22">
     <g id="line2d_22">
      <g>
       <use style="fill:#262626;stroke:#262626;" x="156.107472" xlink:href="#m0695a4c213" y="289.274625"/>
      </g>
     </g>
    </g>
    <g id="xtick_23">
     <g id="line2d_23">
      <g>
       <use style="fill:#262626;stroke:#262626;" x="159.343423" xlink:href="#m0695a4c213" y="289.274625"/>
      </g>
     </g>
    </g>
    <g id="xtick_24">
     <g id="line2d_24">
      <g>
       <use style="fill:#262626;stroke:#262626;" x="162.197734" xlink:href="#m0695a4c213" y="289.274625"/>
      </g>
     </g>
    </g>
    <g id="xtick_25">
     <g id="line2d_25">
      <g>
       <use style="fill:#262626;stroke:#262626;" x="181.548475" xlink:href="#m0695a4c213" y="289.274625"/>
      </g>
     </g>
    </g>
    <g id="xtick_26">
     <g id="line2d_26">
      <g>
       <use style="fill:#262626;stroke:#262626;" x="191.374368" xlink:href="#m0695a4c213" y="289.274625"/>
      </g>
     </g>
    </g>
    <g id="xtick_27">
     <g id="line2d_27">
      <g>
       <use style="fill:#262626;stroke:#262626;" x="198.345949" xlink:href="#m0695a4c213" y="289.274625"/>
      </g>
     </g>
    </g>
    <g id="xtick_28">
     <g id="line2d_28">
      <g>
       <use style="fill:#262626;stroke:#262626;" x="203.753528" xlink:href="#m0695a4c213" y="289.274625"/>
      </g>
     </g>
    </g>
    <g id="xtick_29">
     <g id="line2d_29">
      <g>
       <use style="fill:#262626;stroke:#262626;" x="208.171841" xlink:href="#m0695a4c213" y="289.274625"/>
      </g>
     </g>
    </g>
    <g id="xtick_30">
     <g id="line2d_30">
      <g>
       <use style="fill:#262626;stroke:#262626;" x="211.907472" xlink:href="#m0695a4c213" y="289.274625"/>
      </g>
     </g>
    </g>
    <g id="xtick_31">
     <g id="line2d_31">
      <g>
       <use style="fill:#262626;stroke:#262626;" x="215.143423" xlink:href="#m0695a4c213" y="289.274625"/>
      </g>
     </g>
    </g>
    <g id="xtick_32">
     <g id="line2d_32">
      <g>
       <use style="fill:#262626;stroke:#262626;" x="217.997734" xlink:href="#m0695a4c213" y="289.274625"/>
      </g>
     </g>
    </g>
    <g id="xtick_33">
     <g id="line2d_33">
      <g>
       <use style="fill:#262626;stroke:#262626;" x="237.348475" xlink:href="#m0695a4c213" y="289.274625"/>
      </g>
     </g>
    </g>
    <g id="xtick_34">
     <g id="line2d_34">
      <g>
       <use style="fill:#262626;stroke:#262626;" x="247.174368" xlink:href="#m0695a4c213" y="289.274625"/>
      </g>
     </g>
    </g>
    <g id="xtick_35">
     <g id="line2d_35">
      <g>
       <use style="fill:#262626;stroke:#262626;" x="254.145949" xlink:href="#m0695a4c213" y="289.274625"/>
      </g>
     </g>
    </g>
    <g id="xtick_36">
     <g id="line2d_36">
      <g>
       <use style="fill:#262626;stroke:#262626;" x="259.553528" xlink:href="#m0695a4c213" y="289.274625"/>
      </g>
     </g>
    </g>
    <g id="xtick_37">
     <g id="line2d_37">
      <g>
       <use style="fill:#262626;stroke:#262626;" x="263.971841" xlink:href="#m0695a4c213" y="289.274625"/>
      </g>
     </g>
    </g>
    <g id="xtick_38">
     <g id="line2d_38">
      <g>
       <use style="fill:#262626;stroke:#262626;" x="267.707472" xlink:href="#m0695a4c213" y="289.274625"/>
      </g>
     </g>
    </g>
    <g id="xtick_39">
     <g id="line2d_39">
      <g>
       <use style="fill:#262626;stroke:#262626;" x="270.943423" xlink:href="#m0695a4c213" y="289.274625"/>
      </g>
     </g>
    </g>
    <g id="xtick_40">
     <g id="line2d_40">
      <g>
       <use style="fill:#262626;stroke:#262626;" x="273.797734" xlink:href="#m0695a4c213" y="289.274625"/>
      </g>
     </g>
    </g>
    <g id="xtick_41">
     <g id="line2d_41">
      <g>
       <use style="fill:#262626;stroke:#262626;" x="293.148475" xlink:href="#m0695a4c213" y="289.274625"/>
      </g>
     </g>
    </g>
    <g id="xtick_42">
     <g id="line2d_42">
      <g>
       <use style="fill:#262626;stroke:#262626;" x="302.974368" xlink:href="#m0695a4c213" y="289.274625"/>
      </g>
     </g>
    </g>
    <g id="xtick_43">
     <g id="line2d_43">
      <g>
       <use style="fill:#262626;stroke:#262626;" x="309.945949" xlink:href="#m0695a4c213" y="289.274625"/>
      </g>
     </g>
    </g>
    <g id="xtick_44">
     <g id="line2d_44">
      <g>
       <use style="fill:#262626;stroke:#262626;" x="315.353528" xlink:href="#m0695a4c213" y="289.274625"/>
      </g>
     </g>
    </g>
    <g id="xtick_45">
     <g id="line2d_45">
      <g>
       <use style="fill:#262626;stroke:#262626;" x="319.771841" xlink:href="#m0695a4c213" y="289.274625"/>
      </g>
     </g>
    </g>
    <g id="xtick_46">
     <g id="line2d_46">
      <g>
       <use style="fill:#262626;stroke:#262626;" x="323.507472" xlink:href="#m0695a4c213" y="289.274625"/>
      </g>
     </g>
    </g>
    <g id="xtick_47">
     <g id="line2d_47">
      <g>
       <use style="fill:#262626;stroke:#262626;" x="326.743423" xlink:href="#m0695a4c213" y="289.274625"/>
      </g>
     </g>
    </g>
    <g id="xtick_48">
     <g id="line2d_48">
      <g>
       <use style="fill:#262626;stroke:#262626;" x="329.597734" xlink:href="#m0695a4c213" y="289.274625"/>
      </g>
     </g>
    </g>
    <g id="xtick_49">
     <g id="line2d_49">
      <g>
       <use style="fill:#262626;stroke:#262626;" x="348.948475" xlink:href="#m0695a4c213" y="289.274625"/>
      </g>
     </g>
    </g>
    <g id="xtick_50">
     <g id="line2d_50">
      <g>
       <use style="fill:#262626;stroke:#262626;" x="358.774368" xlink:href="#m0695a4c213" y="289.274625"/>
      </g>
     </g>
    </g>
    <g id="xtick_51">
     <g id="line2d_51">
      <g>
       <use style="fill:#262626;stroke:#262626;" x="365.745949" xlink:href="#m0695a4c213" y="289.274625"/>
      </g>
     </g>
    </g>
    <g id="xtick_52">
     <g id="line2d_52">
      <g>
       <use style="fill:#262626;stroke:#262626;" x="371.153528" xlink:href="#m0695a4c213" y="289.274625"/>
      </g>
     </g>
    </g>
    <g id="xtick_53">
     <g id="line2d_53">
      <g>
       <use style="fill:#262626;stroke:#262626;" x="375.571841" xlink:href="#m0695a4c213" y="289.274625"/>
      </g>
     </g>
    </g>
    <g id="xtick_54">
     <g id="line2d_54">
      <g>
       <use style="fill:#262626;stroke:#262626;" x="379.307472" xlink:href="#m0695a4c213" y="289.274625"/>
      </g>
     </g>
    </g>
    <g id="xtick_55">
     <g id="line2d_55">
      <g>
       <use style="fill:#262626;stroke:#262626;" x="382.543423" xlink:href="#m0695a4c213" y="289.274625"/>
      </g>
     </g>
    </g>
    <g id="xtick_56">
     <g id="line2d_56">
      <g>
       <use style="fill:#262626;stroke:#262626;" x="385.397734" xlink:href="#m0695a4c213" y="289.274625"/>
      </g>
     </g>
    </g>
    <g id="xtick_57">
     <g id="line2d_57">
      <g>
       <use style="fill:#262626;stroke:#262626;" x="404.748475" xlink:href="#m0695a4c213" y="289.274625"/>
      </g>
     </g>
    </g>
    <g id="xtick_58">
     <g id="line2d_58">
      <g>
       <use style="fill:#262626;stroke:#262626;" x="414.574368" xlink:href="#m0695a4c213" y="289.274625"/>
      </g>
     </g>
    </g>
    <g id="xtick_59">
     <g id="line2d_59">
      <g>
       <use style="fill:#262626;stroke:#262626;" x="421.545949" xlink:href="#m0695a4c213" y="289.274625"/>
      </g>
     </g>
    </g>
    <g id="xtick_60">
     <g id="line2d_60">
      <g>
       <use style="fill:#262626;stroke:#262626;" x="426.953528" xlink:href="#m0695a4c213" y="289.274625"/>
      </g>
     </g>
    </g>
    <g id="xtick_61">
     <g id="line2d_61">
      <g>
       <use style="fill:#262626;stroke:#262626;" x="431.371841" xlink:href="#m0695a4c213" y="289.274625"/>
      </g>
     </g>
    </g>
    <g id="xtick_62">
     <g id="line2d_62">
      <g>
       <use style="fill:#262626;stroke:#262626;" x="435.107472" xlink:href="#m0695a4c213" y="289.274625"/>
      </g>
     </g>
    </g>
    <g id="xtick_63">
     <g id="line2d_63">
      <g>
       <use style="fill:#262626;stroke:#262626;" x="438.343423" xlink:href="#m0695a4c213" y="289.274625"/>
      </g>
     </g>
    </g>
    <g id="xtick_64">
     <g id="line2d_64">
      <g>
       <use style="fill:#262626;stroke:#262626;" x="441.197734" xlink:href="#m0695a4c213" y="289.274625"/>
      </g>
     </g>
    </g>
    <g id="text_9">
     <!-- $t$ -->
     <g style="fill:#262626;" transform="translate(245.914713 324.426706)scale(0.144 -0.144)">
      <defs>
       <path d="M 1286 2566 
L 1875 2566 
C 1997 2566 2061 2566 2061 2681 
C 2061 2752 2022 2752 1894 2752 
L 1331 2752 
L 1568 3692 
C 1594 3781 1594 3794 1594 3840 
C 1594 3943 1510 4000 1427 4000 
C 1376 4000 1229 3981 1178 3775 
L 928 2752 
L 326 2752 
C 198 2752 141 2752 141 2630 
C 141 2566 186 2566 307 2566 
L 877 2566 
L 454 881 
C 403 658 384 594 384 511 
C 384 211 595 -64 954 -64 
C 1600 -64 1946 868 1946 912 
C 1946 951 1920 970 1882 970 
C 1869 970 1843 970 1830 944 
C 1824 938 1818 931 1773 829 
C 1638 511 1344 64 973 64 
C 781 64 768 224 768 364 
C 768 370 768 492 787 568 
L 1286 2566 
z
" id="CMMI12-74" transform="scale(0.015625)"/>
      </defs>
      <use transform="scale(0.996264)" xlink:href="#CMMI12-74"/>
     </g>
    </g>
   </g>
   <g id="matplotlib.axis_2">
    <g id="ytick_1">
     <g id="line2d_65">
      <path clip-path="url(#p4fcf45d141)" d="M 53.151002 289.274625 
L 443.751002 289.274625 
" style="fill:none;stroke:#cccccc;stroke-linecap:round;"/>
     </g>
     <g id="line2d_66">
      <defs>
       <path d="M 0 0 
L -6 0 
" id="me7bc9ef5f7" style="stroke:#262626;stroke-width:1.25;"/>
      </defs>
      <g>
       <use style="fill:#262626;stroke:#262626;stroke-width:1.25;" x="53.151002" xlink:href="#me7bc9ef5f7" y="289.274625"/>
      </g>
     </g>
     <g id="text_10">
      <!-- $\mathdefault{−1}$ -->
      <g style="fill:#262626;" transform="translate(26.984391 293.840822)scale(0.132 -0.132)">
       <use transform="scale(0.996264)" xlink:href="#CMSY10-0"/>
       <use transform="translate(77.487468 0)scale(0.996264)" xlink:href="#CMR17-31"/>
      </g>
     </g>
    </g>
    <g id="ytick_2">
     <g id="line2d_67">
      <path clip-path="url(#p4fcf45d141)" d="M 53.151002 156.218625 
L 443.751002 156.218625 
" style="fill:none;stroke:#cccccc;stroke-linecap:round;"/>
     </g>
     <g id="line2d_68">
      <g>
       <use style="fill:#262626;stroke:#262626;stroke-width:1.25;" x="53.151002" xlink:href="#me7bc9ef5f7" y="156.218625"/>
      </g>
     </g>
     <g id="text_11">
      <!-- $\mathdefault{0}$ -->
      <g style="fill:#262626;" transform="translate(37.212728 160.784822)scale(0.132 -0.132)">
       <use transform="scale(0.996264)" xlink:href="#CMR17-30"/>
      </g>
     </g>
    </g>
    <g id="ytick_3">
     <g id="line2d_69">
      <path clip-path="url(#p4fcf45d141)" d="M 53.151002 23.162625 
L 443.751002 23.162625 
" style="fill:none;stroke:#cccccc;stroke-linecap:round;"/>
     </g>
     <g id="line2d_70">
      <g>
       <use style="fill:#262626;stroke:#262626;stroke-width:1.25;" x="53.151002" xlink:href="#me7bc9ef5f7" y="23.162625"/>
      </g>
     </g>
     <g id="text_12">
      <!-- $\mathdefault{1}$ -->
      <g style="fill:#262626;" transform="translate(37.212728 27.728822)scale(0.132 -0.132)">
       <use transform="scale(0.996264)" xlink:href="#CMR17-31"/>
      </g>
     </g>
    </g>
    <g id="text_13">
     <!-- $\phi_i^{\perp}(t)$ -->
     <g style="fill:#262626;" transform="translate(19.324607 172.497986)rotate(-90)scale(0.144 -0.144)">
      <defs>
       <path d="M 2752 4390 
C 2752 4448 2707 4448 2688 4448 
C 2630 4448 2624 4435 2598 4326 
L 2253 2939 
C 2234 2856 2227 2849 2221 2843 
C 2214 2830 2170 2824 2157 2824 
C 1107 2734 301 1864 301 1057 
C 301 361 832 -64 1498 -64 
C 1446 -261 1402 -463 1350 -659 
C 1261 -995 1210 -1204 1210 -1229 
C 1210 -1241 1210 -1280 1274 -1280 
C 1293 -1280 1318 -1280 1331 -1254 
C 1344 -1241 1382 -1089 1408 -1008 
L 1645 -64 
C 2739 -64 3571 854 3571 1680 
C 3571 2343 3085 2816 2374 2816 
L 2752 4390 
z
M 2336 2701 
C 2758 2701 3181 2463 3181 1828 
C 3181 1097 2675 128 1677 50 
L 2336 2701 
z
M 1530 50 
C 1216 50 691 220 691 938 
C 691 1761 1274 2676 2195 2676 
L 1530 50 
z
" id="CMMI12-1e" transform="scale(0.015625)"/>
       <path d="M 2618 4045 
C 2618 4160 2618 4275 2490 4275 
C 2362 4275 2362 4141 2362 4045 
L 2362 256 
L 582 256 
C 486 256 352 256 352 128 
C 352 0 486 0 582 0 
L 4403 0 
C 4512 0 4627 0 4627 128 
C 4627 256 4512 256 4403 256 
L 2618 256 
L 2618 4045 
z
" id="CMSY10-3f" transform="scale(0.015625)"/>
       <path d="M 1811 913 
C 1811 945 1786 971 1747 971 
C 1690 971 1683 952 1651 843 
C 1485 262 1222 64 1011 64 
C 934 64 845 83 845 275 
C 845 447 922 639 992 830 
L 1440 2018 
C 1459 2069 1504 2184 1504 2305 
C 1504 2574 1312 2816 998 2816 
C 410 2816 173 1890 173 1839 
C 173 1814 198 1782 243 1782 
C 301 1782 307 1807 333 1896 
C 486 2428 730 2682 979 2682 
C 1037 2682 1146 2682 1146 2478 
C 1146 2312 1062 2101 1011 1961 
L 563 773 
C 525 671 486 568 486 453 
C 486 166 685 -64 992 -64 
C 1581 -64 1811 869 1811 913 
z
M 1760 4013 
C 1760 4109 1683 4224 1542 4224 
C 1395 4224 1229 4083 1229 3917 
C 1229 3758 1363 3707 1440 3707 
C 1613 3707 1760 3873 1760 4013 
z
" id="CMMI12-69" transform="scale(0.015625)"/>
       <path d="M 1958 -1561 
C 1958 -1555 1958 -1542 1939 -1523 
C 1645 -1224 858 -407 858 1581 
C 858 3569 1632 4379 1946 4697 
C 1946 4704 1958 4717 1958 4736 
C 1958 4755 1939 4768 1914 4768 
C 1843 4768 1299 4296 986 3594 
C 666 2887 576 2199 576 1588 
C 576 1128 621 351 1005 -471 
C 1312 -1135 1837 -1600 1914 -1600 
C 1946 -1600 1958 -1587 1958 -1561 
z
" id="CMR17-28" transform="scale(0.015625)"/>
       <path d="M 1683 1581 
C 1683 2040 1638 2817 1254 3639 
C 947 4303 422 4768 346 4768 
C 326 4768 301 4761 301 4729 
C 301 4717 307 4710 314 4697 
C 621 4378 1402 3568 1402 1584 
C 1402 -407 627 -1217 314 -1537 
C 307 -1549 301 -1556 301 -1568 
C 301 -1600 326 -1600 346 -1600 
C 416 -1600 960 -1128 1274 -426 
C 1594 281 1683 969 1683 1581 
z
" id="CMR17-29" transform="scale(0.015625)"/>
      </defs>
      <use transform="scale(0.996264)" xlink:href="#CMMI12-1e"/>
      <use transform="translate(57.73418 36.153639)scale(0.697382)" xlink:href="#CMSY10-3f"/>
      <use transform="translate(57.73418 -25.505809)scale(0.697382)" xlink:href="#CMMI12-69"/>
      <use transform="translate(112.473306 0)scale(0.996264)" xlink:href="#CMR17-28"/>
      <use transform="translate(147.754073 0)scale(0.996264)" xlink:href="#CMMI12-74"/>
      <use transform="translate(182.980404 0)scale(0.996264)" xlink:href="#CMR17-29"/>
     </g>
    </g>
   </g>
   <g id="line2d_71">
    <path clip-path="url(#p4fcf45d141)" d="M 53.151002 156.176549 
L 134.086137 155.995134 
L 175.531182 155.693054 
L 204.073524 155.271545 
L 225.578029 154.742648 
L 243.172623 154.096665 
L 258.030281 153.335455 
L 270.932984 152.456043 
L 282.271722 151.464315 
L 292.437488 150.354832 
L 301.430281 149.159365 
L 309.641092 147.85619 
L 317.460912 146.392035 
L 324.498749 144.856334 
L 331.145596 143.186193 
L 337.401452 141.390661 
L 343.266317 139.483303 
L 348.740191 137.482356 
L 354.214065 135.242167 
L 359.296948 132.922821 
L 364.37983 130.347027 
L 369.071722 127.717284 
L 373.763614 124.820238 
L 378.064515 121.906637 
L 382.365416 118.72267 
L 386.666317 115.243248 
L 390.576227 111.800728 
L 394.486137 108.068987 
L 398.396047 104.023726 
L 402.305957 99.638606 
L 406.215866 94.885071 
L 409.734785 90.266368 
L 413.253704 85.299856 
L 416.772623 79.959341 
L 420.291542 74.216661 
L 423.810461 68.04153 
L 427.32938 61.401383 
L 430.848299 54.261202 
L 434.367218 46.583332 
L 437.886137 38.327283 
L 441.405056 29.449515 
L 443.751002 23.162625 
L 443.751002 23.162625 
" style="fill:none;stroke:#4c72b0;stroke-linecap:round;stroke-width:1.5;"/>
   </g>
   <g id="line2d_72">
    <path clip-path="url(#p4fcf45d141)" d="M 53.151002 153.903449 
L 75.828479 153.103489 
L 95.76902 152.18404 
L 113.754605 151.135356 
L 130.176227 149.954997 
L 145.033884 148.668035 
L 158.718569 147.267684 
L 171.621272 145.731101 
L 184.132984 144.015117 
L 195.862713 142.181995 
L 207.201452 140.184103 
L 218.1492 138.028156 
L 228.705957 135.725484 
L 239.262713 133.194394 
L 249.81947 130.431176 
L 260.376227 127.439325 
L 271.714966 123.987132 
L 284.226677 119.933656 
L 302.212263 113.838422 
L 317.851903 108.615606 
L 326.453704 105.965682 
L 333.491542 104.023984 
L 339.356407 102.628832 
L 344.43929 101.633523 
L 349.131182 100.932816 
L 353.432083 100.510716 
L 357.341993 100.340957 
L 361.251903 100.406157 
L 364.770821 100.693349 
L 367.898749 101.152835 
L 371.026677 101.82589 
L 374.154605 102.734791 
L 376.891542 103.742462 
L 379.628479 104.966533 
L 382.365416 106.425634 
L 385.102353 108.139705 
L 387.83929 110.13009 
L 390.576227 112.419622 
L 393.313164 115.032718 
L 396.050101 117.995488 
L 398.787038 121.335837 
L 401.523975 125.083581 
L 404.260912 129.270573 
L 406.997848 133.93083 
L 409.734785 139.10067 
L 412.471722 144.818861 
L 415.208659 151.126774 
L 417.945596 158.068547 
L 420.682533 165.691264 
L 423.41947 174.045137 
L 426.156407 183.183701 
L 428.893344 193.16403 
L 431.630281 204.046951 
L 434.367218 215.897284 
L 437.104155 228.784088 
L 439.841092 242.780929 
L 442.578029 257.966158 
L 443.751002 264.858394 
L 443.751002 264.858394 
" style="fill:none;stroke:#dd8452;stroke-linecap:round;stroke-width:1.5;"/>
   </g>
   <g id="line2d_73">
    <path clip-path="url(#p4fcf45d141)" d="M 53.151002 137.956796 
L 71.527578 135.372043 
L 90.686137 132.451363 
L 112.972623 128.822162 
L 167.711362 119.791083 
L 181.005056 117.900917 
L 191.952803 116.560551 
L 201.727578 115.585706 
L 210.32938 114.944683 
L 218.1492 114.573255 
L 225.578029 114.437538 
L 232.615866 114.531739 
L 239.262713 114.844401 
L 245.518569 115.358719 
L 251.383434 116.053055 
L 257.248299 116.970021 
L 262.722173 118.041693 
L 268.196047 119.335719 
L 273.669921 120.865341 
L 278.752803 122.507663 
L 283.835686 124.373296 
L 288.918569 126.470553 
L 294.001452 128.806441 
L 299.084335 131.386292 
L 304.167218 134.213343 
L 309.250101 137.288249 
L 314.723975 140.873932 
L 320.197848 144.736043 
L 326.062713 149.164399 
L 332.318569 154.188769 
L 339.356407 160.152767 
L 348.3492 168.099084 
L 362.424875 180.55735 
L 367.898749 185.091355 
L 372.19965 188.391419 
L 376.10956 191.11342 
L 379.628479 193.274265 
L 382.756407 194.914721 
L 385.493344 196.095217 
L 387.83929 196.890294 
L 390.185236 197.460427 
L 392.531182 197.780265 
L 394.486137 197.836026 
L 396.441092 197.682322 
L 398.396047 197.301365 
L 400.351002 196.674313 
L 402.305957 195.781225 
L 404.260912 194.600994 
L 406.215866 193.111298 
L 408.170821 191.288533 
L 410.125776 189.107751 
L 412.080731 186.542593 
L 414.035686 183.565219 
L 415.990641 180.146234 
L 417.945596 176.25461 
L 419.900551 171.85761 
L 421.855506 166.920699 
L 423.810461 161.407457 
L 425.765416 155.279492 
L 427.720371 148.496336 
L 429.675326 141.015352 
L 432.021272 131.053627 
L 434.367218 119.940047 
L 436.713164 107.587199 
L 439.05911 93.902124 
L 441.405056 78.786005 
L 443.751002 62.133825 
L 443.751002 62.133825 
" style="fill:none;stroke:#55a868;stroke-linecap:round;stroke-width:1.5;"/>
   </g>
   <g id="line2d_74">
    <path clip-path="url(#p4fcf45d141)" d="M 53.151002 122.037753 
L 63.707758 122.21879 
L 73.873524 122.617275 
L 83.648299 123.228589 
L 93.032083 124.044075 
L 102.024875 125.051245 
L 110.626677 126.234094 
L 119.228479 127.642589 
L 127.43929 129.206232 
L 135.650101 130.990669 
L 143.860912 133.000523 
L 152.071722 135.237996 
L 160.282533 137.70237 
L 168.884335 140.52285 
L 177.486137 143.578103 
L 186.47893 147.006525 
L 196.253704 150.975331 
L 207.201452 155.665528 
L 222.05911 162.2942 
L 242.390641 171.349072 
L 251.774425 175.271772 
L 259.203254 178.147017 
L 265.850101 180.483833 
L 271.714966 182.314939 
L 277.188839 183.791597 
L 282.271722 184.93123 
L 286.963614 185.76023 
L 291.264515 186.312251 
L 295.565416 186.647371 
L 299.866317 186.748172 
L 303.776227 186.622083 
L 307.686137 186.275777 
L 311.596047 185.697407 
L 315.505957 184.87593 
L 319.024875 183.920461 
L 322.543794 182.753596 
L 326.062713 181.370028 
L 329.581632 179.765726 
L 333.100551 177.938169 
L 337.010461 175.644868 
L 340.920371 173.07707 
L 344.830281 170.240483 
L 349.131182 166.821915 
L 353.432083 163.110822 
L 358.123975 158.76319 
L 363.597848 153.36465 
L 371.026677 145.67409 
L 380.801452 135.556988 
L 385.102353 131.404336 
L 388.621272 128.286519 
L 391.7492 125.809451 
L 394.486137 123.931764 
L 396.832083 122.582863 
L 399.178029 121.516112 
L 401.132984 120.873637 
L 403.087939 120.4838 
L 404.651903 120.373086 
L 406.215866 120.458059 
L 407.77983 120.755206 
L 409.343794 121.281903 
L 410.907758 122.056457 
L 412.471722 123.098146 
L 414.035686 124.427259 
L 415.59965 126.065145 
L 417.163614 128.034253 
L 418.727578 130.358187 
L 420.291542 133.06175 
L 421.855506 136.170998 
L 423.41947 139.713291 
L 424.983434 143.717356 
L 426.938389 149.417862 
L 428.893344 155.949237 
L 430.848299 163.377428 
L 432.803254 171.772391 
L 434.758209 181.208297 
L 436.713164 191.763756 
L 438.668119 203.522048 
L 440.623074 216.571361 
L 442.578029 231.005051 
L 443.751002 240.370628 
L 443.751002 240.370628 
" style="fill:none;stroke:#c44e52;stroke-linecap:round;stroke-width:1.5;"/>
   </g>
   <g id="line2d_75">
    <path clip-path="url(#p4fcf45d141)" d="M 53.151002 159.826229 
L 82.866317 167.925 
L 96.160011 171.312491 
L 107.107758 173.883851 
L 116.882533 175.953947 
L 125.484335 177.557308 
L 133.695146 178.862576 
L 141.123975 179.82705 
L 148.161812 180.528985 
L 155.19965 181.004847 
L 161.846497 181.229568 
L 168.102353 181.227807 
L 174.358209 181.00729 
L 180.614065 180.557493 
L 186.47893 179.919503 
L 192.343794 179.065993 
L 198.208659 177.992566 
L 204.073524 176.696741 
L 209.938389 175.178239 
L 215.803254 173.439292 
L 222.05911 171.347201 
L 228.314966 169.020228 
L 234.961812 166.306991 
L 241.99965 163.189963 
L 249.81947 159.476703 
L 259.203254 154.763594 
L 285.790641 141.23878 
L 292.437488 138.213 
L 297.911362 135.958693 
L 302.994245 134.111125 
L 307.295146 132.769025 
L 311.596047 131.661289 
L 315.505957 130.882991 
L 319.415866 130.345904 
L 322.934785 130.087186 
L 326.453704 130.057677 
L 329.972623 130.27246 
L 333.100551 130.679901 
L 336.228479 131.300607 
L 339.356407 132.142657 
L 342.484335 133.21291 
L 345.612263 134.516763 
L 348.740191 136.057873 
L 351.868119 137.83786 
L 354.996047 139.855959 
L 358.514966 142.406446 
L 362.033884 145.243928 
L 365.552803 148.352674 
L 369.462713 152.097304 
L 373.763614 156.519855 
L 379.237488 162.488611 
L 392.140191 176.73182 
L 395.65911 180.214838 
L 398.396047 182.651194 
L 400.741993 184.488998 
L 403.087939 186.041324 
L 405.042894 187.076016 
L 406.997848 187.83722 
L 408.561812 188.223327 
L 410.125776 188.388407 
L 411.68974 188.309889 
L 413.253704 187.963824 
L 414.817668 187.324812 
L 416.381632 186.365933 
L 417.945596 185.058676 
L 419.50956 183.372865 
L 421.073524 181.276576 
L 422.637488 178.736058 
L 424.201452 175.715645 
L 425.765416 172.177672 
L 427.32938 168.082377 
L 428.893344 163.387807 
L 430.457308 158.049717 
L 432.021272 152.021467 
L 433.585236 145.25391 
L 435.540191 135.675697 
L 437.495146 124.754089 
L 439.450101 112.374882 
L 441.405056 98.416422 
L 443.360011 82.749185 
L 443.751002 79.398707 
L 443.751002 79.398707 
" style="fill:none;stroke:#8172b3;stroke-linecap:round;stroke-width:1.5;"/>
   </g>
   <g id="line2d_76">
    <path clip-path="url(#p4fcf45d141)" d="M 53.151002 172.020741 
L 62.143794 170.234415 
L 71.136587 168.220929 
L 80.520371 165.894909 
L 90.686137 163.143487 
L 102.024875 159.83798 
L 116.100551 155.489226 
L 148.943794 145.239978 
L 158.718569 142.472412 
L 167.320371 140.267369 
L 174.7492 138.587342 
L 181.787038 137.227019 
L 188.042894 136.235668 
L 194.298749 135.474467 
L 200.163614 134.990486 
L 205.637488 134.755513 
L 211.111362 134.743569 
L 216.585236 134.966614 
L 221.668119 135.393053 
L 226.751002 136.037372 
L 231.833884 136.904174 
L 236.916767 137.995905 
L 241.99965 139.312558 
L 247.082533 140.851363 
L 252.556407 142.750205 
L 258.030281 144.888148 
L 263.895146 147.425009 
L 270.151002 150.381068 
L 277.188839 153.961822 
L 286.181632 158.807976 
L 304.167218 168.573639 
L 310.423074 171.673218 
L 315.505957 173.952144 
L 320.197848 175.803908 
L 324.107758 177.122356 
L 328.017668 178.202571 
L 331.536587 178.944601 
L 335.055506 179.444584 
L 338.183434 179.667552 
L 341.311362 179.666209 
L 344.43929 179.426194 
L 347.176227 179.009976 
L 349.913164 178.392958 
L 352.650101 177.568266 
L 355.387038 176.530294 
L 358.123975 175.274935 
L 360.860912 173.799842 
L 363.988839 171.844668 
L 367.116767 169.605507 
L 370.244695 167.090381 
L 373.763614 163.947986 
L 377.282533 160.502227 
L 381.192443 156.367387 
L 386.275326 150.633812 
L 398.005056 137.206694 
L 401.132984 134.014632 
L 403.869921 131.533451 
L 406.215866 129.716427 
L 408.170821 128.47365 
L 410.125776 127.525017 
L 411.68974 127.010441 
L 413.253704 126.742029 
L 414.817668 126.748486 
L 415.990641 126.952071 
L 417.163614 127.341145 
L 418.336587 127.930056 
L 419.50956 128.733847 
L 420.682533 129.768287 
L 421.855506 131.049893 
L 423.028479 132.595961 
L 424.592443 135.100185 
L 426.156407 138.152095 
L 427.720371 141.79972 
L 429.284335 146.09401 
L 430.848299 151.088978 
L 432.412263 156.841852 
L 433.976227 163.41323 
L 435.540191 170.867248 
L 437.104155 179.271742 
L 438.668119 188.698435 
L 440.623074 202.035132 
L 442.578029 217.245193 
L 443.751002 227.340049 
L 443.751002 227.340049 
" style="fill:none;stroke:#937860;stroke-linecap:round;stroke-width:1.5;"/>
   </g>
   <g id="line2d_77">
    <path clip-path="url(#p4fcf45d141)" d="M 53.151002 137.682847 
L 60.970821 137.727167 
L 68.39965 137.990225 
L 75.828479 138.475575 
L 83.257308 139.187689 
L 90.686137 140.128324 
L 98.114966 141.296196 
L 105.543794 142.686639 
L 113.363614 144.381473 
L 121.574425 146.400484 
L 130.176227 148.753797 
L 139.560011 151.558718 
L 150.507758 155.070454 
L 170.057308 161.633215 
L 182.960011 165.842399 
L 191.952803 168.548074 
L 199.381632 170.559838 
L 206.028479 172.137165 
L 212.284335 173.390307 
L 218.1492 174.32991 
L 223.623074 174.976707 
L 228.705957 175.359447 
L 233.788839 175.516474 
L 238.480731 175.449083 
L 243.172623 175.168216 
L 247.864515 174.666314 
L 252.556407 173.9379 
L 257.248299 172.979892 
L 261.940191 171.791932 
L 266.632083 170.376725 
L 271.323975 168.740371 
L 276.406857 166.729614 
L 281.880731 164.307624 
L 287.745596 161.451361 
L 294.392443 157.948225 
L 302.994245 153.139784 
L 317.460912 145.032025 
L 323.325776 142.029 
L 328.017668 139.866272 
L 332.318569 138.132986 
L 336.228479 136.810559 
L 339.747398 135.86155 
L 342.875326 135.234767 
L 346.003254 134.833401 
L 349.131182 134.677296 
L 351.868119 134.75671 
L 354.605056 135.050015 
L 357.341993 135.567806 
L 360.07893 136.3193 
L 362.815866 137.312033 
L 365.552803 138.551518 
L 368.28974 140.040864 
L 371.026677 141.780359 
L 373.763614 143.767004 
L 376.891542 146.331167 
L 380.01947 149.191902 
L 383.538389 152.732115 
L 387.448299 157.00306 
L 392.531182 162.92297 
L 401.132984 173.013925 
L 404.260912 176.344742 
L 406.997848 178.932035 
L 409.343794 180.812811 
L 411.298749 182.078131 
L 412.862713 182.853706 
L 414.426677 183.386077 
L 415.990641 183.64251 
L 417.163614 183.632694 
L 418.336587 183.432166 
L 419.50956 183.024308 
L 420.682533 182.391622 
L 421.855506 181.515699 
L 423.028479 180.377174 
L 424.201452 178.955693 
L 425.374425 177.229872 
L 426.547398 175.177257 
L 428.111362 171.891186 
L 429.675326 167.923023 
L 431.23929 163.209825 
L 432.803254 157.684597 
L 434.367218 151.276081 
L 435.931182 143.908533 
L 437.495146 135.501498 
L 439.05911 125.969564 
L 440.623074 115.222118 
L 442.187038 103.163078 
L 443.751002 89.690625 
L 443.751002 89.690625 
" style="fill:none;stroke:#da8bc3;stroke-linecap:round;stroke-width:1.5;"/>
   </g>
   <g id="line2d_78">
    <path clip-path="url(#p4fcf45d141)" d="M 53.151002 169.292127 
L 61.752803 170.550149 
L 69.963614 171.530509 
L 77.783434 172.238229 
L 85.212263 172.685887 
L 92.250101 172.892369 
L 99.287939 172.874459 
L 105.934785 172.642425 
L 112.581632 172.195064 
L 119.228479 171.528691 
L 125.875326 170.642455 
L 132.522173 169.538641 
L 139.560011 168.139167 
L 146.597848 166.513576 
L 154.026677 164.570516 
L 162.237488 162.182166 
L 171.230281 159.327749 
L 182.960011 155.349133 
L 206.41947 147.320305 
L 214.630281 144.782175 
L 221.668119 142.840159 
L 227.923975 141.34968 
L 233.397848 140.264315 
L 238.480731 139.466153 
L 243.563614 138.892795 
L 248.255506 138.581055 
L 252.947398 138.493342 
L 257.63929 138.642537 
L 261.940191 138.996491 
L 266.241092 139.564558 
L 270.541993 140.350634 
L 274.842894 141.356073 
L 279.143794 142.579373 
L 283.835686 144.156763 
L 288.527578 145.976963 
L 293.610461 148.203861 
L 299.084335 150.866471 
L 304.9492 153.971087 
L 312.76902 158.388522 
L 328.017668 167.073679 
L 333.100551 169.690606 
L 337.401452 171.677107 
L 341.311362 173.245606 
L 344.830281 174.422295 
L 347.958209 175.251248 
L 351.086137 175.84989 
L 353.823074 176.165535 
L 356.560011 176.270383 
L 359.296948 176.149588 
L 362.033884 175.789511 
L 364.770821 175.178065 
L 367.507758 174.305118 
L 370.244695 173.162935 
L 372.981632 171.746676 
L 375.718569 170.054951 
L 378.455506 168.090443 
L 381.192443 165.860589 
L 384.320371 163.004173 
L 387.448299 159.847932 
L 390.967218 155.992001 
L 395.65911 150.491285 
L 404.651903 139.844055 
L 407.77983 136.552272 
L 410.125776 134.394991 
L 412.080731 132.873715 
L 413.644695 131.879827 
L 415.208659 131.12004 
L 416.772623 130.630249 
L 417.945596 130.463306 
L 419.118569 130.487469 
L 420.291542 130.721231 
L 421.464515 131.184137 
L 422.637488 131.896835 
L 423.810461 132.881116 
L 424.983434 134.15997 
L 426.156407 135.757633 
L 427.32938 137.699641 
L 428.502353 140.012883 
L 429.675326 142.725659 
L 431.23929 147.015864 
L 432.803254 152.144272 
L 434.367218 158.190806 
L 435.931182 165.240767 
L 437.495146 173.385123 
L 439.05911 182.72082 
L 440.623074 193.351097 
L 442.187038 205.385817 
L 443.751002 218.941825 
L 443.751002 218.941825 
" style="fill:none;stroke:#8c8c8c;stroke-linecap:round;stroke-width:1.5;"/>
   </g>
   <g id="line2d_79">
    <path clip-path="url(#p4fcf45d141)" d="M 53.151002 150.697892 
L 66.444695 147.749326 
L 76.610461 145.710344 
L 85.603254 144.127818 
L 93.814065 142.90895 
L 101.242894 142.02394 
L 108.280731 141.400437 
L 114.927578 141.02185 
L 121.574425 140.862567 
L 128.221272 140.934926 
L 134.477128 141.223186 
L 140.732984 141.730353 
L 146.988839 142.458775 
L 153.244695 143.407542 
L 159.500551 144.572162 
L 166.147398 146.036649 
L 173.185236 147.825567 
L 180.614065 149.952571 
L 188.824875 152.543141 
L 198.990641 156.003627 
L 226.360011 165.47584 
L 233.397848 167.604441 
L 239.653704 169.27061 
L 245.127578 170.509541 
L 250.210461 171.444215 
L 254.902353 172.09818 
L 259.594245 172.530836 
L 263.895146 172.717187 
L 268.196047 172.689431 
L 272.496948 172.43696 
L 276.797848 171.951517 
L 281.098749 171.227594 
L 285.39965 170.26285 
L 289.700551 169.058528 
L 294.001452 167.619881 
L 298.302353 165.956602 
L 302.994245 163.903136 
L 308.077128 161.426827 
L 313.941993 158.300604 
L 321.370821 154.059347 
L 335.446497 145.966504 
L 340.52938 143.338722 
L 344.830281 141.37049 
L 348.3492 139.988736 
L 351.477128 138.96919 
L 354.605056 138.176433 
L 357.341993 137.691478 
L 360.07893 137.420986 
L 362.815866 137.382849 
L 365.552803 137.593728 
L 367.898749 137.984098 
L 370.244695 138.576678 
L 372.590641 139.37827 
L 374.936587 140.393985 
L 377.282533 141.626942 
L 380.01947 143.340859 
L 382.756407 145.347952 
L 385.493344 147.638837 
L 388.621272 150.583235 
L 391.7492 153.839484 
L 395.65911 158.265297 
L 401.523975 165.323778 
L 406.606857 171.334785 
L 409.734785 174.67811 
L 412.080731 176.859289 
L 414.035686 178.381224 
L 415.59965 179.357126 
L 417.163614 180.077252 
L 418.336587 180.424767 
L 419.50956 180.586527 
L 420.682533 180.542657 
L 421.855506 180.272075 
L 423.028479 179.752428 
L 424.201452 178.960039 
L 425.374425 177.869846 
L 426.547398 176.455342 
L 427.720371 174.688506 
L 428.893344 172.539742 
L 430.066317 169.977806 
L 431.23929 166.969735 
L 432.412263 163.480774 
L 433.976227 158.017195 
L 435.540191 151.541122 
L 437.104155 143.953796 
L 438.668119 135.149576 
L 440.232083 125.015552 
L 441.796047 113.43114 
L 443.360011 100.267659 
L 443.751002 96.714173 
L 443.751002 96.714173 
" style="fill:none;stroke:#ccb974;stroke-linecap:round;stroke-width:1.5;"/>
   </g>
   <g id="patch_3">
    <path d="M 53.151002 289.274625 
L 53.151002 23.162625 
" style="fill:none;stroke:#262626;stroke-linecap:square;stroke-linejoin:miter;stroke-width:1.25;"/>
   </g>
   <g id="patch_4">
    <path d="M 443.751002 289.274625 
L 443.751002 23.162625 
" style="fill:none;stroke:#262626;stroke-linecap:square;stroke-linejoin:miter;stroke-width:1.25;"/>
   </g>
   <g id="patch_5">
    <path d="M 53.151002 289.274625 
L 443.751002 289.274625 
" style="fill:none;stroke:#262626;stroke-linecap:square;stroke-linejoin:miter;stroke-width:1.25;"/>
   </g>
   <g id="patch_6">
    <path d="M 53.151002 23.162625 
L 443.751002 23.162625 
" style="fill:none;stroke:#262626;stroke-linecap:square;stroke-linejoin:miter;stroke-width:1.25;"/>
   </g>
   <g id="text_14">
    <!-- Orthogonalized inverse-monomial functions -->
    <g style="fill:#262626;" transform="translate(115.705488 17.162625)scale(0.144 -0.144)">
     <defs>
      <path d="M 4307 2135 
C 4307 3437 3366 4416 2304 4416 
C 1216 4416 294 3424 294 2135 
C 294 845 1229 -128 2298 -128 
C 3392 -128 4307 864 4307 2135 
z
M 2304 -13 
C 1574 -13 781 711 781 2217 
C 781 3716 1651 4301 2298 4301 
C 2976 4301 3821 3698 3821 2217 
C 3821 686 3008 -13 2304 -13 
z
" id="CMR17-4f" transform="scale(0.015625)"/>
      <path d="M 960 1497 
C 960 2112 1222 2688 1702 2688 
C 1747 2688 1792 2682 1837 2662 
C 1837 2662 1696 2617 1696 2452 
C 1696 2298 1818 2234 1914 2234 
C 1990 2234 2131 2279 2131 2458 
C 2131 2663 1926 2790 1709 2790 
C 1222 2790 1011 2317 947 2093 
L 941 2093 
L 941 2790 
L 198 2720 
L 198 2554 
C 576 2554 634 2515 634 2208 
L 634 428 
C 634 184 608 153 198 153 
L 198 -13 
C 352 0 646 0 813 0 
C 998 0 1325 0 1498 -13 
L 1498 153 
C 1037 153 960 153 960 440 
L 960 1497 
z
" id="CMR17-72" transform="scale(0.015625)"/>
      <path d="M 966 2560 
L 1862 2560 
L 1862 2725 
L 966 2725 
L 966 3904 
L 851 3904 
C 838 3245 614 2668 70 2668 
L 70 2560 
L 627 2560 
L 627 771 
C 627 650 627 -64 1370 -64 
C 1747 -64 1965 306 1965 777 
L 1965 1140 
L 1850 1140 
L 1850 783 
C 1850 344 1677 51 1408 51 
C 1222 51 966 178 966 758 
L 966 2560 
z
" id="CMR17-74" transform="scale(0.015625)"/>
      <path d="M 2656 1933 
C 2656 2259 2592 2790 1837 2790 
C 1312 2790 1056 2368 979 2157 
L 973 2157 
L 973 4396 
L 211 4326 
L 211 4160 
C 589 4160 646 4122 646 3817 
L 646 426 
C 646 184 621 153 211 153 
L 211 -13 
C 365 0 646 0 813 0 
C 979 0 1267 0 1421 -13 
L 1421 153 
C 1011 153 986 178 986 428 
L 986 1658 
C 986 2247 1344 2688 1792 2688 
C 2266 2688 2317 2266 2317 1958 
L 2317 428 
C 2317 184 2291 153 1882 153 
L 1882 -13 
C 2035 0 2317 0 2483 0 
C 2650 0 2938 0 3091 -13 
L 3091 153 
C 2682 153 2656 178 2656 428 
L 2656 1933 
z
" id="CMR17-68" transform="scale(0.015625)"/>
      <path d="M 2758 1356 
C 2758 2176 2163 2816 1466 2816 
C 768 2816 173 2176 173 1356 
C 173 551 768 -64 1466 -64 
C 2163 -64 2758 551 2758 1356 
z
M 1466 51 
C 1165 51 909 230 762 480 
C 602 767 582 1126 582 1408 
C 582 1677 595 2010 762 2298 
C 890 2509 1139 2714 1466 2714 
C 1754 2714 1997 2554 2150 2330 
C 2349 2029 2349 1607 2349 1408 
C 2349 1158 2336 775 2163 467 
C 1984 173 1709 51 1466 51 
z
" id="CMR17-6f" transform="scale(0.015625)"/>
      <path d="M 710 1164 
C 832 1068 1043 960 1299 960 
C 1805 960 2240 1357 2240 1888 
C 2240 2054 2189 2310 1997 2509 
C 2176 2692 2438 2752 2586 2752 
C 2611 2752 2650 2752 2682 2734 
C 2656 2728 2598 2703 2598 2605 
C 2598 2527 2656 2471 2739 2471 
C 2835 2471 2886 2533 2886 2614 
C 2886 2731 2790 2854 2586 2854 
C 2330 2854 2106 2738 1926 2580 
C 1734 2753 1504 2816 1299 2816 
C 794 2816 358 2419 358 1888 
C 358 1522 570 1292 634 1228 
C 442 1004 442 743 442 711 
C 442 545 506 302 723 168 
C 390 85 128 -169 128 -486 
C 128 -943 736 -1280 1466 -1280 
C 2170 -1280 2803 -956 2803 -479 
C 2803 384 1856 384 1363 384 
C 1216 384 954 384 922 391 
C 723 423 589 602 589 826 
C 589 883 589 1024 710 1164 
z
M 1299 1068 
C 736 1068 736 1760 736 1889 
C 736 2016 736 2708 1299 2708 
C 1862 2708 1862 2016 1862 1889 
C 1862 1760 1862 1068 1299 1068 
z
M 1466 -1171 
C 826 -1171 384 -835 384 -486 
C 384 -289 493 -105 634 -4 
C 794 104 858 104 1293 104 
C 1818 104 2547 104 2547 -486 
C 2547 -835 2106 -1171 1466 -1171 
z
" id="CMR17-67" transform="scale(0.015625)"/>
      <path d="M 2656 1933 
C 2656 2259 2592 2790 1837 2790 
C 1331 2790 1069 2400 973 2144 
L 966 2144 
L 966 2790 
L 211 2720 
L 211 2554 
C 589 2554 646 2515 646 2208 
L 646 428 
C 646 184 621 153 211 153 
L 211 -13 
C 365 0 646 0 813 0 
C 979 0 1267 0 1421 -13 
L 1421 153 
C 1011 153 986 178 986 428 
L 986 1658 
C 986 2247 1344 2688 1792 2688 
C 2266 2688 2317 2266 2317 1958 
L 2317 428 
C 2317 184 2291 153 1882 153 
L 1882 -13 
C 2035 0 2317 0 2483 0 
C 2650 0 2938 0 3091 -13 
L 3091 153 
C 2682 153 2656 178 2656 428 
L 2656 1933 
z
" id="CMR17-6e" transform="scale(0.015625)"/>
      <path d="M 2304 1653 
C 2304 2072 2304 2294 2035 2543 
C 1798 2752 1523 2816 1306 2816 
C 800 2816 435 2407 435 1971 
C 435 1728 627 1728 666 1728 
C 749 1728 896 1778 896 1954 
C 896 2112 774 2181 666 2181 
C 640 2181 608 2174 589 2168 
C 723 2592 1069 2714 1293 2714 
C 1613 2714 1965 2429 1965 1885 
L 1965 1600 
C 1587 1600 1133 1549 774 1357 
C 371 1133 256 813 256 570 
C 256 77 832 -64 1171 -64 
C 1523 -64 1850 139 1990 511 
C 2003 233 2182 -18 2464 -18 
C 2598 -18 2938 70 2938 567 
L 2938 920 
L 2822 920 
L 2822 562 
C 2822 178 2650 128 2566 128 
C 2304 128 2304 458 2304 738 
L 2304 1653 
z
M 1965 870 
C 1965 317 1568 38 1216 38 
C 896 38 646 275 646 570 
C 646 761 730 1100 1101 1305 
C 1408 1478 1760 1504 1965 1504 
L 1965 870 
z
" id="CMR17-61" transform="scale(0.015625)"/>
      <path d="M 979 4396 
L 218 4326 
L 218 4160 
C 595 4160 653 4122 653 3817 
L 653 426 
C 653 184 627 153 218 153 
L 218 -13 
C 371 0 653 0 813 0 
C 979 0 1261 0 1414 -13 
L 1414 153 
C 1005 153 979 178 979 426 
L 979 4396 
z
" id="CMR17-6c" transform="scale(0.015625)"/>
      <path d="M 992 3909 
C 992 4049 877 4170 730 4170 
C 589 4170 467 4056 467 3909 
C 467 3769 582 3648 730 3648 
C 870 3648 992 3763 992 3909 
z
M 243 2706 
L 243 2541 
C 602 2541 653 2502 653 2197 
L 653 427 
C 653 184 627 153 218 153 
L 218 -13 
C 371 0 646 0 806 0 
C 960 0 1222 0 1370 -13 
L 1370 153 
C 992 153 979 191 979 420 
L 979 2776 
L 243 2706 
z
" id="CMR17-69" transform="scale(0.015625)"/>
      <path d="M 2310 2605 
C 2362 2670 2362 2682 2362 2695 
C 2362 2752 2336 2752 2221 2752 
L 275 2752 
L 211 1760 
L 326 1760 
C 371 2381 442 2650 1178 2650 
L 1958 2650 
L 128 96 
C 128 0 134 0 269 0 
L 2291 0 
L 2381 1152 
L 2266 1152 
C 2214 442 2131 115 1350 115 
L 531 115 
L 2310 2605 
z
" id="CMR17-7a" transform="scale(0.015625)"/>
      <path d="M 2438 1472 
C 2464 1498 2464 1511 2464 1576 
C 2464 2238 2118 2816 1389 2816 
C 710 2816 173 2169 173 1383 
C 173 551 781 -64 1459 -64 
C 2176 -64 2458 607 2458 740 
C 2458 784 2419 784 2406 784 
C 2362 784 2355 771 2330 696 
C 2189 265 1837 51 1504 51 
C 1229 51 954 203 781 480 
C 582 803 582 1176 582 1472 
L 2438 1472 
z
M 589 1568 
C 634 2505 1126 2714 1382 2714 
C 1818 2714 2112 2297 2118 1568 
L 589 1568 
z
" id="CMR17-65" transform="scale(0.015625)"/>
      <path d="M 1869 4326 
L 1869 4160 
C 2246 4160 2304 4122 2304 3820 
L 2304 2345 
C 2278 2377 2016 2790 1498 2790 
C 845 2790 211 2208 211 1364 
C 211 525 806 -64 1434 -64 
C 1978 -64 2259 337 2291 380 
L 2291 -63 
L 3066 -63 
L 3066 128 
C 2688 128 2630 166 2630 473 
L 2630 4396 
L 1869 4326 
z
M 2291 755 
C 2291 563 2176 390 2029 262 
C 1811 70 1594 38 1472 38 
C 1286 38 621 134 621 1356 
C 621 2612 1363 2688 1530 2688 
C 1824 2688 2061 2522 2208 2291 
C 2291 2157 2291 2138 2291 2023 
L 2291 755 
z
" id="CMR17-64" transform="scale(0.015625)"/>
      <path d="M 2502 2163 
C 2560 2304 2662 2560 3034 2560 
L 3034 2726 
C 2912 2726 2752 2726 2630 2726 
C 2496 2726 2285 2726 2157 2732 
L 2157 2566 
C 2317 2553 2406 2477 2406 2311 
C 2406 2253 2406 2240 2368 2151 
L 1664 377 
L 902 2286 
C 864 2369 864 2381 864 2407 
C 864 2560 1075 2560 1171 2560 
L 1171 2732 
C 1018 2726 736 2726 576 2726 
C 403 2726 205 2726 64 2732 
L 64 2560 
C 307 2560 442 2560 518 2362 
L 1446 44 
C 1485 -51 1491 -64 1549 -64 
C 1606 -64 1613 -51 1651 44 
L 2502 2163 
z
" id="CMR17-76" transform="scale(0.015625)"/>
      <path d="M 1978 2697 
C 1978 2813 1971 2819 1933 2819 
C 1907 2819 1901 2813 1824 2717 
C 1805 2691 1747 2626 1728 2601 
C 1523 2819 1235 2819 1126 2819 
C 416 2819 160 2447 160 2076 
C 160 1498 813 1365 998 1325 
C 1402 1243 1542 1217 1677 1101 
C 1760 1025 1901 884 1901 654 
C 1901 384 1747 38 1158 38 
C 602 38 403 460 288 1021 
C 269 1110 269 1117 218 1117 
C 166 1117 160 1110 160 983 
L 160 63 
C 160 -51 166 -58 205 -58 
C 237 -58 243 -51 275 0 
C 314 57 410 211 448 276 
C 576 103 800 -64 1158 -64 
C 1792 -64 2131 283 2131 784 
C 2131 1112 1958 1285 1875 1362 
C 1683 1561 1459 1606 1190 1657 
C 838 1735 390 1825 390 2217 
C 390 2383 480 2737 1126 2737 
C 1811 2737 1850 2094 1862 1888 
C 1869 1856 1901 1849 1920 1849 
C 1978 1849 1978 1869 1978 1978 
L 1978 2697 
z
" id="CMR17-73" transform="scale(0.015625)"/>
      <path d="M 1632 1216 
L 1632 1496 
L 26 1496 
L 26 1216 
L 1632 1216 
z
" id="CMR17-2d" transform="scale(0.015625)"/>
      <path d="M 4326 1933 
C 4326 2252 4269 2790 3507 2790 
C 3072 2790 2771 2496 2656 2151 
L 2650 2151 
C 2573 2676 2195 2790 1837 2790 
C 1331 2790 1069 2400 973 2144 
L 966 2144 
L 966 2790 
L 211 2720 
L 211 2554 
C 589 2554 646 2515 646 2208 
L 646 428 
C 646 184 621 153 211 153 
L 211 -13 
C 365 0 646 0 813 0 
C 979 0 1267 0 1421 -13 
L 1421 153 
C 1011 153 986 178 986 428 
L 986 1658 
C 986 2247 1344 2688 1792 2688 
C 2266 2688 2317 2266 2317 1958 
L 2317 428 
C 2317 184 2291 153 1882 153 
L 1882 -13 
C 2035 0 2317 0 2483 0 
C 2650 0 2938 0 3091 -13 
L 3091 153 
C 2682 153 2656 178 2656 428 
L 2656 1658 
C 2656 2247 3014 2688 3462 2688 
C 3936 2688 3987 2266 3987 1958 
L 3987 428 
C 3987 184 3962 153 3552 153 
L 3552 -13 
C 3706 0 3987 0 4154 0 
C 4320 0 4608 0 4762 -13 
L 4762 153 
C 4352 153 4326 178 4326 428 
L 4326 1933 
z
" id="CMR17-6d" transform="scale(0.015625)"/>
      <path d="M 979 2560 
L 1709 2560 
L 1709 2725 
L 966 2725 
L 966 3494 
C 966 4022 1235 4352 1510 4352 
C 1594 4352 1690 4327 1754 4282 
C 1702 4269 1568 4225 1568 4067 
C 1568 3901 1696 3850 1786 3850 
C 1875 3850 2003 3901 2003 4067 
C 2003 4308 1773 4454 1517 4454 
C 1152 4454 653 4156 653 3481 
L 653 2725 
L 141 2725 
L 141 2560 
L 653 2560 
L 653 427 
C 653 184 627 153 218 153 
L 218 -13 
C 371 0 666 0 832 0 
C 1018 0 1344 0 1517 -13 
L 1517 153 
C 1056 153 979 153 979 439 
L 979 2560 
z
" id="CMR17-66" transform="scale(0.015625)"/>
      <path d="M 1882 2693 
L 1882 2528 
C 2259 2528 2317 2489 2317 2186 
L 2317 1032 
C 2317 500 2029 38 1555 38 
C 1030 38 986 348 986 678 
L 986 2763 
L 211 2693 
L 211 2528 
C 467 2528 640 2528 646 2274 
L 646 1058 
C 646 633 646 361 813 183 
C 896 101 1056 -64 1517 -64 
C 2061 -64 2272 377 2323 506 
L 2330 506 
L 2330 -63 
L 3091 -63 
L 3091 128 
C 2714 128 2656 166 2656 473 
L 2656 2763 
L 1882 2693 
z
" id="CMR17-75" transform="scale(0.015625)"/>
      <path d="M 2234 2240 
C 2112 2240 1933 2240 1933 2017 
C 1933 1838 2080 1787 2163 1787 
C 2208 1787 2394 1807 2394 2024 
C 2394 2467 1958 2803 1466 2803 
C 787 2803 211 2178 211 1363 
C 211 516 813 -64 1466 -64 
C 2259 -64 2458 677 2458 748 
C 2458 774 2451 793 2406 793 
C 2362 793 2355 787 2330 703 
C 2163 180 1798 51 1523 51 
C 1114 51 621 427 621 1369 
C 621 2338 1094 2688 1472 2688 
C 1722 2688 2093 2573 2234 2240 
z
" id="CMR17-63" transform="scale(0.015625)"/>
     </defs>
     <use transform="scale(0.996264)" xlink:href="#CMR17-4f"/>
     <use transform="translate(71.714788 0)scale(0.996264)" xlink:href="#CMR17-72"/>
     <use transform="translate(106.995556 0)scale(0.996264)" xlink:href="#CMR17-74"/>
     <use transform="translate(142.276324 0)scale(0.996264)" xlink:href="#CMR17-68"/>
     <use transform="translate(193.171694 0)scale(0.996264)" xlink:href="#CMR17-6f"/>
     <use transform="translate(238.862171 0)scale(0.996264)" xlink:href="#CMR17-67"/>
     <use transform="translate(284.552648 0)scale(0.996264)" xlink:href="#CMR17-6f"/>
     <use transform="translate(330.243125 0)scale(0.996264)" xlink:href="#CMR17-6e"/>
     <use transform="translate(381.138495 0)scale(0.996264)" xlink:href="#CMR17-61"/>
     <use transform="translate(426.828972 0)scale(0.996264)" xlink:href="#CMR17-6c"/>
     <use transform="translate(451.700031 0)scale(0.996264)" xlink:href="#CMR17-69"/>
     <use transform="translate(476.571089 0)scale(0.996264)" xlink:href="#CMR17-7a"/>
     <use transform="translate(517.056749 0)scale(0.996264)" xlink:href="#CMR17-65"/>
     <use transform="translate(557.54241 0)scale(0.996264)" xlink:href="#CMR17-64"/>
     <use transform="translate(638.513746 0)scale(0.996264)" xlink:href="#CMR17-69"/>
     <use transform="translate(663.384805 0)scale(0.996264)" xlink:href="#CMR17-6e"/>
     <use transform="translate(711.67772 0)scale(0.996264)" xlink:href="#CMR17-76"/>
     <use transform="translate(757.368182 0)scale(0.996264)" xlink:href="#CMR17-65"/>
     <use transform="translate(797.853843 0)scale(0.996264)" xlink:href="#CMR17-72"/>
     <use transform="translate(833.134611 0)scale(0.996264)" xlink:href="#CMR17-73"/>
     <use transform="translate(868.935948 0)scale(0.996264)" xlink:href="#CMR17-65"/>
     <use transform="translate(909.421609 0)scale(0.996264)" xlink:href="#CMR17-2d"/>
     <use transform="translate(939.497575 0)scale(0.996264)" xlink:href="#CMR17-6d"/>
     <use transform="translate(1016.417165 0)scale(0.996264)" xlink:href="#CMR17-6f"/>
     <use transform="translate(1062.107642 0)scale(0.996264)" xlink:href="#CMR17-6e"/>
     <use transform="translate(1113.003012 0)scale(0.996264)" xlink:href="#CMR17-6f"/>
     <use transform="translate(1158.693489 0)scale(0.996264)" xlink:href="#CMR17-6d"/>
     <use transform="translate(1235.613079 0)scale(0.996264)" xlink:href="#CMR17-69"/>
     <use transform="translate(1260.484137 0)scale(0.996264)" xlink:href="#CMR17-61"/>
     <use transform="translate(1306.174614 0)scale(0.996264)" xlink:href="#CMR17-6c"/>
     <use transform="translate(1361.121639 0)scale(0.996264)" xlink:href="#CMR17-66"/>
     <use transform="translate(1388.595152 0)scale(0.996264)" xlink:href="#CMR17-75"/>
     <use transform="translate(1439.490521 0)scale(0.996264)" xlink:href="#CMR17-6e"/>
     <use transform="translate(1490.385891 0)scale(0.996264)" xlink:href="#CMR17-63"/>
     <use transform="translate(1530.871552 0)scale(0.996264)" xlink:href="#CMR17-74"/>
     <use transform="translate(1566.152319 0)scale(0.996264)" xlink:href="#CMR17-69"/>
     <use transform="translate(1591.023378 0)scale(0.996264)" xlink:href="#CMR17-6f"/>
     <use transform="translate(1636.713855 0)scale(0.996264)" xlink:href="#CMR17-6e"/>
     <use transform="translate(1687.609225 0)scale(0.996264)" xlink:href="#CMR17-73"/>
    </g>
   </g>
   <g id="legend_1">
    <g id="line2d_80">
     <path d="M 66.351002 232.103441 
L 92.751002 232.103441 
" style="fill:none;stroke:#4c72b0;stroke-linecap:round;stroke-width:1.5;"/>
    </g>
    <g id="line2d_81"/>
    <g id="text_15">
     <!-- $i = 1$ -->
     <g style="fill:#262626;" transform="translate(103.311002 236.723441)scale(0.132 -0.132)">
      <defs>
       <path d="M 4115 2017 
C 4211 2017 4307 2017 4307 2125 
C 4307 2240 4198 2240 4090 2240 
L 512 2240 
C 403 2240 294 2240 294 2125 
C 294 2017 390 2017 486 2017 
L 4115 2017 
z
M 4090 896 
C 4198 896 4307 896 4307 1011 
C 4307 1119 4211 1119 4115 1119 
L 486 1119 
C 390 1119 294 1119 294 1011 
C 294 896 403 896 512 896 
L 4090 896 
z
" id="CMR17-3d" transform="scale(0.015625)"/>
      </defs>
      <use transform="scale(0.996264)" xlink:href="#CMMI12-69"/>
      <use transform="translate(60.952611 0)scale(0.996264)" xlink:href="#CMR17-3d"/>
      <use transform="translate(160.341408 0)scale(0.996264)" xlink:href="#CMR17-31"/>
     </g>
    </g>
    <g id="line2d_82">
     <path d="M 66.351002 250.500502 
L 92.751002 250.500502 
" style="fill:none;stroke:#dd8452;stroke-linecap:round;stroke-width:1.5;"/>
    </g>
    <g id="line2d_83"/>
    <g id="text_16">
     <!-- $i = 2$ -->
     <g style="fill:#262626;" transform="translate(103.311002 255.120502)scale(0.132 -0.132)">
      <use transform="scale(0.996264)" xlink:href="#CMMI12-69"/>
      <use transform="translate(60.952611 0)scale(0.996264)" xlink:href="#CMR17-3d"/>
      <use transform="translate(160.341408 0)scale(0.996264)" xlink:href="#CMR17-32"/>
     </g>
    </g>
    <g id="line2d_84">
     <path d="M 66.351002 268.897563 
L 92.751002 268.897563 
" style="fill:none;stroke:#55a868;stroke-linecap:round;stroke-width:1.5;"/>
    </g>
    <g id="line2d_85"/>
    <g id="text_17">
     <!-- $i = 3$ -->
     <g style="fill:#262626;" transform="translate(103.311002 273.517563)scale(0.132 -0.132)">
      <use transform="scale(0.996264)" xlink:href="#CMMI12-69"/>
      <use transform="translate(60.952611 0)scale(0.996264)" xlink:href="#CMR17-3d"/>
      <use transform="translate(160.341408 0)scale(0.996264)" xlink:href="#CMR17-33"/>
     </g>
    </g>
    <g id="line2d_86">
     <path d="M 157.86297 232.103441 
L 184.26297 232.103441 
" style="fill:none;stroke:#c44e52;stroke-linecap:round;stroke-width:1.5;"/>
    </g>
    <g id="line2d_87"/>
    <g id="text_18">
     <!-- $i = 4$ -->
     <g style="fill:#262626;" transform="translate(194.82297 236.723441)scale(0.132 -0.132)">
      <use transform="scale(0.996264)" xlink:href="#CMMI12-69"/>
      <use transform="translate(60.952611 0)scale(0.996264)" xlink:href="#CMR17-3d"/>
      <use transform="translate(160.341408 0)scale(0.996264)" xlink:href="#CMR17-34"/>
     </g>
    </g>
    <g id="line2d_88">
     <path d="M 157.86297 250.500502 
L 184.26297 250.500502 
" style="fill:none;stroke:#8172b3;stroke-linecap:round;stroke-width:1.5;"/>
    </g>
    <g id="line2d_89"/>
    <g id="text_19">
     <!-- $i = 5$ -->
     <g style="fill:#262626;" transform="translate(194.82297 255.120502)scale(0.132 -0.132)">
      <use transform="scale(0.996264)" xlink:href="#CMMI12-69"/>
      <use transform="translate(60.952611 0)scale(0.996264)" xlink:href="#CMR17-3d"/>
      <use transform="translate(160.341408 0)scale(0.996264)" xlink:href="#CMR17-35"/>
     </g>
    </g>
    <g id="line2d_90">
     <path d="M 157.86297 268.897563 
L 184.26297 268.897563 
" style="fill:none;stroke:#937860;stroke-linecap:round;stroke-width:1.5;"/>
    </g>
    <g id="line2d_91"/>
    <g id="text_20">
     <!-- $i = 6$ -->
     <g style="fill:#262626;" transform="translate(194.82297 273.517563)scale(0.132 -0.132)">
      <use transform="scale(0.996264)" xlink:href="#CMMI12-69"/>
      <use transform="translate(60.952611 0)scale(0.996264)" xlink:href="#CMR17-3d"/>
      <use transform="translate(160.341408 0)scale(0.996264)" xlink:href="#CMR17-36"/>
     </g>
    </g>
    <g id="line2d_92">
     <path d="M 249.374938 232.103441 
L 275.774938 232.103441 
" style="fill:none;stroke:#da8bc3;stroke-linecap:round;stroke-width:1.5;"/>
    </g>
    <g id="line2d_93"/>
    <g id="text_21">
     <!-- $i = 7$ -->
     <g style="fill:#262626;" transform="translate(286.334938 236.723441)scale(0.132 -0.132)">
      <use transform="scale(0.996264)" xlink:href="#CMMI12-69"/>
      <use transform="translate(60.952611 0)scale(0.996264)" xlink:href="#CMR17-3d"/>
      <use transform="translate(160.341408 0)scale(0.996264)" xlink:href="#CMR17-37"/>
     </g>
    </g>
    <g id="line2d_94">
     <path d="M 249.374938 250.500502 
L 275.774938 250.500502 
" style="fill:none;stroke:#8c8c8c;stroke-linecap:round;stroke-width:1.5;"/>
    </g>
    <g id="line2d_95"/>
    <g id="text_22">
     <!-- $i = 8$ -->
     <g style="fill:#262626;" transform="translate(286.334938 255.120502)scale(0.132 -0.132)">
      <defs>
       <path d="M 1741 2264 
C 2144 2467 2554 2773 2554 3263 
C 2554 3841 1990 4179 1472 4179 
C 890 4179 378 3759 378 3180 
C 378 3021 416 2747 666 2505 
C 730 2442 998 2251 1171 2130 
C 883 1983 211 1634 211 934 
C 211 279 838 -128 1459 -128 
C 2144 -128 2720 362 2720 1010 
C 2720 1590 2330 1857 2074 2029 
L 1741 2264 
z
M 902 2822 
C 851 2854 595 3051 595 3351 
C 595 3739 998 4032 1459 4032 
C 1965 4032 2336 3676 2336 3262 
C 2336 2669 1670 2331 1638 2331 
C 1632 2331 1626 2331 1574 2370 
L 902 2822 
z
M 2080 1519 
C 2176 1449 2483 1240 2483 851 
C 2483 381 2010 25 1472 25 
C 890 25 448 438 448 940 
C 448 1443 838 1862 1280 2060 
L 2080 1519 
z
" id="CMR17-38" transform="scale(0.015625)"/>
      </defs>
      <use transform="scale(0.996264)" xlink:href="#CMMI12-69"/>
      <use transform="translate(60.952611 0)scale(0.996264)" xlink:href="#CMR17-3d"/>
      <use transform="translate(160.341408 0)scale(0.996264)" xlink:href="#CMR17-38"/>
     </g>
    </g>
    <g id="line2d_96">
     <path d="M 249.374938 268.897563 
L 275.774938 268.897563 
" style="fill:none;stroke:#ccb974;stroke-linecap:round;stroke-width:1.5;"/>
    </g>
    <g id="line2d_97"/>
    <g id="text_23">
     <!-- $i = 9$ -->
     <g style="fill:#262626;" transform="translate(286.334938 273.517563)scale(0.132 -0.132)">
      <defs>
       <path d="M 2253 1864 
C 2253 464 1670 31 1190 31 
C 1043 31 685 31 538 294 
C 704 268 826 357 826 518 
C 826 692 685 749 595 749 
C 538 749 365 723 365 506 
C 365 71 742 -128 1203 -128 
C 1939 -128 2688 674 2688 2073 
C 2688 3817 1971 4179 1485 4179 
C 851 4179 243 3628 243 2778 
C 243 1991 762 1408 1414 1408 
C 1952 1408 2189 1903 2253 2112 
L 2253 1864 
z
M 1427 1510 
C 1254 1510 1011 1542 813 1922 
C 678 2169 678 2461 678 2771 
C 678 3146 678 3405 858 3684 
C 947 3817 1114 4032 1485 4032 
C 2240 4032 2240 2885 2240 2632 
C 2240 2182 2035 1510 1427 1510 
z
" id="CMR17-39" transform="scale(0.015625)"/>
      </defs>
      <use transform="scale(0.996264)" xlink:href="#CMMI12-69"/>
      <use transform="translate(60.952611 0)scale(0.996264)" xlink:href="#CMR17-3d"/>
      <use transform="translate(160.341408 0)scale(0.996264)" xlink:href="#CMR17-39"/>
     </g>
    </g>
   </g>
  </g>
 </g>
 <defs>
  <clipPath id="p4fcf45d141">
   <rect height="266.112" width="390.6" x="53.151002" y="23.162625"/>
  </clipPath>
 </defs>
</svg>
